<svg width="25" height="24" viewBox="0 0 25 24" fill="none" xmlns="http://www.w3.org/2000/svg">
<path d="M9.5 10.75C7.98 10.75 6.75 9.52 6.75 8C6.75 6.48 7.98 5.25 9.5 5.25C11.02 5.25 12.25 6.48 12.25 8C12.25 9.52 11.02 10.75 9.5 10.75ZM9.5 6.75C8.81 6.75 8.25 7.31 8.25 8C8.25 8.69 8.81 9.25 9.5 9.25C10.19 9.25 10.75 8.69 10.75 8C10.75 7.31 10.19 6.75 9.5 6.75Z" fill="#A72F3B"/>
<path d="M15.5 22.75H9.5C4.07 22.75 1.75 20.43 1.75 15V9C1.75 3.57 4.07 1.25 9.5 1.25H13.5C13.91 1.25 14.25 1.59 14.25 2C14.25 2.41 13.91 2.75 13.5 2.75H9.5C4.89 2.75 3.25 4.39 3.25 9V15C3.25 19.61 4.89 21.25 9.5 21.25H15.5C20.11 21.25 21.75 19.61 21.75 15V10C21.75 9.59 22.09 9.25 22.5 9.25C22.91 9.25 23.25 9.59 23.25 10V15C23.25 20.43 20.93 22.75 15.5 22.75Z" fill="#A72F3B"/>
<path d="M21.75 5.75H16.25C15.84 5.75 15.5 5.41 15.5 5C15.5 4.59 15.84 4.25 16.25 4.25H21.75C22.16 4.25 22.5 4.59 22.5 5C22.5 5.41 22.16 5.75 21.75 5.75Z" fill="#A72F3B"/>
<path d="M19 8.5C18.59 8.5 18.25 8.16 18.25 7.75V2.25C18.25 1.84 18.59 1.5 19 1.5C19.41 1.5 19.75 1.84 19.75 2.25V7.75C19.75 8.16 19.41 8.5 19 8.5Z" fill="#A72F3B"/>
<path d="M3.16932 19.7025C2.92932 19.7025 2.68932 19.5825 2.54932 19.3725C2.31932 19.0325 2.40932 18.5625 2.74932 18.3325L7.67932 15.0225C8.75932 14.3025 10.2493 14.3825 11.2293 15.2125L11.5593 15.5025C12.0593 15.9325 12.9093 15.9325 13.3993 15.5025L17.5593 11.9325C18.6293 11.0225 20.2893 11.0225 21.3593 11.9325L22.9893 13.3325C23.2993 13.6025 23.3393 14.0725 23.0693 14.3925C22.7993 14.7025 22.3293 14.7425 22.0093 14.4725L20.3793 13.0725C19.8793 12.6425 19.0293 12.6425 18.5393 13.0725L14.3793 16.6425C13.3193 17.5525 11.6493 17.5525 10.5793 16.6425L10.2493 16.3525C9.78932 15.9625 9.02932 15.9225 8.51932 16.2725L3.59932 19.5825C3.45932 19.6625 3.30932 19.7025 3.16932 19.7025Z" fill="#A72F3B"/>
</svg>
