<svg width="20" height="20" viewBox="0 0 20 20" fill="none" xmlns="http://www.w3.org/2000/svg">
<path d="M10 18.9557C5.05835 18.9557 1.04169 14.9391 1.04169 9.9974C1.04169 5.05573 5.05835 1.03906 10 1.03906C14.9417 1.03906 18.9584 5.05573 18.9584 9.9974C18.9584 14.9391 14.9417 18.9557 10 18.9557ZM10 2.28906C5.75002 2.28906 2.29169 5.7474 2.29169 9.9974C2.29169 14.2474 5.75002 17.7057 10 17.7057C14.25 17.7057 17.7084 14.2474 17.7084 9.9974C17.7084 5.7474 14.25 2.28906 10 2.28906Z" fill="#B95962"/>
<path d="M13.3334 10.625H6.66669C6.32502 10.625 6.04169 10.3417 6.04169 10C6.04169 9.65833 6.32502 9.375 6.66669 9.375H13.3334C13.675 9.375 13.9584 9.65833 13.9584 10C13.9584 10.3417 13.675 10.625 13.3334 10.625Z" fill="#B95962"/>
<path d="M10 13.9557C9.65833 13.9557 9.375 13.6724 9.375 13.3307V6.66406C9.375 6.3224 9.65833 6.03906 10 6.03906C10.3417 6.03906 10.625 6.3224 10.625 6.66406V13.3307C10.625 13.6724 10.3417 13.9557 10 13.9557Z" fill="#B95962"/>
</svg>
