<svg width="25" height="24" viewBox="0 0 25 24" fill="none" xmlns="http://www.w3.org/2000/svg">
<path d="M9.40961 20.6695C9.21961 20.6695 9.02961 20.5995 8.87961 20.4495C8.58961 20.1595 8.58961 19.6795 8.87961 19.3895L15.3996 12.8695C15.8796 12.3895 15.8796 11.6095 15.3996 11.1295L8.87961 4.60953C8.58961 4.31953 8.58961 3.83953 8.87961 3.54953C9.16961 3.25953 9.64961 3.25953 9.93961 3.54953L16.4596 10.0695C16.9696 10.5795 17.2596 11.2695 17.2596 11.9995C17.2596 12.7295 16.9796 13.4195 16.4596 13.9295L9.93961 20.4495C9.78961 20.5895 9.59961 20.6695 9.40961 20.6695Z" fill="#A72F3B"/>
</svg>
