<svg width="57" height="97" viewBox="0 0 57 97" fill="none" xmlns="http://www.w3.org/2000/svg">
<path d="M0 2C0 0.895431 0.895431 0 2 0H55C56.1046 0 57 0.89543 57 2V90.7961C57 92.7382 54.4744 93.5432 53.2912 92.0032C33.4571 66.189 21.4589 66.2119 3.782 91.3747C2.63616 93.0058 0 92.217 0 90.2237V2Z" fill="#B95962"/>
<path d="M21.3906 32H12.0706V30.7L16.9906 25.24C17.724 24.4133 18.224 23.74 18.4906 23.22C18.7706 22.7 18.9106 22.16 18.9106 21.6C18.9106 20.8667 18.684 20.2667 18.2306 19.8C17.7906 19.32 17.1973 19.08 16.4506 19.08C15.8506 19.08 15.3373 19.1933 14.9106 19.42C14.484 19.6467 14.1573 19.98 13.9306 20.42C13.7173 20.8467 13.6106 21.3667 13.6106 21.98H11.7906C11.7906 21.1133 11.984 20.3467 12.3706 19.68C12.7573 19.0133 13.2973 18.5 13.9906 18.14C14.6973 17.7667 15.5173 17.58 16.4506 17.58C17.7706 17.58 18.8106 17.9267 19.5706 18.62C20.344 19.3133 20.7306 20.24 20.7306 21.4C20.7306 21.8667 20.6306 22.3667 20.4306 22.9C20.2306 23.42 19.9306 23.9733 19.5306 24.56C19.144 25.1333 18.6506 25.7467 18.0506 26.4L14.2506 30.52H21.3906V32ZM32.2211 25.94C32.2211 28.06 31.8544 29.6333 31.1211 30.66C30.3878 31.6867 29.2611 32.2 27.7411 32.2C26.2344 32.2 25.1144 31.7 24.3811 30.7C23.6478 29.7 23.2678 28.1933 23.2411 26.18V23.76C23.2411 21.6667 23.6078 20.1133 24.3411 19.1C25.0744 18.0867 26.2011 17.58 27.7211 17.58C29.2411 17.58 30.3611 18.0733 31.0811 19.06C31.8144 20.0333 32.1944 21.5467 32.2211 23.6V25.94ZM30.4211 23.46C30.4211 21.94 30.2011 20.8333 29.7611 20.14C29.3344 19.4333 28.6544 19.08 27.7211 19.08C26.8011 19.08 26.1278 19.4267 25.7011 20.12C25.2744 20.8 25.0544 21.8667 25.0411 23.32V26.22C25.0411 27.74 25.2611 28.8733 25.7011 29.62C26.1544 30.3533 26.8344 30.72 27.7411 30.72C28.6344 30.72 29.2944 30.3733 29.7211 29.68C30.1611 28.9867 30.3944 27.9 30.4211 26.42V23.46ZM34.3716 20.52C34.3716 19.96 34.4982 19.46 34.7516 19.02C35.0049 18.5667 35.3516 18.2133 35.7916 17.96C36.2316 17.7067 36.7316 17.58 37.2916 17.58C38.1582 17.58 38.8582 17.86 39.3916 18.42C39.9249 18.9667 40.1916 19.6867 40.1916 20.58V21.26C40.1916 22.1267 39.9182 22.8333 39.3716 23.38C38.8382 23.9133 38.1516 24.18 37.3116 24.18C36.4449 24.18 35.7382 23.9067 35.1916 23.36C34.6449 22.8133 34.3716 22.0933 34.3716 21.2V20.52ZM35.7316 21.26C35.7316 21.78 35.8716 22.2067 36.1516 22.54C36.4449 22.86 36.8316 23.02 37.3116 23.02C37.7649 23.02 38.1316 22.86 38.4116 22.54C38.7049 22.2067 38.8516 21.7667 38.8516 21.22V20.52C38.8516 20 38.7116 19.58 38.4316 19.26C38.1516 18.9267 37.7716 18.76 37.2916 18.76C36.8116 18.76 36.4316 18.9267 36.1516 19.26C35.8716 19.5933 35.7316 20.0267 35.7316 20.56V21.26ZM41.2916 28.52C41.2916 27.6667 41.5649 26.9667 42.1116 26.42C42.6582 25.86 43.3582 25.58 44.2116 25.58C45.0649 25.58 45.7649 25.8533 46.3116 26.4C46.8582 26.9467 47.1316 27.6733 47.1316 28.58V29.28C47.1316 30.1333 46.8582 30.8333 46.3116 31.38C45.7649 31.9267 45.0716 32.2 44.2316 32.2C43.3649 32.2 42.6582 31.9267 42.1116 31.38C41.5649 30.8333 41.2916 30.1133 41.2916 29.22V28.52ZM42.6516 29.28C42.6516 29.8 42.7916 30.2267 43.0716 30.56C43.3649 30.88 43.7516 31.04 44.2316 31.04C44.6982 31.04 45.0716 30.88 45.3516 30.56C45.6316 30.2267 45.7716 29.7867 45.7716 29.24V28.52C45.7716 28 45.6316 27.58 45.3516 27.26C45.0716 26.9267 44.6916 26.76 44.2116 26.76C43.7449 26.76 43.3649 26.9267 43.0716 27.26C42.7916 27.58 42.6516 28.0133 42.6516 28.56V29.28ZM37.7116 30.92L36.6916 30.28L43.6316 19.16L44.6516 19.82L37.7116 30.92Z" fill="white"/>
<path d="M18.0011 61.2C16.8944 61.2 15.9078 60.9333 15.0411 60.4C14.1878 59.8533 13.5144 59.0733 13.0211 58.06C12.5411 57.0467 12.2944 55.8533 12.2811 54.48V53.46C12.2811 52.0467 12.5211 50.8267 13.0011 49.8C13.4944 48.76 14.1678 47.9667 15.0211 47.42C15.8878 46.86 16.8744 46.58 17.9811 46.58C19.1278 46.58 20.1278 46.86 20.9811 47.42C21.8478 47.9667 22.5144 48.76 22.9811 49.8C23.4611 50.8267 23.7011 52.0467 23.7011 53.46V54.34C23.7011 55.7533 23.4611 56.98 22.9811 58.02C22.5144 59.0467 21.8478 59.8333 20.9811 60.38C20.1278 60.9267 19.1344 61.2 18.0011 61.2ZM18.0011 59.6C18.8011 59.6 19.4878 59.4067 20.0611 59.02C20.6344 58.62 21.0744 58.04 21.3811 57.28C21.6878 56.5067 21.8411 55.5733 21.8411 54.48V53.44C21.8411 52.32 21.6878 51.3733 21.3811 50.6C21.0878 49.8133 20.6478 49.22 20.0611 48.82C19.4878 48.4067 18.7944 48.2 17.9811 48.2C17.1944 48.2 16.5144 48.4067 15.9411 48.82C15.3678 49.22 14.9211 49.8067 14.6011 50.58C14.2944 51.34 14.1411 52.2467 14.1411 53.3V54.34C14.1411 55.42 14.2944 56.36 14.6011 57.16C14.9078 57.9467 15.3478 58.5533 15.9211 58.98C16.5078 59.3933 17.2011 59.6 18.0011 59.6ZM26.5506 46.78H35.3506V48.32H28.4106V53.18H34.3906V54.72H28.4106V61H26.5506V46.78ZM37.6053 46.78H46.4053V48.32H39.4653V53.18H45.4453V54.72H39.4653V61H37.6053V46.78Z" fill="white"/>
</svg>
