<svg width="22" height="22" viewBox="0 0 22 22" fill="none" xmlns="http://www.w3.org/2000/svg">
<path d="M9.79955 21.0984C9.50955 21.0984 9.21955 21.0484 8.94955 20.9484C7.69955 20.5384 6.89955 19.1584 7.17955 17.8784L7.66955 14.7284C7.67955 14.6584 7.67955 14.5584 7.60955 14.4784C7.55955 14.4284 7.48955 14.3984 7.40955 14.3984H3.40955C2.42955 14.3984 1.57955 13.9884 1.07955 13.2784C0.58955 12.5884 0.489551 11.6784 0.809551 10.7984L3.19955 3.51844C3.56955 2.06844 5.11955 0.898437 6.71955 0.898437L10.5196 0.898437C11.0796 0.898437 12.2996 1.06844 12.9496 1.71844L15.9796 4.05844L15.0596 5.24844L11.9596 2.84844C11.7096 2.59844 11.0796 2.39844 10.5196 2.39844H6.71955C5.81955 2.39844 4.84955 3.11844 4.64955 3.92844L2.22955 11.2784C2.06955 11.7184 2.09955 12.1184 2.30955 12.4084C2.52955 12.7184 2.92955 12.8984 3.41955 12.8984H7.41955C7.93955 12.8984 8.41955 13.1184 8.74955 13.4984C9.08955 13.8884 9.23955 14.4084 9.15955 14.9484L8.65955 18.1584C8.53955 18.7184 8.91955 19.3484 9.45955 19.5284C9.93955 19.7084 10.5796 19.4484 10.7996 19.1284L14.8996 13.0284L16.1396 13.8684L12.0396 19.9684C11.5696 20.6684 10.6796 21.0984 9.79955 21.0984Z" fill="#C30000"/>
<path d="M18.6191 17.1H17.6191C15.7691 17.1 14.8691 16.23 14.8691 14.45L14.8691 4.65C14.8691 2.87 15.7691 2 17.6191 2L18.6191 2C20.4691 2 21.3691 2.87 21.3691 4.65V14.45C21.3691 16.23 20.4691 17.1 18.6191 17.1ZM17.6191 3.5C16.5291 3.5 16.3691 3.76 16.3691 4.65V14.45C16.3691 15.34 16.5291 15.6 17.6191 15.6H18.6191C19.7091 15.6 19.8691 15.34 19.8691 14.45V4.65C19.8691 3.76 19.7091 3.5 18.6191 3.5L17.6191 3.5Z" fill="#C30000"/>
</svg>
