<svg width="40" height="40" viewBox="0 0 40 40" fill="none" xmlns="http://www.w3.org/2000/svg">
<path d="M20 37.9182C18.8333 37.9182 17.65 37.4682 16.7667 36.5849L13.9167 33.7682C13.2167 33.0682 12.25 32.6849 11.2667 32.6849H10C6.55 32.6849 3.75 29.9016 3.75 26.4849V8.30151C3.75 4.88485 6.55 2.10156 10 2.10156H30C33.45 2.10156 36.25 4.88485 36.25 8.30151V26.4849C36.25 29.9016 33.45 32.6849 30 32.6849H28.7333C27.75 32.6849 26.7833 33.0849 26.0833 33.7682L23.2333 36.5849C22.35 37.4682 21.1667 37.9182 20 37.9182ZM10 4.58488C7.93333 4.58488 6.25 6.2515 6.25 8.28483V26.4682C6.25 28.5182 7.93333 30.1682 10 30.1682H11.2667C12.9167 30.1682 14.5167 30.8349 15.6833 31.9849L18.5333 34.8016C19.35 35.6016 20.6667 35.6016 21.4834 34.8016L24.3333 31.9849C25.5 30.8349 27.1 30.1682 28.75 30.1682H30C32.0667 30.1682 33.75 28.5016 33.75 26.4682V8.28483C33.75 6.23483 32.0667 4.58488 30 4.58488H10Z" fill="#242424"/>
<path d="M19.9989 26.2474C19.6989 26.2474 19.399 26.1974 19.1323 26.114C16.9323 25.364 11.2656 22.0474 11.2656 15.8474C11.2656 12.8474 13.699 10.4141 16.6823 10.4141C17.899 10.4141 19.0656 10.8307 20.0156 11.5641C20.9656 10.8307 22.1323 10.4141 23.349 10.4141C26.3323 10.4141 28.7656 12.8474 28.7656 15.8474C28.7656 22.0474 23.0823 25.364 20.899 26.114C20.599 26.1974 20.2989 26.2474 19.9989 26.2474ZM16.6656 12.9141C15.0656 12.9141 13.7489 14.2307 13.7489 15.8474C13.7489 20.5641 18.3323 23.1974 19.9323 23.7474C19.9489 23.7474 20.0156 23.7474 20.0656 23.7474C21.6823 23.1807 26.2323 20.5474 26.2323 15.8641C26.2323 14.2474 24.9323 12.9307 23.3156 12.9307C22.3989 12.9307 21.5489 13.3641 20.9823 14.0974C20.5156 14.7308 19.449 14.7308 18.9823 14.0974C18.449 13.3474 17.5989 12.9141 16.6656 12.9141Z" fill="#242424"/>
</svg>
