<svg width="24" height="42" viewBox="0 0 24 42" fill="none" xmlns="http://www.w3.org/2000/svg">
<path d="M20.0402 6.81969L14.2802 2.78969C12.7102 1.68969 10.3002 1.74969 8.79023 2.91969L3.78023 6.82969C2.78023 7.60969 1.99023 9.20969 1.99023 10.4697V17.3697C1.99023 19.9197 4.06023 21.9997 6.61023 21.9997H17.3902C19.9402 21.9997 22.0102 19.9297 22.0102 17.3797V10.5997C22.0102 9.24969 21.1402 7.58969 20.0402 6.81969ZM12.7502 17.9997C12.7502 18.4097 12.4102 18.7497 12.0002 18.7497C11.5902 18.7497 11.2502 18.4097 11.2502 17.9997V14.9997C11.2502 14.5897 11.5902 14.2497 12.0002 14.2497C12.4102 14.2497 12.7502 14.5897 12.7502 14.9997V17.9997Z" fill="white"/>
<path d="M8.21481 40.06C7.78281 40.06 7.39881 40 7.06281 39.88C6.73481 39.752 6.47081 39.54 6.27081 39.244C6.07881 38.94 5.97081 38.52 5.94681 37.984L5.75481 33.808H6.72681L6.91881 37.768C6.94281 38.144 7.01081 38.428 7.12281 38.62C7.23481 38.804 7.39081 38.928 7.59081 38.992C7.79881 39.048 8.04681 39.076 8.33481 39.076C8.50281 39.076 8.62281 39.124 8.69481 39.22C8.77481 39.308 8.81481 39.416 8.81481 39.544C8.81481 39.672 8.75881 39.792 8.64681 39.904C8.53481 40.008 8.39081 40.06 8.21481 40.06ZM6.40281 38.74C5.94681 38.884 5.50281 38.956 5.07081 38.956C4.63881 38.956 4.24681 38.892 3.89481 38.764C3.54281 38.636 3.26281 38.452 3.05481 38.212C2.84681 37.964 2.74281 37.668 2.74281 37.324C2.74281 36.988 2.82681 36.672 2.99481 36.376C3.17081 36.08 3.40681 35.816 3.70281 35.584C4.00681 35.352 4.35481 35.16 4.74681 35.008C5.14681 34.848 5.57081 34.74 6.01881 34.684L6.18681 35.692C5.78681 35.708 5.43081 35.764 5.11881 35.86C4.81481 35.948 4.55481 36.064 4.33881 36.208C4.13081 36.352 3.97081 36.508 3.85881 36.676C3.74681 36.844 3.69081 37.008 3.69081 37.168C3.69081 37.344 3.75481 37.488 3.88281 37.6C4.01081 37.712 4.17481 37.8 4.37481 37.864C4.57481 37.92 4.79481 37.956 5.03481 37.972C5.27481 37.98 5.50681 37.972 5.73081 37.948C5.95481 37.916 6.14681 37.872 6.30681 37.816L6.40281 38.74ZM8.21875 40.06L8.33875 39.076C8.73075 39.076 9.04275 39.052 9.27475 39.004C9.50675 38.956 9.67475 38.86 9.77875 38.716C9.88275 38.564 9.93475 38.34 9.93475 38.044C9.93475 37.844 9.90275 37.608 9.83875 37.336C9.77475 37.056 9.69075 36.76 9.58675 36.448C9.48275 36.136 9.37075 35.828 9.25075 35.524L10.2228 35.164C10.3268 35.42 10.4228 35.712 10.5108 36.04C10.6068 36.368 10.6868 36.692 10.7508 37.012C10.8148 37.332 10.8468 37.612 10.8468 37.852C10.8468 38.172 10.8108 38.456 10.7388 38.704C10.6748 38.944 10.5748 39.152 10.4388 39.328C10.3028 39.496 10.1268 39.636 9.91075 39.748C9.70275 39.852 9.45875 39.932 9.17875 39.988C8.89875 40.036 8.57875 40.06 8.21875 40.06ZM9.75475 33.916C9.58675 33.916 9.44275 33.86 9.32275 33.748C9.21075 33.628 9.15475 33.488 9.15475 33.328C9.15475 33.168 9.21075 33.028 9.32275 32.908C9.44275 32.788 9.58675 32.728 9.75475 32.728C9.91475 32.728 10.0508 32.788 10.1628 32.908C10.2828 33.028 10.3428 33.168 10.3428 33.328C10.3428 33.488 10.2828 33.628 10.1628 33.748C10.0508 33.86 9.91475 33.916 9.75475 33.916ZM14.9334 40.06C14.2934 40.06 13.8014 39.988 13.4574 39.844C13.1214 39.7 12.8894 39.476 12.7614 39.172C12.6334 38.868 12.5614 38.476 12.5454 37.996L12.3054 31.432H13.2894L13.5294 37.612C13.5454 38.004 13.5814 38.308 13.6374 38.524C13.7014 38.732 13.8374 38.876 14.0454 38.956C14.2614 39.036 14.5974 39.076 15.0534 39.076C15.2214 39.076 15.3414 39.124 15.4134 39.22C15.4934 39.308 15.5334 39.416 15.5334 39.544C15.5334 39.672 15.4774 39.792 15.3654 39.904C15.2534 40.008 15.1094 40.06 14.9334 40.06ZM14.9336 40.06L15.0416 39.076C15.4576 39.076 15.8656 39.044 16.2656 38.98C16.6656 38.916 17.0576 38.824 17.4416 38.704C17.8256 38.584 18.1936 38.44 18.5456 38.272C18.9056 38.096 19.2456 37.896 19.5656 37.672C19.3576 37.488 19.1176 37.328 18.8456 37.192C18.5736 37.056 18.2736 36.952 17.9456 36.88C17.6256 36.8 17.2856 36.76 16.9256 36.76C16.7976 36.76 16.6776 36.764 16.5656 36.772C16.4536 36.78 16.3416 36.796 16.2296 36.82C16.1176 36.836 15.9896 36.86 15.8456 36.892L15.6536 35.98C15.8696 35.916 16.0856 35.868 16.3016 35.836C16.5176 35.796 16.7256 35.776 16.9256 35.776C17.3416 35.776 17.7176 35.828 18.0536 35.932C18.3896 36.028 18.6936 36.148 18.9656 36.292C19.2456 36.436 19.5056 36.58 19.7456 36.724C19.9936 36.868 20.2336 36.992 20.4656 37.096C20.6976 37.192 20.9376 37.24 21.1856 37.24H21.4376L21.5216 38.104C21.1776 38.104 20.8616 38.152 20.5736 38.248C20.2856 38.344 20.0016 38.468 19.7216 38.62C19.4496 38.764 19.1616 38.92 18.8576 39.088C18.5536 39.248 18.2176 39.404 17.8496 39.556C17.4816 39.7 17.0576 39.82 16.5776 39.916C16.1056 40.012 15.5576 40.06 14.9336 40.06ZM16.9376 34.54C16.7696 34.54 16.6256 34.484 16.5056 34.372C16.3936 34.252 16.3376 34.112 16.3376 33.952C16.3376 33.792 16.3936 33.652 16.5056 33.532C16.6256 33.412 16.7696 33.352 16.9376 33.352C17.0976 33.352 17.2336 33.412 17.3456 33.532C17.4656 33.652 17.5256 33.792 17.5256 33.952C17.5256 34.112 17.4656 34.252 17.3456 34.372C17.2336 34.484 17.0976 34.54 16.9376 34.54Z" fill="white"/>
</svg>
