<svg width="24" height="24" viewBox="0 0 24 24" fill="none" xmlns="http://www.w3.org/2000/svg">
<path d="M12 22.75C6.07 22.75 1.25 17.93 1.25 12C1.25 6.07 6.07 1.25 12 1.25C17.93 1.25 22.75 6.07 22.75 12C22.75 17.93 17.93 22.75 12 22.75ZM12 2.75C6.9 2.75 2.75 6.9 2.75 12C2.75 17.1 6.9 21.25 12 21.25C17.1 21.25 21.25 17.1 21.25 12C21.25 6.9 17.1 2.75 12 2.75Z" fill="#F4B740"/>
<path d="M12 13.75C11.59 13.75 11.25 13.41 11.25 13V8C11.25 7.59 11.59 7.25 12 7.25C12.41 7.25 12.75 7.59 12.75 8V13C12.75 13.41 12.41 13.75 12 13.75Z" fill="#F4B740"/>
<path d="M12 17.0028C11.87 17.0028 11.74 16.9728 11.62 16.9228C11.5 16.8728 11.39 16.8028 11.29 16.7128C11.2 16.6128 11.13 16.5128 11.08 16.3828C11.03 16.2628 11 16.1328 11 16.0028C11 15.8728 11.03 15.7428 11.08 15.6228C11.13 15.5028 11.2 15.3928 11.29 15.2928C11.39 15.2028 11.5 15.1328 11.62 15.0828C11.86 14.9828 12.14 14.9828 12.38 15.0828C12.5 15.1328 12.61 15.2028 12.71 15.2928C12.8 15.3928 12.87 15.5028 12.92 15.6228C12.97 15.7428 13 15.8728 13 16.0028C13 16.1328 12.97 16.2628 12.92 16.3828C12.87 16.5128 12.8 16.6128 12.71 16.7128C12.61 16.8028 12.5 16.8728 12.38 16.9228C12.26 16.9728 12.13 17.0028 12 17.0028Z" fill="#F4B740"/>
</svg>
