<svg width="145" height="182" viewBox="0 0 145 182" fill="none" xmlns="http://www.w3.org/2000/svg">
<path d="M51.3947 50.7587C50.7969 50.7587 50.3008 50.2974 50.2881 49.7147C50.2627 47.845 49.9956 4.00548 70.9441 0.254046C75.1669 -0.498668 79.0335 0.424014 82.4423 2.98567C96.3316 13.463 98.2395 48.1728 98.3158 49.6418C98.3413 50.2246 97.8707 50.7102 97.2729 50.7466C96.6751 50.7587 96.1536 50.3217 96.1154 49.7511C96.1027 49.399 94.1948 14.5313 81.0813 4.63679C78.1559 2.42721 74.9761 1.67449 71.3638 2.31794C52.2214 5.74158 52.5013 49.2412 52.514 49.6782C52.514 50.261 52.0306 50.7345 51.4201 50.7466L51.3947 50.7587Z" fill="#DCACB1"/>
<path d="M144.999 181.999H13.9023L31.9636 42.7344H126.938L144.999 181.999Z" fill="#DCACB1"/>
<path d="M131.097 181.999H0L18.0613 42.7344H113.036L131.097 181.999Z" fill="#E5C1C4"/>
<path d="M65.6316 143.403C65.6316 143.403 31.4551 122.569 35.2836 104.079C38.2726 89.6322 60.0097 90.6398 65.5426 105.852C71.0118 90.6155 92.7362 89.5229 95.8016 103.958C99.7191 122.436 65.6316 143.403 65.6316 143.403Z" fill="#DCACB1"/>
<path d="M115.96 171.388C115.985 171.643 115.896 171.898 115.718 172.08C115.54 172.262 115.286 172.371 115.019 172.371H15.2619C14.9948 172.371 14.7404 172.262 14.5623 172.08C14.3843 171.898 14.2952 171.643 14.3207 171.388L16.5974 149.474L16.6992 148.539L22.3974 93.5912L22.5118 92.4378L27.6758 42.7344H29.5583L24.5342 91.2116L24.407 92.3892L23.682 99.3336L23.593 100.244L20.2097 132.781L20.0952 133.837L18.5307 148.964L18.429 149.899L16.2794 170.587H113.988L106.688 99.9042L106.586 98.8966L103.113 65.2794L103.024 64.3567L102.732 61.5765L102.643 60.6417L100.786 42.7344H102.668L115.973 171.388H115.96Z" fill="#D6D6D6"/>
<path d="M49.1594 49.7106C49.1594 52.0657 47.1498 53.9837 44.6822 53.9837C42.2147 53.9837 40.2051 52.0657 40.2051 49.7106C40.2051 47.3555 42.2147 45.4375 44.6822 45.4375C47.1498 45.4375 49.1594 47.3555 49.1594 49.7106Z" fill="#DCACB1"/>
<path d="M94.9738 49.7106C94.9738 52.0657 92.9642 53.9837 90.4967 53.9837C88.0292 53.9837 86.0195 52.0657 86.0195 49.7106C86.0195 47.3555 88.0292 45.4375 90.4967 45.4375C92.9642 45.4375 94.9738 47.3555 94.9738 49.7106Z" fill="#DCACB1"/>
<path d="M44.6818 50.7587C44.084 50.7587 43.5879 50.2974 43.5752 49.7147C43.5498 47.845 43.2827 4.00548 64.2312 0.254046C68.454 -0.498668 72.3206 0.424014 75.7294 2.98567C89.6187 13.463 91.5266 48.1728 91.6029 49.6418C91.6284 50.2246 91.1578 50.7102 90.56 50.7466C89.9749 50.7587 89.4407 50.3217 89.4025 49.7511C89.3898 49.399 87.4819 14.5313 74.3684 4.63679C71.443 2.42721 68.2632 1.67449 64.6509 2.31794C45.5085 5.74158 45.7884 49.2412 45.8011 49.6782C45.8011 50.261 45.3178 50.7345 44.7072 50.7466L44.6818 50.7587Z" fill="#DCACB1"/>
</svg>
