<svg width="59" height="16" viewBox="0 0 59 16" fill="none" xmlns="http://www.w3.org/2000/svg">
<path d="M53.1861 4.53963C53.9355 5.10648 54.4687 5.64451 54.7858 6.15372C55.1124 6.65332 55.2757 7.19615 55.2757 7.78222C55.2757 8.45475 55.1124 9.09847 54.7858 9.71336C54.4591 10.3283 53.9739 10.7894 53.3302 11.0969C52.9555 11.2698 52.5712 11.3851 52.1773 11.4427C51.793 11.5004 51.3606 11.5292 50.8802 11.5292C50.8322 11.5292 50.7842 11.4187 50.7361 11.1977C50.6881 10.9672 50.6641 10.6453 50.6641 10.2322C50.6641 9.57885 50.7217 9.12729 50.837 8.87749C50.9427 8.62769 51.0532 8.50279 51.1685 8.50279C51.7641 8.50279 52.2349 8.45475 52.5808 8.35868C52.9363 8.2626 53.114 8.14251 53.114 7.99839C53.114 7.81584 52.9315 7.52761 52.5664 7.1337C52.2013 6.73978 51.5672 6.23538 50.6641 5.62049L51.1685 3.02642L58.158 0L58.5904 2.30584L53.1861 4.53963Z" fill="#A72F3B"/>
<path d="M50.8779 11.5292C49.821 11.5292 48.9899 11.2458 48.3847 10.6789C47.7794 10.1025 47.4575 9.20896 47.4191 7.99839L47.1309 0.216172L49.5808 0C49.5712 0.922337 49.5568 2.14251 49.5376 3.66052C49.528 5.16893 49.5184 6.08646 49.5088 6.41312C49.5088 7.15292 49.6337 7.68614 49.8835 8.0128C50.1429 8.33946 50.5704 8.50279 51.1661 8.50279L50.8779 11.5292Z" fill="black"/>
<path d="M45.4678 4.61133C45.66 5.9564 45.7561 7.06129 45.7561 7.92598C45.7561 9.04047 45.5207 9.91957 45.0499 10.5633C44.5887 11.207 43.9594 11.5289 43.162 11.5289C42.5375 11.5289 42.0139 11.4328 41.5911 11.2406C41.1684 11.0389 40.8754 10.7843 40.712 10.4768C40.5391 10.8035 40.2701 11.0629 39.905 11.255C39.5399 11.4376 39.1364 11.5289 38.6944 11.5289C38.1756 11.5289 37.7433 11.4328 37.3974 11.2406C37.0515 11.0389 36.8257 10.765 36.72 10.4192C36.4895 10.8131 36.1484 11.0965 35.6968 11.2694C35.2549 11.4424 34.6448 11.5289 33.8666 11.5289C33.8185 11.5289 33.7705 11.4184 33.7224 11.1974C33.6744 10.9668 33.6504 10.6449 33.6504 10.2318C33.6504 9.5785 33.708 9.12694 33.8233 8.87714C33.929 8.62734 34.0395 8.50244 34.1548 8.50244C34.7889 8.50244 35.2597 8.41597 35.5671 8.24303C35.8746 8.07009 36.0283 7.77225 36.0283 7.34952V6.34071L37.9018 6.1966V7.2054C37.9018 8.07009 38.2381 8.50244 38.9106 8.50244C39.2373 8.50244 39.4871 8.40156 39.66 8.1998C39.8329 7.99803 39.9194 7.71461 39.9194 7.34952V6.48483L41.7929 6.34071V7.2054C41.7929 7.63775 41.913 7.96441 42.1532 8.18538C42.403 8.39675 42.7633 8.50244 43.234 8.50244C43.4742 8.50244 43.5943 8.40636 43.5943 8.21421C43.5943 7.98362 43.5559 7.60892 43.479 7.09011C43.4022 6.56169 43.2965 5.9516 43.162 5.25985L45.4678 4.61133Z" fill="black"/>
<path d="M33.8649 11.5291C33.2116 11.5291 32.6592 11.4186 32.2076 11.1976C31.7656 10.967 31.4726 10.6548 31.3285 10.2609C31.1075 10.6548 30.728 10.967 30.19 11.1976C29.652 11.4186 28.9794 11.5291 28.1724 11.5291H27.8841C27.8361 11.5291 27.7881 11.4186 27.74 11.1976C27.692 10.967 27.668 10.6452 27.668 10.2321C27.668 9.57874 27.7256 9.12718 27.8409 8.87738C27.9466 8.62758 28.0571 8.50268 28.1724 8.50268H28.4606C29.3061 8.50268 29.8873 8.36817 30.2044 8.09916C30.5311 7.83014 30.6944 7.43623 30.6944 6.91741V5.90861L32.5679 5.76449V6.84536C32.5679 7.44103 32.6928 7.86857 32.9426 8.12798C33.202 8.37778 33.6055 8.50268 34.1532 8.50268L33.8649 11.5291ZM30.5503 2.66602H30.6944H33.0723V4.61157H30.6944H30.5503H28.1724V2.66602H30.5503Z" fill="black"/>
<path d="M27.2684 11.5294C26.9801 12.7112 26.298 13.5999 25.2219 14.1955C24.5686 14.551 23.7664 14.8393 22.8152 15.0602C21.864 15.2908 20.7207 15.459 19.3853 15.5646C19.2604 14.9401 19.0922 14.0514 18.8809 12.8985C21.1675 12.7448 22.8248 12.5286 23.8528 12.25C24.8905 11.9714 25.4621 11.6351 25.5678 11.2412C24.8568 11.3373 24.117 11.3853 23.3484 11.3853C22.599 11.3853 22.0274 11.1835 21.6335 10.78C21.2395 10.3765 21.0426 9.80964 21.0426 9.07946C21.0426 8.30124 21.1771 7.56145 21.4461 6.86009C21.7247 6.14912 22.1042 5.57266 22.5846 5.1307C23.065 4.68875 23.6078 4.46777 24.2131 4.46777C25.0394 4.46777 25.7359 4.81845 26.3028 5.51981C26.8696 6.21157 27.2299 7.20596 27.3837 8.503H28.1763L27.8881 11.5294H27.2684ZM22.844 7.99859C22.844 8.19075 22.9113 8.33486 23.0458 8.43094C23.1899 8.52702 23.4349 8.57505 23.7808 8.57505L25.3372 8.54623C25.0778 7.5086 24.583 6.98979 23.8528 6.98979C23.5838 6.98979 23.3484 7.10028 23.1467 7.32125C22.9449 7.54223 22.844 7.76801 22.844 7.99859Z" fill="black"/>
<path d="M17.2197 4.25098C17.7577 4.25098 18.1901 4.3999 18.5167 4.69773C18.8434 4.98596 19.0836 5.43752 19.2373 6.05242C19.3142 6.35025 19.3814 6.72015 19.4391 7.1621C19.4967 7.59445 19.5255 7.96915 19.5255 8.2862C19.5255 8.87227 19.415 9.42471 19.1941 9.94352C18.9731 10.4623 18.6801 10.8803 18.315 11.1973C17.9595 11.5144 17.5944 11.6729 17.2197 11.6729C16.5952 11.6729 15.9707 11.5288 15.3462 11.2406C14.7217 10.9523 14.2893 10.6305 14.0492 10.275C13.7033 10.7362 13.3334 11.0628 12.9395 11.255C12.5455 11.4375 12.1228 11.5288 11.6713 11.5288C11.6232 11.5288 11.5752 11.4183 11.5271 11.1973C11.4791 10.9667 11.4551 10.6449 11.4551 10.2318C11.4551 9.57843 11.5127 9.12687 11.628 8.87707C11.7337 8.62727 11.8442 8.50237 11.9595 8.50237C12.2573 8.50237 12.4975 8.46875 12.6801 8.40149C12.8722 8.32463 13.0451 8.19493 13.1989 8.01238C13.3622 7.82023 13.5496 7.52719 13.7609 7.13328C14.1837 6.36467 14.5584 5.7786 14.885 5.37507C15.2117 4.96194 15.5528 4.67371 15.9082 4.51038C16.2733 4.33745 16.7105 4.25098 17.2197 4.25098ZM15.303 7.82503C15.4086 8.00758 15.6969 8.19012 16.1676 8.37267C16.6384 8.55522 17.0612 8.64649 17.4359 8.64649C17.5704 8.64649 17.6376 8.57443 17.6376 8.43032C17.6376 8.26699 17.6136 8.06522 17.5656 7.82503C17.5271 7.57523 17.4839 7.36867 17.4359 7.20534C17.3302 6.86907 17.138 6.70093 16.8594 6.70093C16.6096 6.70093 16.403 6.72976 16.2397 6.7874C16.0764 6.84505 15.9226 6.95554 15.7785 7.11887C15.644 7.27259 15.4855 7.50798 15.303 7.82503Z" fill="black"/>
<path d="M11.0969 11.5292C11.0969 12.0288 10.9768 12.5043 10.7366 12.9559C10.506 13.4075 10.1697 13.8206 9.72777 14.1953C9.21857 14.6372 8.48358 14.9975 7.52281 15.2762C6.56204 15.5644 5.56765 15.7085 4.53963 15.7085C3.02161 15.7085 1.8831 15.3962 1.1241 14.7717C0.374699 14.1569 0 13.2201 0 11.9615C0 10.8086 0.28823 9.29537 0.864691 7.42188L2.66613 7.92628C2.48358 8.61803 2.35388 9.18008 2.27702 9.61243C2.20016 10.0352 2.16173 10.4099 2.16173 10.7365C2.16173 11.3706 2.38751 11.851 2.83907 12.1777C3.30024 12.5139 4.03522 12.6821 5.04403 12.6821C5.78382 12.6821 6.45636 12.6244 7.06164 12.5091C7.66693 12.4035 8.14251 12.2689 8.48838 12.1056C8.83426 11.9423 9.0072 11.7982 9.0072 11.6733C9.0072 11.5964 8.91592 11.5292 8.73338 11.4715C8.55083 11.4043 8.21456 11.3322 7.72457 11.2553C7.23458 11.1785 6.5092 11.0776 5.54843 10.9527L6.05284 8.43068C7.10968 8.47872 8.767 8.50274 11.0248 8.50274H11.9616L11.6733 11.5292H11.0969Z" fill="black"/>
</svg>
