<svg width="50" height="50" viewBox="0 0 50 50" fill="none" xmlns="http://www.w3.org/2000/svg">
<g clip-path="url(#clip0_9303_144)">
<rect width="50" height="50" rx="25" fill="black"/>
<path d="M23.1131 17.8047C27.4605 21.0312 30.5539 24.0937 32.3931 26.9922C34.2882 29.8359 35.2357 32.9258 35.2357 36.2617C35.2357 40.0898 34.2882 43.7539 32.3931 47.2539C30.4981 50.7539 27.6834 53.3789 23.9491 55.1289C21.7754 56.1133 19.546 56.7695 17.2608 57.0976C15.0314 57.4258 12.5233 57.5898 9.73648 57.5898C9.4578 57.5898 9.17913 56.9609 8.90045 55.7031C8.62177 54.3906 8.48242 52.5586 8.48242 50.207C8.48242 46.4883 8.81685 43.918 9.48568 42.4961C10.0988 41.0742 10.7397 40.3633 11.4086 40.3633C14.8642 40.3633 17.5952 40.0898 19.6017 39.543C21.664 38.9961 22.6951 38.3125 22.6951 37.4922C22.6951 36.4531 21.6361 34.8125 19.5181 32.5703C17.4002 30.3281 13.7216 27.457 8.48242 23.957L11.4086 9.1914L51.9564 -8.03516L54.4646 5.08984L23.1131 17.8047Z" fill="#242424"/>
<path d="M24.2092 21.3125C26.3618 22.9148 27.8934 24.4356 28.8041 25.875C29.7424 27.2872 30.2116 28.8216 30.2116 30.4782C30.2116 32.3793 29.7424 34.1988 28.8041 35.9369C27.8658 37.675 26.4721 38.9786 24.6231 39.8477C23.5468 40.3365 22.4429 40.6624 21.3114 40.8253C20.2075 40.9883 18.9657 41.0698 17.5858 41.0698C17.4478 41.0698 17.3098 40.7574 17.1718 40.1328C17.0338 39.481 16.9648 38.5712 16.9648 37.4035C16.9648 35.5567 17.1304 34.2803 17.4616 33.5742C17.7652 32.8681 18.0825 32.5151 18.4137 32.5151C20.1247 32.5151 21.477 32.3793 22.4705 32.1077C23.4916 31.8361 24.0022 31.4967 24.0022 31.0893C24.0022 30.5733 23.4778 29.7586 22.4291 28.6451C21.3804 27.5316 19.559 26.1058 16.9648 24.3677L18.4137 17.0352L38.4908 8.48047L39.7327 14.9983L24.2092 21.3125Z" fill="#A72F3B"/>
</g>
<defs>
<clipPath id="clip0_9303_144">
<rect width="50" height="50" rx="25" fill="white"/>
</clipPath>
</defs>
</svg>
