<svg width="88" height="88" viewBox="0 0 88 88" fill="none" xmlns="http://www.w3.org/2000/svg">
<rect width="88" height="88" rx="8" fill="url(#paint0_linear_9428_5791)"/>
<path d="M38.4195 42.404H41.5875V43.764H38.4195V47.364H36.9635V43.764H33.7955V42.404H36.9635V39.076H38.4195V42.404ZM44.0576 37.812C44.3456 38.4733 44.5696 39.2147 44.7296 40.036C44.8896 40.8467 44.991 41.652 45.0336 42.452C45.087 43.2413 45.1136 44.0627 45.1136 44.916V45.46L45.0816 48.5H43.8336L43.8656 45.46V45.076C43.8656 44.2227 43.8443 43.428 43.8016 42.692C43.759 41.9453 43.6683 41.1933 43.5296 40.436C43.391 39.6787 43.183 38.996 42.9056 38.388L44.0576 37.812ZM47.8701 37.812C48.1581 38.4733 48.3821 39.2147 48.5421 40.036C48.7021 40.8467 48.8035 41.652 48.8461 42.452C48.8995 43.2413 48.9261 44.0627 48.9261 44.916V45.46L48.8941 48.5H47.6461L47.6781 45.46V45.076C47.6781 44.2227 47.6568 43.428 47.6141 42.692C47.5715 41.9453 47.4808 41.1933 47.3421 40.436C47.2035 39.6787 46.9955 38.996 46.7181 38.388L47.8701 37.812ZM48.5421 40.02C48.6168 40.404 48.7075 40.7293 48.8141 40.996C48.9315 41.252 49.0808 41.4653 49.2621 41.636C49.4541 41.8067 49.6941 41.94 49.9821 42.036C50.2701 42.1427 50.6221 42.2227 51.0381 42.276C51.4541 42.3187 51.9341 42.3507 52.4781 42.372C53.0221 42.3827 53.7315 42.388 54.6061 42.388V43.828C52.9741 43.828 51.7101 43.7533 50.8141 43.604C49.9181 43.444 49.2088 43.124 48.6861 42.644C48.1635 42.164 47.7848 41.4333 47.5501 40.452L48.5421 40.02ZM53.6781 43.572C52.7821 43.572 52.0035 43.4387 51.3421 43.172C50.6808 42.8947 50.1688 42.516 49.8061 42.036C49.4541 41.5453 49.2781 40.996 49.2781 40.388C49.2781 39.8547 49.4061 39.3693 49.6621 38.932C49.9181 38.484 50.2648 38.132 50.7021 37.876C51.1395 37.6093 51.6141 37.476 52.1261 37.476C52.6061 37.476 53.0061 37.5453 53.3261 37.684C53.6461 37.8227 54.0461 38.0573 54.5261 38.388L54.8621 38.612L54.2381 39.636L53.9821 39.492C53.5021 39.236 53.1448 39.0653 52.9101 38.98C52.6861 38.884 52.4248 38.836 52.1261 38.836C51.6888 38.836 51.3101 38.9853 50.9901 39.284C50.6808 39.5827 50.5261 39.9507 50.5261 40.388C50.5261 40.772 50.6328 41.1133 50.8461 41.412C51.0701 41.7107 51.4168 41.9507 51.8861 42.132C52.3555 42.3027 52.9528 42.388 53.6781 42.388V43.572Z" fill="#434343"/>
<defs>
<linearGradient id="paint0_linear_9428_5791" x1="12" y1="37.4815" x2="88" y2="37.4815" gradientUnits="userSpaceOnUse">
<stop stop-color="white"/>
<stop offset="0.552739" stop-color="white" stop-opacity="0.536458"/>
<stop offset="1" stop-color="white" stop-opacity="0"/>
</linearGradient>
</defs>
</svg>
