<svg width="77" height="43" viewBox="0 0 77 43" fill="none" xmlns="http://www.w3.org/2000/svg">
<path d="M36.9299 18.3699C36.7799 18.3699 36.6399 18.3299 36.5099 18.2399C36.2999 18.0999 36.1799 17.8699 36.1799 17.6199C36.1799 17.4699 36.1699 17.3099 36.1499 17.1499C36.0599 16.4399 35.7399 15.8199 35.1999 15.2799C34.6599 14.7399 33.9899 14.3999 33.2699 14.3099C33.1499 14.2999 32.9799 14.2899 32.8199 14.2999C32.5599 14.3199 32.3199 14.2099 32.1699 13.9999C32.0199 13.7999 31.9799 13.5299 32.0599 13.2899C32.2099 12.8799 32.4299 12.5099 32.6899 12.2099L34.2299 10.2699C36.8799 6.95992 42.2499 2.97992 46.1799 1.39992C47.0199 1.07992 47.8999 1.26992 48.5099 1.86992C49.1399 2.49992 49.3299 3.39992 48.9999 4.21992C47.4199 8.15992 43.4499 13.5199 40.1399 16.1699L38.1699 17.7499C37.7999 18.0199 37.4999 18.1899 37.1999 18.3099C37.1199 18.3499 37.0199 18.3699 36.9299 18.3699ZM34.0399 12.9399C34.8799 13.1599 35.6299 13.5999 36.2599 14.2299C36.8899 14.8499 37.3099 15.5699 37.5199 16.3699L39.2099 15.0099C42.3499 12.4999 46.1199 7.40992 47.6099 3.66992C47.7599 3.29992 47.5499 3.03992 47.4499 2.94992C47.3799 2.87992 47.1199 2.65992 46.7199 2.80992C42.9999 4.30992 37.9099 8.07992 35.3899 11.2199L34.0399 12.9399Z" fill="#CBCBCB"/>
<path d="M30.5804 22.7501C29.8304 22.7501 29.1104 22.4501 28.5704 21.9101C27.9504 21.2901 27.6504 20.4301 27.7504 19.5501L28.0204 17.0901C28.2804 14.6501 30.2804 12.8401 32.7604 12.7901C32.9504 12.7801 33.2004 12.7901 33.4304 12.8101C34.5204 12.9501 35.4904 13.4401 36.2704 14.2201C37.0404 14.9901 37.5004 15.9101 37.6404 16.9401C37.6704 17.1601 37.6904 17.4001 37.6904 17.6101C37.6904 18.9301 37.1804 20.1601 36.2604 21.0901C35.4904 21.8501 34.5004 22.3201 33.3804 22.4601L30.9104 22.7301C30.8004 22.7401 30.6904 22.7501 30.5804 22.7501ZM32.9504 14.3001C32.9104 14.3001 32.8604 14.3001 32.8204 14.3001C31.3104 14.3301 29.7104 15.3601 29.5104 17.2601L29.2404 19.7201C29.1904 20.1401 29.3404 20.5501 29.6304 20.8501C29.9204 21.1401 30.3304 21.2901 30.7404 21.2401L33.2004 20.9701C33.9704 20.8701 34.6604 20.5501 35.1804 20.0301C35.8204 19.3901 36.1804 18.5301 36.1804 17.6101C36.1804 17.4601 36.1704 17.3001 36.1504 17.1401C36.0604 16.4301 35.7404 15.8101 35.2004 15.2701C34.6604 14.7301 33.9904 14.3901 33.2704 14.3001C33.1904 14.3001 33.0704 14.3001 32.9504 14.3001Z" fill="#CBCBCB"/>
<path d="M40.7398 15.22C40.3298 15.22 39.9898 14.88 39.9898 14.47C39.9898 12.27 38.1998 10.49 36.0098 10.49C35.5998 10.49 35.2598 10.15 35.2598 9.73999C35.2598 9.32999 35.5898 8.98999 35.9998 8.98999C39.0198 8.98999 41.4798 11.45 41.4798 14.47C41.4898 14.89 41.1498 15.22 40.7398 15.22Z" fill="#CBCBCB"/>
<path d="M42.1804 22.7297C41.2504 22.7297 40.3204 22.2897 39.4304 21.3997C39.1404 21.1097 39.1404 20.6297 39.4304 20.3397C39.7204 20.0497 40.2004 20.0497 40.4904 20.3397C41.6704 21.5197 42.6804 21.5197 43.8604 20.3397L46.8204 17.3797C48.0104 16.1897 48.0104 15.1797 46.8204 13.9997L46.0804 13.2697C45.7904 12.9797 45.7804 12.4997 46.0704 12.2097C46.3604 11.9097 46.8404 11.9097 47.1304 12.1997L47.8704 12.9297C49.6504 14.7097 49.6504 16.6597 47.8704 18.4397L44.9104 21.3997C44.0404 22.2797 43.1104 22.7297 42.1804 22.7297Z" fill="#CBCBCB"/>
<path d="M29.6098 11.26C29.4198 11.26 29.2198 11.19 29.0798 11.04C27.3198 9.27001 27.3198 7.31001 29.0798 5.54001L32.0398 2.58001C33.7998 0.82001 35.7798 0.82001 37.5398 2.58001L38.2798 3.32001C38.5698 3.61001 38.5698 4.09001 38.2798 4.38001C37.9898 4.67001 37.5098 4.67001 37.2198 4.38001L36.4698 3.64001C35.2898 2.46001 34.2698 2.46001 33.0998 3.64001L30.1398 6.60001C28.9598 7.79001 28.9598 8.80001 30.1398 9.99001C30.4298 10.28 30.4298 10.76 30.1398 11.05C29.9898 11.19 29.7998 11.26 29.6098 11.26Z" fill="#CBCBCB"/>
<path d="M34.0502 8.30004C33.8602 8.30004 33.6702 8.23004 33.5202 8.08004C33.2302 7.79004 33.2302 7.31004 33.5202 7.02004L37.2202 3.32004C37.5102 3.03004 37.9902 3.03004 38.2802 3.32004C38.5702 3.61004 38.5702 4.09004 38.2802 4.38004L34.5802 8.08004C34.4302 8.23004 34.2402 8.30004 34.0502 8.30004Z" fill="#CBCBCB"/>
<path d="M43.6596 16.4299C43.4696 16.4299 43.2796 16.3599 43.1296 16.2099C42.8396 15.9199 42.8396 15.4399 43.1296 15.1499L46.0896 12.1899C46.3796 11.8999 46.8596 11.8999 47.1496 12.1899C47.4396 12.4799 47.4396 12.9599 47.1496 13.2499L44.1896 16.2099C44.0496 16.3599 43.8596 16.4299 43.6596 16.4299Z" fill="#CBCBCB"/>
<path d="M1.15297 40.012C1.15297 39.82 1.16897 39.616 1.20097 39.4C1.24097 39.176 1.29697 38.94 1.36897 38.692C1.44897 38.436 1.54497 38.168 1.65697 37.888L2.52097 38.224C2.44097 38.448 2.36897 38.66 2.30497 38.86C2.24897 39.06 2.20497 39.248 2.17297 39.424C2.14897 39.6 2.13697 39.768 2.13697 39.928C2.13697 40.264 2.20897 40.548 2.35297 40.78C2.50497 41.02 2.71297 41.216 2.97697 41.368C3.24097 41.52 3.54097 41.632 3.87697 41.704C4.22097 41.776 4.58497 41.812 4.96897 41.812C5.43297 41.812 5.86497 41.772 6.26497 41.692C6.67297 41.612 7.02897 41.496 7.33297 41.344C7.64497 41.2 7.88897 41.032 8.06497 40.84C8.24097 40.656 8.32897 40.456 8.32897 40.24C8.32897 40.136 8.28897 40.04 8.20897 39.952C8.12897 39.864 8.00897 39.78 7.84897 39.7C7.68897 39.62 7.49697 39.544 7.27297 39.472C7.04897 39.392 6.79297 39.312 6.50497 39.232L6.73297 38.236C7.14897 38.396 7.51697 38.532 7.83697 38.644C8.15697 38.748 8.43697 38.832 8.67697 38.896C8.91697 38.96 9.12497 39.008 9.30097 39.04C9.47697 39.064 9.62497 39.076 9.74497 39.076C9.91297 39.076 10.033 39.124 10.105 39.22C10.185 39.308 10.225 39.416 10.225 39.544C10.225 39.672 10.169 39.792 10.057 39.904C9.94497 40.008 9.80097 40.06 9.62497 40.06C9.57697 40.06 9.52897 40.06 9.48097 40.06C9.43297 40.06 9.38097 40.06 9.32497 40.06C9.27697 40.06 9.22897 40.06 9.18097 40.06C9.19697 40.132 9.20897 40.188 9.21697 40.228C9.22497 40.276 9.22897 40.336 9.22897 40.408C9.22897 40.704 9.12497 40.992 8.91697 41.272C8.71697 41.552 8.42097 41.804 8.02897 42.028C7.63697 42.26 7.16097 42.444 6.60097 42.58C6.04897 42.716 5.41697 42.784 4.70497 42.784C4.07297 42.784 3.48497 42.68 2.94097 42.472C2.40497 42.272 1.97297 41.968 1.64497 41.56C1.31697 41.152 1.15297 40.636 1.15297 40.012ZM9.62891 40.06L9.74891 39.076C10.0049 39.076 10.2129 39.06 10.3729 39.028C10.5329 38.988 10.6649 38.896 10.7689 38.752C10.8809 38.6 10.9849 38.364 11.0809 38.044C11.1769 37.724 11.2889 37.276 11.4169 36.7L12.3169 36.952C12.2849 37.088 12.2489 37.244 12.2089 37.42C12.1689 37.588 12.1329 37.764 12.1009 37.948C12.0689 38.124 12.0529 38.288 12.0529 38.44C12.0529 38.64 12.1289 38.796 12.2809 38.908C12.4329 39.02 12.7089 39.076 13.1089 39.076C13.3489 39.076 13.5449 39.056 13.6969 39.016C13.8489 38.976 13.9729 38.88 14.0689 38.728C14.1729 38.576 14.2649 38.332 14.3449 37.996C14.4249 37.66 14.5089 37.2 14.5969 36.616L15.5089 36.784C15.4849 36.928 15.4569 37.104 15.4249 37.312C15.3929 37.52 15.3609 37.728 15.3289 37.936C15.3049 38.136 15.2929 38.304 15.2929 38.44C15.2929 38.552 15.3169 38.66 15.3649 38.764C15.4209 38.86 15.5249 38.936 15.6769 38.992C15.8369 39.048 16.0729 39.076 16.3849 39.076C16.6169 39.076 16.8169 39.048 16.9849 38.992C17.1609 38.936 17.2929 38.832 17.3809 38.68C17.4769 38.528 17.5249 38.316 17.5249 38.044C17.5249 37.74 17.4529 37.36 17.3089 36.904C17.1729 36.44 17.0169 35.98 16.8409 35.524L17.8129 35.164C17.9169 35.42 18.0129 35.712 18.1009 36.04C18.1969 36.368 18.2769 36.692 18.3409 37.012C18.4049 37.332 18.4369 37.612 18.4369 37.852C18.4369 38.22 18.3889 38.544 18.2929 38.824C18.1969 39.104 18.0609 39.336 17.8849 39.52C17.7089 39.696 17.4929 39.832 17.2369 39.928C16.9809 40.016 16.6929 40.06 16.3729 40.06C15.9969 40.06 15.6889 40.016 15.4489 39.928C15.2089 39.84 15.0249 39.708 14.8969 39.532C14.7689 39.348 14.6849 39.116 14.6449 38.836H15.0529C14.9009 39.18 14.7409 39.44 14.5729 39.616C14.4049 39.792 14.1969 39.912 13.9489 39.976C13.7009 40.032 13.3729 40.06 12.9649 40.06C12.7649 40.06 12.5489 40.028 12.3169 39.964C12.0929 39.9 11.8969 39.776 11.7289 39.592C11.5609 39.4 11.4609 39.116 11.4289 38.74L11.7889 38.668C11.6529 39.076 11.4849 39.38 11.2849 39.58C11.0929 39.772 10.8609 39.9 10.5889 39.964C10.3169 40.028 9.99691 40.06 9.62891 40.06ZM14.8009 33.46C14.6329 33.46 14.4889 33.404 14.3689 33.292C14.2569 33.172 14.2009 33.032 14.2009 32.872C14.2009 32.712 14.2569 32.572 14.3689 32.452C14.4889 32.332 14.6329 32.272 14.8009 32.272C14.9609 32.272 15.0969 32.332 15.2089 32.452C15.3289 32.572 15.3889 32.712 15.3889 32.872C15.3889 33.032 15.3289 33.172 15.2089 33.292C15.0969 33.404 14.9609 33.46 14.8009 33.46ZM13.9849 34.78C13.8169 34.78 13.6729 34.724 13.5529 34.612C13.4409 34.492 13.3849 34.352 13.3849 34.192C13.3849 34.032 13.4409 33.892 13.5529 33.772C13.6729 33.652 13.8169 33.592 13.9849 33.592C14.1449 33.592 14.2809 33.652 14.3929 33.772C14.5129 33.892 14.5729 34.032 14.5729 34.192C14.5729 34.352 14.5129 34.492 14.3929 34.612C14.2809 34.724 14.1449 34.78 13.9849 34.78ZM15.6169 34.78C15.4489 34.78 15.3049 34.724 15.1849 34.612C15.0729 34.492 15.0169 34.352 15.0169 34.192C15.0169 34.032 15.0729 33.892 15.1849 33.772C15.3049 33.652 15.4489 33.592 15.6169 33.592C15.7769 33.592 15.9129 33.652 16.0249 33.772C16.1449 33.892 16.2049 34.032 16.2049 34.192C16.2049 34.352 16.1449 34.492 16.0249 34.612C15.9129 34.724 15.7769 34.78 15.6169 34.78ZM19.0871 42.76L18.7391 41.848C19.5471 41.592 20.1671 41.284 20.5991 40.924C21.0391 40.572 21.3391 40.204 21.4991 39.82C21.6671 39.436 21.7511 39.068 21.7511 38.716C21.7511 38.492 21.7271 38.276 21.6791 38.068C21.6311 37.86 21.5471 37.624 21.4271 37.36C21.3071 37.096 21.1391 36.768 20.9231 36.376L21.7991 35.932C22.1031 36.452 22.3191 36.944 22.4471 37.408C22.5831 37.872 22.6511 38.28 22.6511 38.632C22.6511 39.136 22.5671 39.592 22.3991 40C22.2391 40.408 22.0231 40.768 21.7511 41.08C21.4871 41.4 21.1951 41.672 20.8751 41.896C20.5631 42.12 20.2471 42.304 19.9271 42.448C19.6151 42.592 19.3351 42.696 19.0871 42.76ZM26.9373 40.06C26.2973 40.06 25.8053 39.988 25.4613 39.844C25.1253 39.7 24.8933 39.476 24.7653 39.172C24.6373 38.868 24.5653 38.476 24.5493 37.996L24.3093 31.432H25.2933L25.5333 37.612C25.5493 38.004 25.5853 38.308 25.6413 38.524C25.7053 38.732 25.8413 38.876 26.0493 38.956C26.2653 39.036 26.6013 39.076 27.0573 39.076C27.2253 39.076 27.3453 39.124 27.4173 39.22C27.4973 39.308 27.5373 39.416 27.5373 39.544C27.5373 39.672 27.4813 39.792 27.3693 39.904C27.2573 40.008 27.1133 40.06 26.9373 40.06ZM26.9375 40.06L27.0575 39.076C27.2575 39.076 27.4615 39.076 27.6695 39.076C27.8855 39.068 28.0975 39.056 28.3055 39.04C28.5135 39.024 28.7135 39.004 28.9055 38.98C29.0975 38.956 29.2695 38.92 29.4215 38.872C29.7015 38.784 29.9575 38.668 30.1895 38.524C30.4295 38.38 30.6215 38.204 30.7655 37.996C30.9175 37.788 30.9935 37.548 30.9935 37.276C30.9935 37.092 30.9495 36.904 30.8615 36.712C30.7735 36.512 30.6535 36.344 30.5015 36.208C30.3495 36.072 30.1735 36.004 29.9735 36.004C29.7815 36.004 29.6015 36.068 29.4335 36.196C29.2735 36.324 29.1415 36.492 29.0375 36.7C28.9415 36.9 28.8935 37.108 28.8935 37.324C28.8935 37.58 28.9575 37.812 29.0855 38.02C29.2215 38.22 29.3855 38.392 29.5775 38.536C29.7695 38.68 29.9615 38.796 30.1535 38.884L29.0135 39.22C28.8855 39.124 28.7335 38.992 28.5575 38.824C28.3895 38.648 28.2375 38.432 28.1015 38.176C27.9735 37.92 27.9095 37.628 27.9095 37.3C27.9095 36.98 27.9655 36.684 28.0775 36.412C28.1975 36.132 28.3535 35.888 28.5455 35.68C28.7455 35.472 28.9695 35.312 29.2175 35.2C29.4735 35.08 29.7375 35.02 30.0095 35.02C30.4015 35.02 30.7455 35.128 31.0415 35.344C31.3375 35.56 31.5655 35.836 31.7255 36.172C31.8935 36.5 31.9775 36.844 31.9775 37.204C31.9775 37.548 31.9135 37.86 31.7855 38.14C31.6575 38.412 31.4815 38.656 31.2575 38.872C31.0415 39.088 30.7855 39.272 30.4895 39.424C30.2015 39.576 29.8935 39.7 29.5655 39.796C29.3815 39.852 29.1815 39.896 28.9655 39.928C28.7575 39.96 28.5375 39.984 28.3055 40C28.0735 40.024 27.8415 40.04 27.6095 40.048C27.3775 40.056 27.1535 40.06 26.9375 40.06ZM32.8775 40.06C32.4775 40.06 32.0615 40.036 31.6295 39.988C31.2055 39.932 30.8015 39.864 30.4175 39.784C30.0415 39.696 29.7295 39.6 29.4815 39.496L30.3095 38.896C30.5495 38.928 30.8335 38.96 31.1615 38.992C31.4895 39.016 31.8175 39.036 32.1455 39.052C32.4735 39.068 32.7575 39.076 32.9975 39.076C33.1655 39.076 33.2855 39.124 33.3575 39.22C33.4375 39.308 33.4775 39.416 33.4775 39.544C33.4775 39.672 33.4215 39.792 33.3095 39.904C33.1975 40.008 33.0535 40.06 32.8775 40.06ZM29.9015 33.784C29.7335 33.784 29.5895 33.728 29.4695 33.616C29.3575 33.496 29.3015 33.356 29.3015 33.196C29.3015 33.036 29.3575 32.896 29.4695 32.776C29.5895 32.656 29.7335 32.596 29.9015 32.596C30.0615 32.596 30.1975 32.656 30.3095 32.776C30.4295 32.896 30.4895 33.036 30.4895 33.196C30.4895 33.356 30.4295 33.496 30.3095 33.616C30.1975 33.728 30.0615 33.784 29.9015 33.784ZM32.8789 40.06L32.9989 39.076C33.2549 39.076 33.4629 39.06 33.6229 39.028C33.7829 38.988 33.9149 38.896 34.0189 38.752C34.1309 38.6 34.2349 38.364 34.3309 38.044C34.4269 37.724 34.5389 37.276 34.6669 36.7L35.5669 36.952C35.5349 37.088 35.4989 37.244 35.4589 37.42C35.4189 37.588 35.3829 37.764 35.3509 37.948C35.3189 38.124 35.3029 38.288 35.3029 38.44C35.3029 38.64 35.3789 38.796 35.5309 38.908C35.6829 39.02 35.9589 39.076 36.3589 39.076C36.5989 39.076 36.7949 39.056 36.9469 39.016C37.0989 38.976 37.2229 38.88 37.3189 38.728C37.4229 38.576 37.5149 38.332 37.5949 37.996C37.6749 37.66 37.7589 37.2 37.8469 36.616L38.7589 36.784C38.7349 36.928 38.7069 37.104 38.6749 37.312C38.6429 37.52 38.6109 37.728 38.5789 37.936C38.5549 38.136 38.5429 38.304 38.5429 38.44C38.5429 38.552 38.5669 38.66 38.6149 38.764C38.6709 38.86 38.7749 38.936 38.9269 38.992C39.0869 39.048 39.3229 39.076 39.6349 39.076C39.8669 39.076 40.0669 39.048 40.2349 38.992C40.4109 38.936 40.5429 38.832 40.6309 38.68C40.7269 38.528 40.7749 38.316 40.7749 38.044C40.7749 37.74 40.7029 37.36 40.5589 36.904C40.4229 36.44 40.2669 35.98 40.0909 35.524L41.0629 35.164C41.1669 35.42 41.2629 35.712 41.3509 36.04C41.4469 36.368 41.5269 36.692 41.5909 37.012C41.6549 37.332 41.6869 37.612 41.6869 37.852C41.6869 38.22 41.6389 38.544 41.5429 38.824C41.4469 39.104 41.3109 39.336 41.1349 39.52C40.9589 39.696 40.7429 39.832 40.4869 39.928C40.2309 40.016 39.9429 40.06 39.6229 40.06C39.2469 40.06 38.9389 40.016 38.6989 39.928C38.4589 39.84 38.2749 39.708 38.1469 39.532C38.0189 39.348 37.9349 39.116 37.8949 38.836H38.3029C38.1509 39.18 37.9909 39.44 37.8229 39.616C37.6549 39.792 37.4469 39.912 37.1989 39.976C36.9509 40.032 36.6229 40.06 36.2149 40.06C36.0149 40.06 35.7989 40.028 35.5669 39.964C35.3429 39.9 35.1469 39.776 34.9789 39.592C34.8109 39.4 34.7109 39.116 34.6789 38.74L35.0389 38.668C34.9029 39.076 34.7349 39.38 34.5349 39.58C34.3429 39.772 34.1109 39.9 33.8389 39.964C33.5669 40.028 33.2469 40.06 32.8789 40.06ZM46.0241 40.012C46.0241 39.82 46.0401 39.616 46.0721 39.4C46.1121 39.176 46.1681 38.94 46.2401 38.692C46.3201 38.436 46.4161 38.168 46.5281 37.888L47.3921 38.224C47.3121 38.448 47.2401 38.66 47.1761 38.86C47.1201 39.06 47.0761 39.248 47.0441 39.424C47.0201 39.6 47.0081 39.768 47.0081 39.928C47.0081 40.264 47.0801 40.548 47.2241 40.78C47.3761 41.02 47.5841 41.216 47.8481 41.368C48.1121 41.52 48.4121 41.632 48.7481 41.704C49.0921 41.776 49.4561 41.812 49.8401 41.812C50.3041 41.812 50.7361 41.772 51.1361 41.692C51.5441 41.612 51.9001 41.496 52.2041 41.344C52.5161 41.2 52.7601 41.032 52.9361 40.84C53.1121 40.656 53.2001 40.456 53.2001 40.24C53.2001 40.136 53.1601 40.04 53.0801 39.952C53.0001 39.864 52.8801 39.78 52.7201 39.7C52.5601 39.62 52.3681 39.544 52.1441 39.472C51.9201 39.392 51.6641 39.312 51.3761 39.232L51.6041 38.236C52.0201 38.396 52.3881 38.532 52.7081 38.644C53.0281 38.748 53.3081 38.832 53.5481 38.896C53.7881 38.96 53.9961 39.008 54.1721 39.04C54.3481 39.064 54.4961 39.076 54.6161 39.076C54.7841 39.076 54.9041 39.124 54.9761 39.22C55.0561 39.308 55.0961 39.416 55.0961 39.544C55.0961 39.672 55.0401 39.792 54.9281 39.904C54.8161 40.008 54.6721 40.06 54.4961 40.06C54.4481 40.06 54.4001 40.06 54.3521 40.06C54.3041 40.06 54.2521 40.06 54.1961 40.06C54.1481 40.06 54.1001 40.06 54.0521 40.06C54.0681 40.132 54.0801 40.188 54.0881 40.228C54.0961 40.276 54.1001 40.336 54.1001 40.408C54.1001 40.704 53.9961 40.992 53.7881 41.272C53.5881 41.552 53.2921 41.804 52.9001 42.028C52.5081 42.26 52.0321 42.444 51.4721 42.58C50.9201 42.716 50.2881 42.784 49.5761 42.784C48.9441 42.784 48.3561 42.68 47.8121 42.472C47.2761 42.272 46.8441 41.968 46.5161 41.56C46.1881 41.152 46.0241 40.636 46.0241 40.012ZM54.5 40.06L54.608 39.076C55.024 39.076 55.432 39.044 55.832 38.98C56.232 38.916 56.624 38.824 57.008 38.704C57.392 38.584 57.76 38.44 58.112 38.272C58.472 38.096 58.812 37.896 59.132 37.672C58.924 37.488 58.684 37.328 58.412 37.192C58.14 37.056 57.84 36.952 57.512 36.88C57.192 36.8 56.852 36.76 56.492 36.76C56.364 36.76 56.244 36.764 56.132 36.772C56.02 36.78 55.908 36.796 55.796 36.82C55.684 36.836 55.556 36.86 55.412 36.892L55.22 35.98C55.436 35.916 55.652 35.868 55.868 35.836C56.084 35.796 56.292 35.776 56.492 35.776C56.908 35.776 57.284 35.828 57.62 35.932C57.956 36.028 58.26 36.148 58.532 36.292C58.812 36.436 59.072 36.58 59.312 36.724C59.56 36.868 59.8 36.992 60.032 37.096C60.264 37.192 60.504 37.24 60.752 37.24H61.004L61.088 38.104C60.744 38.104 60.428 38.152 60.14 38.248C59.852 38.344 59.568 38.468 59.288 38.62C59.016 38.764 58.728 38.92 58.424 39.088C58.12 39.248 57.784 39.404 57.416 39.556C57.048 39.7 56.624 39.82 56.144 39.916C55.672 40.012 55.124 40.06 54.5 40.06ZM62.6704 40L62.4304 31.432H63.4024L63.6424 40H62.6704ZM64.1691 42.784L63.8211 41.872C64.4051 41.68 64.8891 41.46 65.2731 41.212C65.6651 40.964 65.9731 40.7 66.1971 40.42C66.4291 40.14 66.5931 39.856 66.6891 39.568C66.7851 39.272 66.8331 38.988 66.8331 38.716C66.8331 38.324 66.7451 37.928 66.5691 37.528C66.4011 37.12 66.2131 36.736 66.0051 36.376L66.8811 35.932C67.0331 36.212 67.1651 36.488 67.2771 36.76C67.3971 37.032 67.5011 37.288 67.5891 37.528C67.6851 37.768 67.7611 37.988 67.8171 38.188C67.9291 38.532 68.0731 38.768 68.2491 38.896C68.4331 39.016 68.6811 39.076 68.9931 39.076C69.1611 39.076 69.2811 39.124 69.3531 39.22C69.4331 39.308 69.4731 39.416 69.4731 39.544C69.4731 39.672 69.4171 39.792 69.3051 39.904C69.1931 40.008 69.0491 40.06 68.8731 40.06C68.5211 40.06 68.2331 40 68.0091 39.88C67.7931 39.752 67.6291 39.588 67.5171 39.388C67.4051 39.18 67.3291 38.964 67.2891 38.74L67.6731 38.956C67.6731 39.484 67.5531 39.964 67.3131 40.396C67.0811 40.836 66.7811 41.216 66.4131 41.536C66.0451 41.864 65.6611 42.132 65.2611 42.34C64.8611 42.548 64.4971 42.696 64.1691 42.784ZM68.8789 40.06L68.9989 39.076H71.5069C72.2029 39.076 72.8029 39.048 73.3069 38.992C73.8189 38.928 74.2389 38.836 74.5669 38.716C74.8949 38.596 75.1389 38.444 75.2989 38.26C75.4589 38.068 75.5389 37.844 75.5389 37.588C75.5389 37.452 75.4949 37.304 75.4069 37.144C75.3189 36.984 75.1829 36.848 74.9989 36.736C74.8149 36.616 74.5709 36.556 74.2669 36.556C73.8829 36.556 73.4989 36.656 73.1149 36.856C72.7389 37.056 72.3789 37.308 72.0349 37.612C71.6989 37.908 71.3989 38.212 71.1349 38.524C70.8709 38.836 70.6589 39.108 70.4989 39.34L69.4549 39.304C69.7109 38.888 70.0149 38.464 70.3669 38.032C70.7269 37.592 71.1189 37.188 71.5429 36.82C71.9749 36.444 72.4269 36.144 72.8989 35.92C73.3709 35.688 73.8509 35.572 74.3389 35.572C74.7789 35.572 75.1549 35.664 75.4669 35.848C75.7869 36.024 76.0309 36.264 76.1989 36.568C76.3749 36.872 76.4629 37.216 76.4629 37.6C76.4629 37.976 76.3269 38.356 76.0549 38.74C75.7829 39.116 75.3149 39.412 74.6509 39.628C74.3149 39.74 73.9309 39.828 73.4989 39.892C73.0669 39.956 72.5749 40 72.0229 40.024C71.4709 40.048 70.8429 40.06 70.1389 40.06H68.8789ZM70.0189 38.872L69.7789 31.432H70.7509L70.9909 38.032L70.0189 38.872Z" fill="#CBCBCB"/>
</svg>
