<svg width="46" height="43" viewBox="0 0 46 43" fill="none" xmlns="http://www.w3.org/2000/svg">
<path d="M29.19 17.75H18.54C17.55 17.75 16.6 17.33 15.93 16.6C15.26 15.87 14.92 14.89 15 13.9L15.83 3.94C15.86 3.63 15.75 3.33001 15.54 3.10001C15.33 2.87001 15.04 2.75 14.73 2.75H13C12.59 2.75 12.25 2.41 12.25 2C12.25 1.59 12.59 1.25 13 1.25H14.74C15.47 1.25 16.16 1.56 16.65 2.09C16.92 2.39 17.12 2.74 17.23 3.13H29.72C30.73 3.13 31.66 3.53 32.34 4.25C33.01 4.98 33.35 5.93 33.27 6.94L32.73 14.44C32.62 16.27 31.02 17.75 29.19 17.75ZM17.28 4.62L16.5 14.02C16.45 14.6 16.64 15.15 17.03 15.58C17.42 16.01 17.96 16.24 18.54 16.24H29.19C30.23 16.24 31.17 15.36 31.25 14.32L31.79 6.82001C31.83 6.23001 31.64 5.67001 31.25 5.26001C30.86 4.84001 30.32 4.60999 29.73 4.60999H17.28V4.62Z" fill="#CBCBCB"/>
<path d="M27.25 22.75C26.15 22.75 25.25 21.85 25.25 20.75C25.25 19.65 26.15 18.75 27.25 18.75C28.35 18.75 29.25 19.65 29.25 20.75C29.25 21.85 28.35 22.75 27.25 22.75ZM27.25 20.25C26.97 20.25 26.75 20.47 26.75 20.75C26.75 21.03 26.97 21.25 27.25 21.25C27.53 21.25 27.75 21.03 27.75 20.75C27.75 20.47 27.53 20.25 27.25 20.25Z" fill="#CBCBCB"/>
<path d="M19.25 22.75C18.15 22.75 17.25 21.85 17.25 20.75C17.25 19.65 18.15 18.75 19.25 18.75C20.35 18.75 21.25 19.65 21.25 20.75C21.25 21.85 20.35 22.75 19.25 22.75ZM19.25 20.25C18.97 20.25 18.75 20.47 18.75 20.75C18.75 21.03 18.97 21.25 19.25 21.25C19.53 21.25 19.75 21.03 19.75 20.75C19.75 20.47 19.53 20.25 19.25 20.25Z" fill="#CBCBCB"/>
<path d="M32 8.75H20C19.59 8.75 19.25 8.41 19.25 8C19.25 7.59 19.59 7.25 20 7.25H32C32.41 7.25 32.75 7.59 32.75 8C32.75 8.41 32.41 8.75 32 8.75Z" fill="#CBCBCB"/>
<path d="M3.49797 39.076C3.89797 39.076 4.21397 39.036 4.44597 38.956C4.68597 38.876 4.85797 38.76 4.96197 38.608C5.07397 38.448 5.12997 38.264 5.12997 38.056C5.12997 37.896 5.08597 37.704 4.99797 37.48C4.91797 37.256 4.80597 37.008 4.66197 36.736C4.51797 36.456 4.34997 36.164 4.15797 35.86C3.97397 35.548 3.77397 35.232 3.55797 34.912L4.38597 34.372C4.69797 34.844 4.96997 35.292 5.20197 35.716C5.43397 36.132 5.62997 36.524 5.78997 36.892C5.94997 37.252 6.07797 37.592 6.17397 37.912C6.28597 38.264 6.40997 38.524 6.54597 38.692C6.68997 38.86 6.83797 38.968 6.98997 39.016C7.14197 39.056 7.28197 39.076 7.40997 39.076C7.57797 39.076 7.70197 39.124 7.78197 39.22C7.86197 39.308 7.90197 39.416 7.90197 39.544C7.90197 39.672 7.84597 39.792 7.73397 39.904C7.62197 40.008 7.47797 40.06 7.30197 40.06C7.03797 40.06 6.77797 40.012 6.52197 39.916C6.27397 39.812 6.05797 39.648 5.87397 39.424C5.68997 39.192 5.56197 38.884 5.48997 38.5L5.96997 38.116C5.96997 38.436 5.90197 38.748 5.76597 39.052C5.62997 39.348 5.38197 39.592 5.02197 39.784C4.66997 39.976 4.16197 40.072 3.49797 40.072C3.20997 40.072 2.92997 40.048 2.65797 40C2.39397 39.952 2.14997 39.884 1.92597 39.796C1.70197 39.7 1.50597 39.588 1.33797 39.46L1.81797 38.632C1.97797 38.736 2.20197 38.836 2.48997 38.932C2.77797 39.028 3.11397 39.076 3.49797 39.076ZM7.30469 40.06L7.42469 39.076C7.89669 39.076 8.26469 39.06 8.52869 39.028C8.79269 38.988 8.98069 38.896 9.09269 38.752C9.20469 38.6 9.26069 38.364 9.26069 38.044C9.26069 37.844 9.22869 37.608 9.16469 37.336C9.10069 37.056 9.01669 36.76 8.91269 36.448C8.80869 36.136 8.69669 35.828 8.57669 35.524L9.54869 35.164C9.65269 35.42 9.74869 35.712 9.83669 36.04C9.93269 36.368 10.0127 36.692 10.0767 37.012C10.1407 37.332 10.1727 37.612 10.1727 37.852C10.1727 38.252 10.1167 38.592 10.0047 38.872C9.90069 39.152 9.73269 39.38 9.50069 39.556C9.26869 39.732 8.96869 39.86 8.60069 39.94C8.24069 40.02 7.80869 40.06 7.30469 40.06ZM9.52469 42.328C9.35669 42.328 9.21269 42.268 9.09269 42.148C8.98069 42.036 8.92469 41.9 8.92469 41.74C8.92469 41.58 8.98069 41.44 9.09269 41.32C9.21269 41.2 9.35669 41.14 9.52469 41.14C9.68469 41.14 9.82069 41.2 9.93269 41.32C10.0527 41.44 10.1127 41.58 10.1127 41.74C10.1127 41.9 10.0527 42.036 9.93269 42.148C9.82069 42.268 9.68469 42.328 9.52469 42.328ZM7.88069 42.328C7.71269 42.328 7.56869 42.268 7.44869 42.148C7.33669 42.036 7.28069 41.9 7.28069 41.74C7.28069 41.58 7.33669 41.44 7.44869 41.32C7.56869 41.2 7.71269 41.14 7.88069 41.14C8.04069 41.14 8.17669 41.2 8.28869 41.32C8.40869 41.44 8.46869 41.58 8.46869 41.74C8.46869 41.9 8.40869 42.036 8.28869 42.148C8.17669 42.268 8.04069 42.328 7.88069 42.328ZM10.9386 42.784L10.5906 41.872C11.1746 41.68 11.6586 41.46 12.0426 41.212C12.4346 40.964 12.7426 40.7 12.9666 40.42C13.1986 40.14 13.3626 39.856 13.4586 39.568C13.5546 39.272 13.6026 38.988 13.6026 38.716C13.6026 38.324 13.5146 37.928 13.3386 37.528C13.1706 37.12 12.9826 36.736 12.7746 36.376L13.6506 35.932C13.8026 36.212 13.9346 36.488 14.0466 36.76C14.1666 37.032 14.2706 37.288 14.3586 37.528C14.4546 37.768 14.5306 37.988 14.5866 38.188C14.6986 38.532 14.8426 38.768 15.0186 38.896C15.2026 39.016 15.4506 39.076 15.7626 39.076C15.9306 39.076 16.0506 39.124 16.1226 39.22C16.2026 39.308 16.2426 39.416 16.2426 39.544C16.2426 39.672 16.1866 39.792 16.0746 39.904C15.9626 40.008 15.8186 40.06 15.6426 40.06C15.2906 40.06 15.0026 40 14.7786 39.88C14.5626 39.752 14.3986 39.588 14.2866 39.388C14.1746 39.18 14.0986 38.964 14.0586 38.74L14.4426 38.956C14.4426 39.484 14.3226 39.964 14.0826 40.396C13.8506 40.836 13.5506 41.216 13.1826 41.536C12.8146 41.864 12.4306 42.132 12.0306 42.34C11.6306 42.548 11.2666 42.696 10.9386 42.784ZM15.6484 40.06L15.7564 39.076C16.1724 39.076 16.5804 39.044 16.9804 38.98C17.3804 38.916 17.7724 38.824 18.1564 38.704C18.5404 38.584 18.9084 38.44 19.2604 38.272C19.6204 38.096 19.9604 37.896 20.2804 37.672C20.0724 37.488 19.8324 37.328 19.5604 37.192C19.2884 37.056 18.9884 36.952 18.6604 36.88C18.3404 36.8 18.0004 36.76 17.6404 36.76C17.5124 36.76 17.3924 36.764 17.2804 36.772C17.1684 36.78 17.0564 36.796 16.9444 36.82C16.8324 36.836 16.7044 36.86 16.5604 36.892L16.3684 35.98C16.5844 35.916 16.8004 35.868 17.0164 35.836C17.2324 35.796 17.4404 35.776 17.6404 35.776C18.0564 35.776 18.4324 35.828 18.7684 35.932C19.1044 36.028 19.4084 36.148 19.6804 36.292C19.9604 36.436 20.2204 36.58 20.4604 36.724C20.7084 36.868 20.9484 36.992 21.1804 37.096C21.4124 37.192 21.6524 37.24 21.9004 37.24H22.1524L22.2364 38.104C21.8924 38.104 21.5764 38.152 21.2884 38.248C21.0004 38.344 20.7164 38.468 20.4364 38.62C20.1644 38.764 19.8764 38.92 19.5724 39.088C19.2684 39.248 18.9324 39.404 18.5644 39.556C18.1964 39.7 17.7724 39.82 17.2924 39.916C16.8204 40.012 16.2724 40.06 15.6484 40.06ZM17.6524 34.54C17.4844 34.54 17.3404 34.484 17.2204 34.372C17.1084 34.252 17.0524 34.112 17.0524 33.952C17.0524 33.792 17.1084 33.652 17.2204 33.532C17.3404 33.412 17.4844 33.352 17.6524 33.352C17.8124 33.352 17.9484 33.412 18.0604 33.532C18.1804 33.652 18.2404 33.792 18.2404 33.952C18.2404 34.112 18.1804 34.252 18.0604 34.372C17.9484 34.484 17.8124 34.54 17.6524 34.54ZM28.6698 39.076C29.0698 39.076 29.3858 39.036 29.6178 38.956C29.8578 38.876 30.0298 38.76 30.1338 38.608C30.2458 38.448 30.3018 38.264 30.3018 38.056C30.3018 37.896 30.2578 37.704 30.1698 37.48C30.0898 37.256 29.9778 37.008 29.8338 36.736C29.6898 36.456 29.5218 36.164 29.3298 35.86C29.1458 35.548 28.9458 35.232 28.7298 34.912L29.5578 34.372C29.8698 34.844 30.1418 35.292 30.3738 35.716C30.6058 36.132 30.8018 36.524 30.9618 36.892C31.1218 37.252 31.2498 37.592 31.3458 37.912C31.4578 38.264 31.5818 38.524 31.7178 38.692C31.8618 38.86 32.0098 38.968 32.1618 39.016C32.3138 39.056 32.4538 39.076 32.5818 39.076C32.7498 39.076 32.8738 39.124 32.9538 39.22C33.0338 39.308 33.0738 39.416 33.0738 39.544C33.0738 39.672 33.0178 39.792 32.9058 39.904C32.7938 40.008 32.6498 40.06 32.4738 40.06C32.2098 40.06 31.9498 40.012 31.6938 39.916C31.4458 39.812 31.2298 39.648 31.0458 39.424C30.8618 39.192 30.7338 38.884 30.6618 38.5L31.1418 38.116C31.1418 38.436 31.0738 38.748 30.9378 39.052C30.8018 39.348 30.5538 39.592 30.1938 39.784C29.8418 39.976 29.3338 40.072 28.6698 40.072C28.3818 40.072 28.1018 40.048 27.8298 40C27.5658 39.952 27.3218 39.884 27.0978 39.796C26.8738 39.7 26.6778 39.588 26.5098 39.46L26.9898 38.632C27.1498 38.736 27.3738 38.836 27.6618 38.932C27.9498 39.028 28.2858 39.076 28.6698 39.076ZM32.4766 40.06L32.5966 39.076C32.9326 39.076 33.1966 39.048 33.3886 38.992C33.5806 38.928 33.7246 38.812 33.8206 38.644C33.9246 38.468 34.0126 38.216 34.0846 37.888C34.1566 37.56 34.2446 37.132 34.3486 36.604L35.2846 36.784C35.2526 36.928 35.2166 37.088 35.1766 37.264C35.1366 37.44 35.1006 37.616 35.0686 37.792C35.0446 37.96 35.0326 38.108 35.0326 38.236C35.0326 38.396 35.0686 38.54 35.1406 38.668C35.2126 38.796 35.3686 38.896 35.6086 38.968C35.8486 39.04 36.2166 39.076 36.7126 39.076C36.8806 39.076 37.0006 39.124 37.0726 39.22C37.1526 39.308 37.1926 39.416 37.1926 39.544C37.1926 39.672 37.1366 39.792 37.0246 39.904C36.9126 40.008 36.7686 40.06 36.5926 40.06C36.0726 40.06 35.6646 40.016 35.3686 39.928C35.0726 39.832 34.8566 39.692 34.7206 39.508C34.5846 39.316 34.4926 39.084 34.4446 38.812L34.8046 38.836C34.6766 39.092 34.5366 39.3 34.3846 39.46C34.2406 39.62 34.0806 39.744 33.9046 39.832C33.7286 39.92 33.5246 39.98 33.2926 40.012C33.0606 40.044 32.7886 40.06 32.4766 40.06ZM34.5166 42.292C34.3486 42.292 34.2046 42.232 34.0846 42.112C33.9726 42 33.9166 41.864 33.9166 41.704C33.9166 41.544 33.9726 41.404 34.0846 41.284C34.2046 41.164 34.3486 41.104 34.5166 41.104C34.6766 41.104 34.8126 41.164 34.9246 41.284C35.0446 41.404 35.1046 41.544 35.1046 41.704C35.1046 41.864 35.0446 42 34.9246 42.112C34.8126 42.232 34.6766 42.292 34.5166 42.292ZM36.5898 40.06L36.7098 39.076C36.9658 39.076 37.1738 39.06 37.3338 39.028C37.4938 38.988 37.6258 38.896 37.7298 38.752C37.8418 38.6 37.9458 38.364 38.0418 38.044C38.1378 37.724 38.2498 37.276 38.3778 36.7L39.2778 36.952C39.2458 37.088 39.2098 37.244 39.1698 37.42C39.1298 37.588 39.0938 37.764 39.0618 37.948C39.0298 38.124 39.0138 38.288 39.0138 38.44C39.0138 38.64 39.0898 38.796 39.2418 38.908C39.3938 39.02 39.6698 39.076 40.0698 39.076C40.3098 39.076 40.5058 39.056 40.6578 39.016C40.8098 38.976 40.9338 38.88 41.0298 38.728C41.1338 38.576 41.2258 38.332 41.3058 37.996C41.3858 37.66 41.4698 37.2 41.5578 36.616L42.4698 36.784C42.4458 36.928 42.4178 37.104 42.3858 37.312C42.3538 37.52 42.3218 37.728 42.2898 37.936C42.2658 38.136 42.2538 38.304 42.2538 38.44C42.2538 38.552 42.2778 38.66 42.3258 38.764C42.3818 38.86 42.4858 38.936 42.6378 38.992C42.7978 39.048 43.0338 39.076 43.3458 39.076C43.5778 39.076 43.7778 39.048 43.9458 38.992C44.1218 38.936 44.2538 38.832 44.3418 38.68C44.4378 38.528 44.4858 38.316 44.4858 38.044C44.4858 37.74 44.4138 37.36 44.2698 36.904C44.1338 36.44 43.9778 35.98 43.8018 35.524L44.7738 35.164C44.8778 35.42 44.9738 35.712 45.0618 36.04C45.1578 36.368 45.2378 36.692 45.3018 37.012C45.3658 37.332 45.3978 37.612 45.3978 37.852C45.3978 38.22 45.3498 38.544 45.2538 38.824C45.1578 39.104 45.0218 39.336 44.8458 39.52C44.6698 39.696 44.4538 39.832 44.1978 39.928C43.9418 40.016 43.6538 40.06 43.3338 40.06C42.9578 40.06 42.6498 40.016 42.4098 39.928C42.1698 39.84 41.9858 39.708 41.8578 39.532C41.7298 39.348 41.6458 39.116 41.6058 38.836H42.0138C41.8618 39.18 41.7018 39.44 41.5338 39.616C41.3658 39.792 41.1578 39.912 40.9098 39.976C40.6618 40.032 40.3338 40.06 39.9258 40.06C39.7258 40.06 39.5098 40.028 39.2778 39.964C39.0538 39.9 38.8578 39.776 38.6898 39.592C38.5218 39.4 38.4218 39.116 38.3898 38.74L38.7498 38.668C38.6138 39.076 38.4458 39.38 38.2458 39.58C38.0538 39.772 37.8218 39.9 37.5498 39.964C37.2778 40.028 36.9578 40.06 36.5898 40.06Z" fill="#CBCBCB"/>
</svg>
