<svg width="37" height="44" viewBox="0 0 37 44" fill="none" xmlns="http://www.w3.org/2000/svg">
<path d="M18.5 12C21.2614 12 23.5 9.76142 23.5 7C23.5 4.23858 21.2614 2 18.5 2C15.7386 2 13.5 4.23858 13.5 7C13.5 9.76142 15.7386 12 18.5 12Z" fill="white"/>
<path d="M18.5002 14.5C13.4902 14.5 9.41016 17.86 9.41016 22C9.41016 22.28 9.63016 22.5 9.91016 22.5H27.0902C27.3702 22.5 27.5902 22.28 27.5902 22C27.5902 17.86 23.5102 14.5 18.5002 14.5Z" fill="white"/>
<path d="M2.43813 40.012C2.43813 39.82 2.45413 39.616 2.48613 39.4C2.52613 39.176 2.58213 38.94 2.65413 38.692C2.73413 38.436 2.83013 38.168 2.94213 37.888L3.80613 38.224C3.72613 38.448 3.65413 38.66 3.59013 38.86C3.53413 39.06 3.49013 39.248 3.45813 39.424C3.43413 39.6 3.42213 39.768 3.42213 39.928C3.42213 40.336 3.53013 40.68 3.74613 40.96C3.96213 41.24 4.24213 41.448 4.58613 41.584C4.93813 41.728 5.31413 41.8 5.71413 41.8C6.49813 41.8 7.11013 41.66 7.55013 41.38C7.99013 41.108 8.29813 40.744 8.47413 40.288C8.65013 39.84 8.72613 39.348 8.70213 38.812L8.43813 31.432H9.43413L9.62613 37.516C9.64213 37.924 9.70613 38.244 9.81813 38.476C9.93813 38.7 10.0981 38.856 10.2981 38.944C10.4981 39.032 10.7181 39.076 10.9581 39.076C11.1261 39.076 11.2461 39.124 11.3181 39.22C11.3981 39.308 11.4381 39.416 11.4381 39.544C11.4381 39.672 11.3821 39.792 11.2701 39.904C11.1581 40.008 11.0141 40.06 10.8381 40.06C10.5901 40.06 10.3781 40.028 10.2021 39.964C10.0261 39.892 9.88213 39.804 9.77013 39.7C9.65813 39.588 9.57013 39.464 9.50613 39.328C9.44213 39.184 9.39413 39.04 9.36213 38.896L9.69813 39.232C9.66613 39.656 9.57413 40.076 9.42213 40.492C9.27813 40.916 9.05413 41.3 8.75013 41.644C8.44613 41.988 8.03813 42.264 7.52613 42.472C7.02213 42.68 6.39813 42.784 5.65413 42.784C5.23813 42.784 4.83413 42.72 4.44213 42.592C4.05813 42.472 3.71413 42.292 3.41013 42.052C3.11413 41.812 2.87813 41.52 2.70213 41.176C2.52613 40.84 2.43813 40.452 2.43813 40.012ZM10.8438 40.06L10.9638 39.076C11.4358 39.076 11.8038 39.06 12.0678 39.028C12.3318 38.988 12.5198 38.896 12.6318 38.752C12.7438 38.6 12.7998 38.364 12.7998 38.044C12.7998 37.844 12.7678 37.608 12.7038 37.336C12.6398 37.056 12.5558 36.76 12.4518 36.448C12.3478 36.136 12.2358 35.828 12.1158 35.524L13.0878 35.164C13.1918 35.42 13.2878 35.712 13.3758 36.04C13.4718 36.368 13.5518 36.692 13.6158 37.012C13.6798 37.332 13.7118 37.612 13.7118 37.852C13.7118 38.252 13.6558 38.592 13.5438 38.872C13.4398 39.152 13.2718 39.38 13.0398 39.556C12.8078 39.732 12.5078 39.86 12.1398 39.94C11.7798 40.02 11.3478 40.06 10.8438 40.06ZM13.0638 42.328C12.8958 42.328 12.7518 42.268 12.6318 42.148C12.5198 42.036 12.4638 41.9 12.4638 41.74C12.4638 41.58 12.5198 41.44 12.6318 41.32C12.7518 41.2 12.8958 41.14 13.0638 41.14C13.2238 41.14 13.3598 41.2 13.4718 41.32C13.5918 41.44 13.6518 41.58 13.6518 41.74C13.6518 41.9 13.5918 42.036 13.4718 42.148C13.3598 42.268 13.2238 42.328 13.0638 42.328ZM11.4198 42.328C11.2518 42.328 11.1078 42.268 10.9878 42.148C10.8757 42.036 10.8197 41.9 10.8197 41.74C10.8197 41.58 10.8757 41.44 10.9878 41.32C11.1078 41.2 11.2518 41.14 11.4198 41.14C11.5798 41.14 11.7158 41.2 11.8278 41.32C11.9478 41.44 12.0078 41.58 12.0078 41.74C12.0078 41.9 11.9478 42.036 11.8278 42.148C11.7158 42.268 11.5798 42.328 11.4198 42.328ZM17.9217 40.06C17.2817 40.06 16.7897 39.988 16.4457 39.844C16.1097 39.7 15.8777 39.476 15.7497 39.172C15.6217 38.868 15.5497 38.476 15.5337 37.996L15.2937 31.432H16.2777L16.5177 37.612C16.5337 38.004 16.5697 38.308 16.6257 38.524C16.6897 38.732 16.8257 38.876 17.0337 38.956C17.2497 39.036 17.5857 39.076 18.0417 39.076C18.2097 39.076 18.3297 39.124 18.4017 39.22C18.4817 39.308 18.5217 39.416 18.5217 39.544C18.5217 39.672 18.4657 39.792 18.3537 39.904C18.2417 40.008 18.0977 40.06 17.9217 40.06ZM17.9219 40.06L18.0419 39.076C18.2419 39.076 18.4619 39.076 18.7019 39.076C18.9499 39.068 19.1979 39.06 19.4459 39.052C19.7019 39.044 19.9379 39.028 20.1539 39.004C20.3699 38.972 20.5499 38.932 20.6939 38.884C20.9819 38.78 21.2059 38.652 21.3659 38.5C21.5259 38.34 21.6379 38.132 21.7019 37.876C21.7739 37.612 21.8099 37.276 21.8099 36.868C21.8099 36.532 21.7659 36.22 21.6779 35.932C21.5899 35.644 21.4659 35.412 21.3059 35.236C21.1459 35.06 20.9539 34.972 20.7299 34.972C20.5459 34.972 20.3779 35.044 20.2259 35.188C20.0819 35.324 19.9659 35.5 19.8779 35.716C19.7979 35.932 19.7579 36.148 19.7579 36.364C19.7579 36.532 19.7899 36.676 19.8539 36.796C19.9259 36.916 20.0419 37.012 20.2019 37.084C20.3619 37.148 20.5699 37.18 20.8259 37.18C21.0579 37.18 21.2899 37.156 21.5219 37.108C21.7619 37.06 21.9659 36.996 22.1339 36.916L22.1819 37.756C22.0539 37.844 21.9099 37.916 21.7499 37.972C21.5899 38.028 21.4219 38.068 21.2459 38.092C21.0699 38.116 20.8939 38.128 20.7179 38.128C20.3099 38.128 19.9619 38.064 19.6739 37.936C19.3939 37.8 19.1779 37.62 19.0259 37.396C18.8819 37.164 18.8099 36.9 18.8099 36.604C18.8099 36.3 18.8579 35.996 18.9539 35.692C19.0499 35.38 19.1859 35.096 19.3619 34.84C19.5379 34.584 19.7499 34.38 19.9979 34.228C20.2459 34.068 20.5219 33.988 20.8259 33.988C21.2579 33.988 21.6139 34.128 21.8939 34.408C22.1819 34.688 22.3939 35.056 22.5299 35.512C22.6739 35.96 22.7459 36.436 22.7459 36.94C22.7459 37.54 22.6419 38.056 22.4339 38.488C22.2339 38.912 21.8979 39.264 21.4259 39.544C21.2419 39.648 21.0179 39.736 20.7539 39.808C20.4979 39.872 20.2139 39.924 19.9019 39.964C19.5979 40.004 19.2779 40.028 18.9419 40.036C18.6059 40.052 18.2659 40.06 17.9219 40.06ZM20.5979 32.752C20.4299 32.752 20.2859 32.696 20.1659 32.584C20.0539 32.464 19.9979 32.324 19.9979 32.164C19.9979 32.004 20.0539 31.864 20.1659 31.744C20.2859 31.624 20.4299 31.564 20.5979 31.564C20.7579 31.564 20.8939 31.624 21.0059 31.744C21.1259 31.864 21.1859 32.004 21.1859 32.164C21.1859 32.324 21.1259 32.464 21.0059 32.584C20.8939 32.696 20.7579 32.752 20.5979 32.752ZM23.9851 42.76L23.7691 41.776C24.2491 41.712 24.6891 41.62 25.0891 41.5C25.4971 41.388 25.8451 41.224 26.1331 41.008C26.4291 40.792 26.6571 40.508 26.8171 40.156C26.9771 39.804 27.0571 39.364 27.0571 38.836C27.0571 38.588 27.0331 38.352 26.9851 38.128C26.9371 37.896 26.8651 37.692 26.7691 37.516C26.6731 37.34 26.5571 37.2 26.4211 37.096C26.2931 36.992 26.1451 36.94 25.9771 36.94C25.7931 36.94 25.6251 37.012 25.4731 37.156C25.3291 37.292 25.2131 37.468 25.1251 37.684C25.0451 37.9 25.0051 38.116 25.0051 38.332C25.0051 38.5 25.0371 38.648 25.1011 38.776C25.1731 38.896 25.2891 38.988 25.4491 39.052C25.6091 39.116 25.8171 39.148 26.0731 39.148C26.3051 39.148 26.5371 39.124 26.7691 39.076C27.0091 39.028 27.2131 38.964 27.3811 38.884L27.4291 39.724C27.2371 39.86 27.0091 39.956 26.7451 40.012C26.4891 40.068 26.2291 40.096 25.9651 40.096C25.6611 40.096 25.3891 40.064 25.1491 40C24.9171 39.936 24.7171 39.844 24.5491 39.724C24.3891 39.596 24.2651 39.436 24.1771 39.244C24.0971 39.052 24.0571 38.828 24.0571 38.572C24.0571 38.268 24.1051 37.964 24.2011 37.66C24.2971 37.348 24.4331 37.064 24.6091 36.808C24.7851 36.552 24.9971 36.348 25.2451 36.196C25.4931 36.036 25.7691 35.956 26.0731 35.956C26.3931 35.956 26.6731 36.04 26.9131 36.208C27.1531 36.368 27.3531 36.588 27.5131 36.868C27.6731 37.148 27.7931 37.464 27.8731 37.816C27.9531 38.168 27.9931 38.532 27.9931 38.908C27.9931 39.652 27.8411 40.292 27.5371 40.828C27.2411 41.372 26.7931 41.804 26.1931 42.124C25.6011 42.444 24.8651 42.656 23.9851 42.76ZM28.7043 42.784L28.3562 41.872C28.9403 41.68 29.4243 41.46 29.8083 41.212C30.2003 40.964 30.5083 40.7 30.7323 40.42C30.9643 40.14 31.1283 39.856 31.2243 39.568C31.3203 39.272 31.3683 38.988 31.3683 38.716C31.3683 38.324 31.2803 37.928 31.1043 37.528C30.9363 37.12 30.7483 36.736 30.5403 36.376L31.4163 35.932C31.5683 36.212 31.7003 36.488 31.8123 36.76C31.9323 37.032 32.0363 37.288 32.1243 37.528C32.2203 37.768 32.2963 37.988 32.3523 38.188C32.4643 38.532 32.6083 38.768 32.7843 38.896C32.9683 39.016 33.2163 39.076 33.5283 39.076C33.6963 39.076 33.8163 39.124 33.8883 39.22C33.9683 39.308 34.0083 39.416 34.0083 39.544C34.0083 39.672 33.9523 39.792 33.8403 39.904C33.7283 40.008 33.5843 40.06 33.4083 40.06C33.0563 40.06 32.7683 40 32.5443 39.88C32.3283 39.752 32.1643 39.588 32.0523 39.388C31.9403 39.18 31.8643 38.964 31.8242 38.74L32.2083 38.956C32.2083 39.484 32.0883 39.964 31.8483 40.396C31.6163 40.836 31.3163 41.216 30.9483 41.536C30.5803 41.864 30.1963 42.132 29.7963 42.34C29.3963 42.548 29.0323 42.696 28.7043 42.784ZM33.4141 40.06L33.5341 39.076C34.0061 39.076 34.3741 39.06 34.6381 39.028C34.9021 38.988 35.0901 38.896 35.2021 38.752C35.3141 38.6 35.3701 38.364 35.3701 38.044C35.3701 37.844 35.3381 37.608 35.2741 37.336C35.2101 37.056 35.1261 36.76 35.0221 36.448C34.9181 36.136 34.8061 35.828 34.6861 35.524L35.6581 35.164C35.7621 35.42 35.8581 35.712 35.9461 36.04C36.0421 36.368 36.1221 36.692 36.1861 37.012C36.2501 37.332 36.2821 37.612 36.2821 37.852C36.2821 38.252 36.2261 38.592 36.1141 38.872C36.0101 39.152 35.8421 39.38 35.6101 39.556C35.3781 39.732 35.0781 39.86 34.7101 39.94C34.3501 40.02 33.9181 40.06 33.4141 40.06ZM34.7581 43.66C34.5981 43.66 34.4581 43.6 34.3381 43.48C34.2261 43.36 34.1701 43.22 34.1701 43.06C34.1701 42.9 34.2261 42.76 34.3381 42.64C34.4581 42.528 34.5981 42.472 34.7581 42.472C34.9261 42.472 35.0661 42.528 35.1781 42.64C35.2981 42.76 35.3581 42.9 35.3581 43.06C35.3581 43.22 35.2981 43.36 35.1781 43.48C35.0661 43.6 34.9261 43.66 34.7581 43.66ZM35.5741 42.34C35.4141 42.34 35.2741 42.28 35.1541 42.16C35.0421 42.04 34.9861 41.9 34.9861 41.74C34.9861 41.58 35.0421 41.44 35.1541 41.32C35.2741 41.208 35.4141 41.152 35.5741 41.152C35.7421 41.152 35.8821 41.208 35.9941 41.32C36.1141 41.44 36.1741 41.58 36.1741 41.74C36.1741 41.9 36.1141 42.04 35.9941 42.16C35.8821 42.28 35.7421 42.34 35.5741 42.34ZM33.9421 42.34C33.7821 42.34 33.6421 42.28 33.5221 42.16C33.4101 42.04 33.3541 41.9 33.3541 41.74C33.3541 41.58 33.4101 41.44 33.5221 41.32C33.6421 41.208 33.7821 41.152 33.9421 41.152C34.1101 41.152 34.2501 41.208 34.3621 41.32C34.4821 41.44 34.5421 41.58 34.5421 41.74C34.5421 41.9 34.4821 42.04 34.3621 42.16C34.2501 42.28 34.1101 42.34 33.9421 42.34Z" fill="white"/>
</svg>
