<svg width="520" height="480" viewBox="0 0 520 480" fill="none" xmlns="http://www.w3.org/2000/svg">
<path d="M520 367.102H0V367.342H520V367.102Z" fill="#D6D6D6"/>
<path d="M129.82 381.625H95.373V381.865H129.82V381.625Z" fill="#D6D6D6"/>
<path d="M84.4705 381.625H64.5098V381.865H84.4705V381.625Z" fill="#D6D6D6"/>
<path d="M218.975 385.156H199.016V385.396H218.975V385.156Z" fill="#D6D6D6"/>
<path d="M323.04 390.516H278.119V390.756H323.04V390.516Z" fill="#D6D6D6"/>
<path d="M268.862 390.516H262.275V390.756H268.862V390.516Z" fill="#D6D6D6"/>
<path d="M471.476 385.156H374.053V385.396H471.476V385.156Z" fill="#D6D6D6"/>
<path d="M246.494 324.288H45.6707C42.3978 324.288 39.7344 321.829 39.7344 318.808V58.2336C39.7344 55.2125 42.3978 52.7539 45.6707 52.7539H246.494C249.765 52.7539 252.429 55.2125 252.429 58.2336V318.808C252.429 321.829 249.765 324.288 246.494 324.288ZM45.6707 52.9949C42.5403 52.9949 39.9944 55.3449 39.9944 58.2345V318.809C39.9944 321.699 42.5403 324.049 45.6707 324.049H246.494C249.623 324.049 252.169 321.699 252.169 318.809V58.2336C252.169 55.3449 249.623 52.9939 246.494 52.9939L45.6707 52.9949Z" fill="#D6D6D6"/>
<path d="M471.441 324.288H270.619C267.347 324.288 264.684 321.829 264.684 318.808V58.2336C264.684 55.2125 267.347 52.7539 270.619 52.7539H471.441C474.715 52.7539 477.377 55.2125 477.377 58.2336V318.808C477.378 321.829 474.715 324.288 471.441 324.288ZM270.619 52.9949C267.49 52.9949 264.944 55.3449 264.944 58.2345V318.809C264.944 321.699 267.49 324.049 270.619 324.049H471.441C474.571 324.049 477.117 321.699 477.117 318.809V58.2336C477.117 55.3449 474.571 52.9939 471.441 52.9939L270.619 52.9949Z" fill="#D6D6D6"/>
<path d="M278.095 285.102H255.227V368.846H278.095V285.102Z" fill="#D6D6D6"/>
<path d="M273.751 368.85H278.094V357.445H269.197L273.751 368.85Z" fill="#D6D6D6"/>
<path d="M177.886 285.102H155.018V368.846H177.886V285.102Z" fill="#D6D6D6"/>
<path d="M278.097 285.102H174.096V361.849H278.097V285.102Z" fill="#D6D6D6"/>
<path d="M274.325 288.871V309.176H177.867V288.871H274.325ZM274.727 288.5H177.465V309.547H274.727V288.5Z" fill="#D6D6D6"/>
<path d="M178.439 368.85H174.096V357.445H182.993L178.439 368.85Z" fill="#D6D6D6"/>
<path d="M223.795 299.03C223.795 300.202 224.825 301.153 226.095 301.153C227.365 301.153 228.396 300.203 228.396 299.03C228.396 297.858 227.366 296.906 226.095 296.906C224.826 296.907 223.795 297.858 223.795 299.03Z" fill="#D6D6D6"/>
<path d="M274.325 313.324V333.629H177.867V313.324H274.325ZM274.727 312.953H177.465V334H274.727V312.953Z" fill="#D6D6D6"/>
<path d="M223.795 323.475C223.795 324.647 224.825 325.599 226.095 325.599C227.365 325.599 228.396 324.648 228.396 323.475C228.396 322.302 227.366 321.352 226.095 321.352C224.826 321.353 223.795 322.303 223.795 323.475Z" fill="#D6D6D6"/>
<path d="M274.325 337.769V358.074H177.867V337.769H274.325ZM274.727 337.398H177.465V358.445H274.727V337.398Z" fill="#D6D6D6"/>
<path d="M223.795 347.92C223.795 349.093 224.825 350.044 226.095 350.044C227.365 350.044 228.396 349.094 228.396 347.92C228.396 346.747 227.366 345.797 226.095 345.797C224.826 345.797 223.795 346.747 223.795 347.92Z" fill="#D6D6D6"/>
<path d="M163.915 236.461H141.047V368.841H163.915V236.461Z" fill="#D6D6D6"/>
<path d="M159.572 368.842H163.915V357.438H155.018L159.572 368.842Z" fill="#D6D6D6"/>
<path d="M78.4447 236.461H55.5762V368.841H78.4447V236.461Z" fill="#D6D6D6"/>
<path d="M163.914 236.461H74.6543V361.843H163.914V236.461Z" fill="#D6D6D6"/>
<path d="M160.073 240.015V268.402H78.4986V240.015H160.073ZM160.546 239.578H78.0254V268.84H160.546V239.578Z" fill="#D6D6D6"/>
<path d="M160.072 271.851V347.149H121.216V271.851H160.072ZM160.545 271.414H120.742V347.588H160.545V271.414Z" fill="#D6D6D6"/>
<path d="M117.354 271.851V347.149H78.4986V271.851H117.354ZM117.828 271.414H78.0254V347.588H117.828V271.414Z" fill="#D6D6D6"/>
<path d="M78.9973 368.842H74.6543V357.438H83.5515L78.9973 368.842Z" fill="#D6D6D6"/>
<path d="M116.984 254.202C116.984 255.375 118.014 256.325 119.285 256.325C120.555 256.325 121.585 255.375 121.585 254.202C121.585 253.029 120.556 252.078 119.285 252.078C118.014 252.079 116.984 253.029 116.984 254.202Z" fill="#D6D6D6"/>
<path d="M125.221 307.702C125.221 308.874 126.25 309.825 127.521 309.825C128.792 309.825 129.822 308.875 129.822 307.702C129.822 306.529 128.792 305.578 127.521 305.578C126.25 305.578 125.221 306.529 125.221 307.702Z" fill="#D6D6D6"/>
<path d="M108.75 307.702C108.75 308.874 109.78 309.825 111.05 309.825C112.32 309.825 113.351 308.875 113.351 307.702C113.351 306.529 112.321 305.578 111.05 305.578C109.781 305.578 108.75 306.529 108.75 307.702Z" fill="#D6D6D6"/>
<path d="M106.158 199.555H96.5113C96.5113 199.555 98.1857 207.787 98.1857 212.631C98.1857 217.475 90.8474 236.464 101.335 236.464C111.821 236.464 104.484 217.474 104.484 212.631C104.483 207.786 106.158 199.555 106.158 199.555Z" fill="#86B1F2"/>
<path d="M69.4746 219.023V224.809C69.4746 231.219 75.1561 236.464 82.1012 236.464H88.3693C95.3134 236.464 100.995 231.219 100.995 224.809V219.023H69.4746Z" fill="#3F7FDD"/>
<path d="M203.494 272.891C203.494 279.603 211.638 285.095 221.592 285.095H230.577C240.532 285.095 248.676 279.603 248.676 272.891H203.494Z" fill="#D6D6D6"/>
<path d="M441.59 263.068C436.14 267.174 428.619 274.693 421.727 285.271C417.136 292.315 414.37 299.697 413.155 309.448C413.181 298.409 413.218 286.549 413.26 275.355C414.644 272.474 417.806 265.836 420.074 260.59C427.642 243.088 430.461 238.785 437.267 223.689C446.346 203.554 455.648 179.662 452.985 181.572C447.557 185.462 426.756 221.416 424.508 226.562C416.774 244.264 414.62 257.168 413.282 269.62C413.323 259.106 413.368 249.452 413.412 242.004C413.551 217.708 413.999 209.867 414.218 207.448C415.059 206.22 416.053 204.787 416.632 204.016C421.518 197.494 423.402 191.939 428.006 182.212C434.53 168.429 440.148 143.959 438.506 145.193C431.667 150.332 426.272 161.381 419.184 175.459C412.096 189.538 414.122 197.633 412.716 209.657C412.421 212.017 412.195 220.921 412.032 233.262C410.193 220.115 406.744 211.451 400.452 203.578C392.713 193.894 385.226 187.353 379.732 183.936C374.239 180.52 389.218 204.307 396.382 214.69C402.761 223.936 408.637 232.095 411.951 240.13C411.775 256.855 411.694 278.034 411.694 297.749C410.051 288.777 407.367 279.116 403.788 271.635C399.486 262.647 392.869 248.86 387.601 244.184C386.335 243.061 393.109 269.873 397.455 277.003C401.802 284.133 404.993 290.852 407.729 294.894C408.368 295.837 410.485 299.473 411.695 301.564C411.706 325.631 411.839 346.868 412.066 354.097H413.192C413.115 352.232 413.103 339.989 413.127 323.785C415.839 314.987 422.043 304.947 427.162 295.788C432.75 285.788 447.04 258.961 441.59 263.068Z" fill="#96D9C9"/>
<path d="M428.936 368.847H396.34L393.879 339.352H431.397L428.936 368.847Z" fill="#86B1F2"/>
<path d="M433.827 342.787H391.45L390.236 332.836H435.041L433.827 342.787Z" fill="#3F7FDD"/>
<path d="M129.23 72.4766H70.9355V131.564H129.23V72.4766Z" fill="#D6D6D6"/>
<path d="M135.544 72.4766H75.3301V131.564H135.544V72.4766Z" fill="#D6D6D6"/>
<path d="M130.498 126.907V77.1328L80.3732 77.1328V126.907H130.498Z" fill="white"/>
<path d="M118.35 114.845V89.1992H92.5243V114.845H118.35Z" fill="#D6D6D6"/>
<path d="M426.454 79.3633H372.301V134.253H426.454V79.3633Z" fill="#D6D6D6"/>
<path d="M432.319 79.3633H376.383V134.253H432.319V79.3633Z" fill="#D6D6D6"/>
<path d="M427.633 129.93V83.6914L381.069 83.6914V129.93H427.633Z" fill="white"/>
<path d="M404.351 120.217C412.374 120.217 418.878 114.213 418.878 106.808C418.878 99.402 412.374 93.3984 404.351 93.3984C396.328 93.3984 389.824 99.402 389.824 106.808C389.824 114.213 396.328 120.217 404.351 120.217Z" fill="#D6D6D6"/>
<path d="M189.788 107.711H146.545V151.543H189.788V107.711Z" fill="#D6D6D6"/>
<path d="M194.473 107.711H149.805V151.543H194.473V107.711Z" fill="#D6D6D6"/>
<path d="M190.73 148.088V111.164H153.547V148.088H190.73Z" fill="white"/>
<path d="M172.14 120.293L161.971 136.552H182.309L172.14 120.293Z" fill="#D6D6D6"/>
<path d="M260 410.459C371.365 410.459 461.645 405.592 461.645 399.589C461.645 393.585 371.365 388.719 260 388.719C148.635 388.719 58.3555 393.585 58.3555 399.589C58.3555 405.592 148.635 410.459 260 410.459Z" fill="#D6D6D6"/>
<path d="M363.214 156.892L352.899 153.031C352.899 153.031 339.285 175.949 335.386 177.106C330.08 178.681 319.107 183.057 312.586 183.877C311.707 184.825 310.258 187.817 310.396 188.907C319.144 191.6 338.364 188.024 342.478 185.205C351.857 178.774 363.214 156.892 363.214 156.892Z" fill="#FFA89B"/>
<path d="M366.391 151.694C368.309 158.259 357.89 171.447 357.89 171.447L344.201 164.359C344.201 164.359 346.753 158.938 349.878 153.417C354.923 144.502 364.199 144.201 366.391 151.694Z" fill="#FF725E"/>
<path opacity="0.2" d="M366.391 151.694C368.309 158.259 357.89 171.447 357.89 171.447L344.201 164.359C344.201 164.359 346.753 158.938 349.878 153.417C354.923 144.502 364.199 144.201 366.391 151.694Z" fill="black"/>
<path opacity="0.2" d="M349.66 167.18L355.036 169.962L355.976 154.73C352.856 156.95 350.643 163.629 349.66 167.18Z" fill="black"/>
<path d="M357.409 146.747C357.409 146.747 346.781 168.574 352.977 209.221C365.597 209.221 388.718 209.221 394.858 209.221C395.524 203.287 393.323 174.337 401.3 146.375C401.3 146.375 394.205 145.045 387.384 144.741C382.047 144.503 374.31 144.345 369.58 144.742C363.344 145.264 357.409 146.747 357.409 146.747Z" fill="#FF725E"/>
<path opacity="0.2" d="M357.409 146.747C357.409 146.747 346.781 168.574 352.977 209.221C365.597 209.221 388.718 209.221 394.858 209.221C395.524 203.287 393.323 174.337 401.3 146.375C401.3 146.375 394.205 145.045 387.384 144.741C382.047 144.503 374.31 144.345 369.58 144.742C363.344 145.264 357.409 146.747 357.409 146.747Z" fill="black"/>
<path d="M347.696 400.452C347.63 401.483 363.509 402.318 383.162 402.318C402.814 402.318 418.799 401.483 418.865 400.452C418.93 399.421 403.052 398.586 383.399 398.586C363.746 398.585 347.761 399.421 347.696 400.452Z" fill="#D6D6D6"/>
<path d="M376.627 374.553L369.174 377.203L375.565 392.515L383.017 389.864L376.627 374.553Z" fill="#FFA89B"/>
<path d="M408.773 393.075H400.943L398.07 376.336H405.9L408.773 393.075Z" fill="#FFA89B"/>
<path d="M400.439 392.234H409.237C409.557 392.234 409.821 392.44 409.872 392.728L411.011 399.152C411.13 399.818 410.522 400.449 409.783 400.438C406.715 400.389 405.233 400.223 401.365 400.223C398.985 400.223 394.067 400.451 390.78 400.451C387.565 400.451 387.254 397.451 388.618 397.179C394.728 395.961 397.107 394.281 399.14 392.679C399.506 392.39 399.971 392.234 400.439 392.234Z" fill="#434343"/>
<path d="M374.37 389.71L382.711 387.471C383.023 387.388 383.345 387.511 383.483 387.77L386.574 393.526C386.894 394.122 386.516 394.871 385.792 395.053C382.771 395.815 380.74 396.291 376.957 397.305C374.344 398.006 371.685 399.149 369.103 399.909C367.315 400.435 363.117 400.456 360.942 400.456C357.727 400.456 357.011 397.327 358.389 397.184C361.876 396.823 362.344 396.991 364.269 396.1C367.451 394.626 369.913 393.406 372.668 390.742C373.149 390.279 373.711 389.887 374.37 389.71Z" fill="#434343"/>
<path d="M313.906 183.811L305.29 180.465L301.742 189.276C301.742 189.276 306.714 190.108 312.393 189.276L313.906 183.811Z" fill="#FFA89B"/>
<path d="M298.886 180.246L298.658 186.109L301.742 189.273L305.289 180.462L298.886 180.246Z" fill="#FFA89B"/>
<path d="M376.653 374.532L369.199 377.188L372.499 385.078L379.953 382.423L376.653 374.532Z" fill="#FFA89B"/>
<path d="M405.902 376.336H398.068L399.553 384.963H407.387L405.902 376.336Z" fill="#FFA89B"/>
<path opacity="0.2" d="M351.646 198.227C351.796 199.964 351.978 201.739 352.202 203.564L383.345 194.231C388.208 192.889 392.439 190.068 395.325 186.212C395.443 183.647 395.603 180.954 395.838 178.142C395.945 176.771 396.073 175.369 396.213 173.95C396.362 172.47 396.533 170.96 396.725 169.441L351.646 198.227Z" fill="black"/>
<path d="M361.815 166.741L360.754 166.625C361.372 161.834 365.246 158.048 369.338 158.138L369.307 159.125C365.774 159.03 362.37 162.445 361.815 166.741Z" fill="white"/>
<path d="M367.357 175.605C367.299 175.605 367.241 175.604 367.182 175.604L367.213 174.617C370.789 174.738 374.15 171.296 374.705 167L375.766 167.117C375.156 171.839 371.405 175.605 367.357 175.605Z" fill="white"/>
<path d="M386.795 126.238C385.335 131.526 383.6 141.214 387.383 144.742C387.383 144.742 384.741 150.106 374.096 150.106C364.369 150.106 369.579 144.742 369.579 144.742C376.056 143.334 376.17 138.959 375.318 134.85L386.795 126.238Z" fill="#FFA89B"/>
<path d="M382.115 129.75L375.322 134.845C375.527 135.817 375.673 136.803 375.686 137.761C377.672 139.586 381.657 134.963 382.066 132.604C382.268 131.429 382.287 130.298 382.115 129.75Z" fill="#FFA89B"/>
<path d="M363.65 126.173C364.646 127.818 366.402 128.842 368.062 129.183C370.559 129.697 371.814 127.576 371.126 125.442C370.506 123.521 368.46 120.94 365.951 121.382C363.479 121.819 362.511 124.291 363.65 126.173Z" fill="#FFA89B"/>
<path d="M367.771 109.249C363.882 110.894 362.511 125.157 367.401 127.266C372.291 129.374 375.139 106.134 367.771 109.249Z" fill="#434343"/>
<path d="M387.98 118.277C387.05 125.437 386.897 129.651 382.746 133.325C376.502 138.853 367.136 135.575 365.739 128.428C364.482 121.995 366.215 111.366 373.989 108.517C381.648 105.71 388.911 111.118 387.98 118.277Z" fill="#FFA89B"/>
<path d="M375.204 112.958C380.957 111.599 385.192 110.674 383.681 115.107C381.667 121.013 379.252 126.735 382.492 127.002C384.462 127.164 393.199 123.742 392.089 120.282C391.123 117.267 395.184 116.454 395.933 114.917C398.63 109.382 390.924 110.101 392.295 106.751C393.63 103.49 386.087 97.979 381.908 100.672C375.142 105.031 363.515 104.969 369.628 97.8187C374.006 92.698 366.195 93.7492 366.195 93.7492C366.195 93.7492 370.913 96.3326 362.972 100.326C354.554 104.558 362.26 116.014 375.204 112.958Z" fill="#434343"/>
<path d="M390.984 126.173C389.778 127.818 387.893 128.842 386.189 129.183C383.627 129.697 382.642 127.576 383.601 125.442C384.465 123.521 386.838 120.94 389.292 121.382C391.708 121.819 392.361 124.291 390.984 126.173Z" fill="#FFA89B"/>
<path d="M352.977 209.224C352.977 209.224 345.948 267.301 345.399 289.342C344.829 312.269 369.223 383.801 369.223 383.801L381.714 378.958C381.714 378.958 367.17 313.608 369.191 291.091C371.393 266.545 380.507 209.223 380.507 209.223H352.977V209.224Z" fill="#FF725E"/>
<path opacity="0.2" d="M370.446 225.17C364.845 235.903 368.618 257.123 371.653 269.702C372.807 260.823 374.175 251.185 375.479 242.267C375.351 228.554 374.197 217.969 370.446 225.17Z" fill="black"/>
<path d="M381.15 375.195C381.208 375.173 382.631 378.87 382.631 378.87L368.233 384.451L365.965 380.558L381.15 375.195Z" fill="#FF725E"/>
<path d="M367.832 209.223C367.832 209.223 373.21 264.459 376.774 285.153C380.677 307.814 396.009 383.299 396.009 383.299H410.35C410.35 383.299 401.757 309.643 400.133 287.207C398.372 262.856 394.855 209.223 394.855 209.223H367.832Z" fill="#FF725E"/>
<path d="M410.571 379.852C410.633 379.852 411.051 383.552 411.051 383.552H395.287L394.162 379.305L410.571 379.852Z" fill="#FF725E"/>
<path opacity="0.2" d="M405.076 375.477C405.009 375.477 404.951 375.43 404.944 375.367C404.866 374.697 397.117 308.199 395.659 288.041C394.077 266.165 390.896 217.661 390.863 217.174C390.859 217.105 390.915 217.047 390.988 217.043C390.991 217.043 390.995 217.043 390.997 217.043C391.066 217.043 391.127 217.094 391.131 217.159C391.162 217.646 394.343 266.15 395.926 288.023C397.383 308.178 405.131 374.671 405.209 375.34C405.218 375.408 405.165 375.469 405.092 375.476C405.085 375.477 405.08 375.477 405.076 375.477Z" fill="black"/>
<path d="M376.087 120.283C376.05 120.865 375.686 121.339 375.273 121.339C374.86 121.339 374.556 120.866 374.593 120.283C374.629 119.7 374.994 119.227 375.407 119.227C375.82 119.227 376.125 119.7 376.087 120.283Z" fill="#434343"/>
<path d="M368.949 120.283C368.911 120.865 368.547 121.339 368.134 121.339C367.722 121.339 367.417 120.866 367.454 120.283C367.492 119.7 367.856 119.227 368.269 119.227C368.681 119.227 368.986 119.7 368.949 120.283Z" fill="#434343"/>
<path d="M371.199 120.57C371.199 120.57 369.55 123.934 367.865 125.557C368.922 126.519 370.849 126.079 370.849 126.079L371.199 120.57Z" fill="#FF725E"/>
<path d="M371.382 128.526C371.28 128.526 371.201 128.449 371.207 128.355C371.214 128.261 371.302 128.184 371.404 128.184C374.177 128.184 375.584 126.397 375.598 126.378C375.661 126.3 375.777 126.277 375.858 126.329C375.94 126.38 375.958 126.486 375.897 126.566C375.834 126.644 374.353 128.526 371.382 128.526Z" fill="#434343"/>
<path d="M377.358 118.509C377.251 118.548 377.13 118.542 377.031 118.484C375.666 117.691 374.394 118.222 374.382 118.229C374.207 118.312 373.975 118.24 373.897 118.069C373.819 117.898 373.911 117.693 374.1 117.612C374.167 117.582 375.76 116.915 377.453 117.899C377.622 117.998 377.664 118.208 377.547 118.369C377.5 118.435 377.432 118.483 377.358 118.509Z" fill="#434343"/>
<path d="M366.19 116.593C366.139 116.579 366.089 116.555 366.049 116.519C365.903 116.394 365.903 116.178 366.049 116.036C367.5 114.62 369.183 114.836 369.254 114.845C369.452 114.865 369.584 115.047 369.541 115.234C369.498 115.42 369.303 115.549 369.103 115.522C369.047 115.514 367.733 115.36 366.574 116.49C366.471 116.592 366.32 116.627 366.19 116.593Z" fill="#434343"/>
<path d="M405.319 155.822L394.5 153.164C394.5 153.164 383.892 177.268 380.144 178.841C375.045 180.983 362.135 188.39 356.648 191.962C356.343 193.157 356.582 196.34 357.273 197.207C366.603 195.642 384.552 189.273 388.295 186.034C396.829 178.653 405.319 155.822 405.319 155.822Z" fill="#FFA89B"/>
<path d="M397.769 393.502C397.173 393.502 396.622 393.408 396.285 393.134C396.018 392.916 395.908 392.611 395.959 392.229C395.997 391.944 396.168 391.808 396.308 391.745C397.191 391.336 399.634 392.767 399.909 392.932C399.97 392.969 399.999 393.037 399.983 393.105C399.967 393.173 399.908 393.227 399.834 393.243C399.282 393.364 398.493 393.502 397.769 393.502ZM396.701 392.006C396.604 392.006 396.522 392.02 396.458 392.049C396.407 392.073 396.345 392.118 396.329 392.25C396.292 392.523 396.361 392.726 396.541 392.872C396.947 393.205 397.967 393.249 399.312 393.002C398.458 392.529 397.301 392.006 396.701 392.006Z" fill="#FF725E"/>
<path d="M399.791 393.249C399.761 393.249 399.73 393.243 399.703 393.229C398.918 392.822 397.453 391.239 397.67 390.433C397.709 390.287 397.842 390.034 398.289 389.984C398.581 389.951 398.84 390.026 399.065 390.203C399.931 390.89 399.985 392.976 399.987 393.064C399.989 393.126 399.953 393.187 399.894 393.221C399.861 393.24 399.826 393.249 399.791 393.249ZM398.397 390.319C398.37 390.319 398.342 390.322 398.313 390.325C398.071 390.352 398.042 390.455 398.031 390.498C397.902 390.974 398.825 392.171 399.594 392.736C399.541 392.126 399.369 390.91 398.814 390.47C398.686 390.368 398.55 390.319 398.397 390.319Z" fill="#FF725E"/>
<path d="M370.154 392.309C369.389 392.48 368.658 392.531 368.193 392.297C367.896 392.149 367.726 391.902 367.686 391.565C367.662 391.363 367.736 391.187 367.897 391.056C368.735 390.368 372.128 391.108 372.513 391.194C372.588 391.212 372.641 391.271 372.644 391.344C372.647 391.417 372.601 391.485 372.527 391.517C371.898 391.78 371.004 392.119 370.154 392.309ZM368.463 391.168C368.32 391.2 368.208 391.245 368.134 391.306C368.069 391.359 368.045 391.421 368.055 391.509C368.082 391.738 368.19 391.897 368.384 391.995C368.936 392.272 370.218 392.052 371.869 391.415C370.709 391.19 369.193 391.004 368.463 391.168Z" fill="#FF725E"/>
<path d="M372.493 391.521C372.467 391.527 372.441 391.527 372.415 391.524C371.407 391.351 369.254 390.247 369.235 389.421C369.229 389.228 369.328 388.963 369.821 388.805C370.179 388.681 370.547 388.706 370.892 388.863C372.023 389.377 372.614 391.221 372.638 391.298C372.656 391.356 372.64 391.419 372.594 391.466C372.566 391.494 372.53 391.512 372.493 391.521ZM370.033 389.096C369.998 389.104 369.962 389.115 369.924 389.126C369.602 389.23 369.605 389.352 369.605 389.393C369.617 389.888 371.112 390.8 372.167 391.107C371.957 390.577 371.452 389.508 370.711 389.171C370.489 389.069 370.265 389.044 370.033 389.096Z" fill="#FF725E"/>
<path d="M357.529 191.398L346.684 196.006L345.426 198.831L349.434 201.32C349.434 201.32 356.914 200.568 359.045 196.132L357.529 191.398Z" fill="#FFA89B"/>
<path d="M357.99 197.373C357.312 193.654 355.987 191.958 355.975 191.941L357.684 190.758C357.751 190.839 359.322 192.798 360.098 197.046L357.99 197.373Z" fill="#434343"/>
<path d="M359.838 192.757C360.19 193.561 359.625 194.528 358.575 194.92C357.526 195.312 356.391 194.978 356.04 194.174C355.688 193.371 356.253 192.403 357.303 192.011C358.351 191.62 359.487 191.954 359.838 192.757Z" fill="#434343"/>
<path d="M339.355 199.724L340.796 201.071L350.527 197.229L346.683 196.004L339.355 199.724Z" fill="#FFA89B"/>
<path opacity="0.2" d="M381.15 375.195C381.208 375.173 382.631 378.87 382.631 378.87L368.233 384.451L365.965 380.558L381.15 375.195Z" fill="black"/>
<path opacity="0.2" d="M410.571 379.852C410.633 379.852 411.051 383.552 411.051 383.552H395.287L394.162 379.305L410.571 379.852Z" fill="black"/>
<path d="M408.138 153.059C410.999 161.572 399.86 173.2 399.86 173.2L384.418 167.383C384.418 167.383 386.594 161.198 390.734 152.913C395.441 143.496 405.25 144.468 408.138 153.059Z" fill="#FF725E"/>
<path opacity="0.2" d="M408.138 153.059C410.999 161.572 399.86 173.2 399.86 173.2L384.418 167.383C384.418 167.383 386.594 161.198 390.734 152.913C395.441 143.496 405.25 144.468 408.138 153.059Z" fill="black"/>
<path d="M338.638 72.1875H215.919L204.494 308.078H327.213L338.638 72.1875Z" fill="#B95962"/>
<path opacity="0.56" d="M334.974 75.4258H212.255L200.832 311.316H323.551L334.974 75.4258Z" fill="#D6D6D6"/>
<path opacity="0.07" d="M331.31 78.6602H208.592L197.168 314.55H319.887L331.31 78.6602Z" fill="#B95962"/>
<path d="M317.343 181.543H212.597L211.723 199.597H316.469L317.343 181.543Z" fill="white"/>
<path d="M270.209 168.375H213.235L212.844 176.452H269.817L270.209 168.375Z" fill="#A72F3B"/>
<path d="M314.983 230.258H210.236L209.361 248.312H314.108L314.983 230.258Z" fill="white"/>
<path opacity="0.47" d="M295.775 272.68H225.336L224.289 294.317H294.726L295.775 272.68Z" fill="#A72F3B"/>
<path d="M291.064 297.663H220.627C220.594 297.663 220.561 297.649 220.537 297.627C220.515 297.605 220.502 297.574 220.504 297.544L221.552 275.906C221.555 275.845 221.61 275.797 221.675 275.797H292.112C292.146 275.797 292.178 275.81 292.202 275.832C292.225 275.854 292.237 275.885 292.235 275.916L291.187 297.553C291.185 297.615 291.13 297.663 291.064 297.663ZM220.756 297.434H290.945L291.981 276.025H221.792L220.756 297.434Z" fill="white"/>
<path d="M257.897 217.09H210.873L210.482 225.167H257.505L257.897 217.09Z" fill="#A72F3B"/>
<path d="M294.431 123.246C294.169 128.651 292.046 133.643 288.644 137.698C283.505 143.844 275.456 147.84 266.597 147.84C257.737 147.84 250.086 143.844 245.543 137.698C242.533 133.643 240.894 128.652 241.156 123.246C241.814 109.662 254.274 98.6523 268.979 98.6523C283.695 98.6514 295.088 109.662 294.431 123.246Z" fill="white"/>
<path d="M296.937 103.8C296.867 105.237 296.304 106.563 295.399 107.64C294.033 109.273 291.895 110.335 289.541 110.335C287.186 110.335 285.154 109.273 283.947 107.64C283.147 106.563 282.711 105.237 282.781 103.8C282.955 100.191 286.267 97.2656 290.174 97.2656C294.084 97.2656 297.112 100.191 296.937 103.8Z" fill="#A72F3B"/>
<path d="M223.877 190.568C223.8 192.166 222.333 193.461 220.603 193.461C218.872 193.461 217.532 192.166 217.609 190.568C217.686 188.971 219.152 187.676 220.883 187.676C222.614 187.675 223.955 188.971 223.877 190.568Z" fill="#434343"/>
<path d="M237.902 190.568C237.825 192.166 236.359 193.461 234.628 193.461C232.898 193.461 231.557 192.166 231.634 190.568C231.711 188.971 233.177 187.676 234.908 187.676C236.638 187.676 237.98 188.971 237.902 190.568Z" fill="#434343"/>
<path d="M251.929 190.568C251.852 192.166 250.386 193.461 248.656 193.461C246.925 193.461 245.584 192.166 245.661 190.568C245.738 188.971 247.205 187.676 248.935 187.676C250.666 187.675 252.006 188.971 251.929 190.568Z" fill="#434343"/>
<path d="M221.517 239.284C221.44 240.881 219.974 242.177 218.243 242.177C216.513 242.177 215.172 240.881 215.249 239.284C215.326 237.687 216.793 236.391 218.523 236.391C220.254 236.392 221.594 237.687 221.517 239.284Z" fill="#434343"/>
<path d="M235.545 239.284C235.468 240.881 234.001 242.177 232.271 242.177C230.54 242.177 229.2 240.881 229.277 239.284C229.354 237.687 230.82 236.391 232.551 236.391C234.282 236.392 235.622 237.687 235.545 239.284Z" fill="#434343"/>
<path d="M249.57 239.284C249.493 240.881 248.027 242.177 246.296 242.177C244.566 242.177 243.225 240.881 243.302 239.284C243.379 237.687 244.845 236.391 246.576 236.391C248.306 236.391 249.648 237.687 249.57 239.284Z" fill="#434343"/>
<path d="M263.597 239.284C263.52 240.881 262.054 242.177 260.323 242.177C258.593 242.177 257.252 240.881 257.329 239.284C257.406 237.687 258.873 236.391 260.603 236.391C262.334 236.392 263.674 237.687 263.597 239.284Z" fill="#434343"/>
<path d="M277.625 239.284C277.548 240.881 276.081 242.177 274.351 242.177C272.62 242.177 271.28 240.881 271.357 239.284C271.434 237.687 272.9 236.391 274.631 236.391C276.361 236.392 277.702 237.687 277.625 239.284Z" fill="#434343"/>
<path d="M278.967 115.025C278.701 120.518 273.661 124.971 267.709 124.971C261.758 124.971 257.149 120.518 257.415 115.025C257.682 109.531 262.721 105.078 268.673 105.078C274.624 105.078 279.233 109.532 278.967 115.025Z" fill="#A72F3B"/>
<path d="M288.644 137.696C283.505 143.842 275.456 147.837 266.597 147.837C257.737 147.837 250.086 143.842 245.543 137.696C250.598 133.049 258.6 130.031 267.46 130.031C276.329 130.031 284.039 133.049 288.644 137.696Z" fill="#A72F3B"/>
<path opacity="0.1" d="M278.967 115.025C278.701 120.518 273.661 124.971 267.709 124.971C261.758 124.971 257.149 120.518 257.415 115.025C257.682 109.531 262.721 105.078 268.673 105.078C274.624 105.078 279.233 109.532 278.967 115.025Z" fill="white"/>
<path opacity="0.1" d="M288.644 137.696C283.505 143.842 275.456 147.837 266.597 147.837C257.737 147.837 250.086 143.842 245.543 137.696C250.598 133.049 258.6 130.031 267.46 130.031C276.329 130.031 284.039 133.049 288.644 137.696Z" fill="white"/>
<path d="M135.623 203.947C134.638 205.941 133.602 208.135 132.692 210.274C131.774 212.434 130.859 214.596 130.061 216.789C128.512 221.174 127.059 225.6 126.343 230.038L126.106 231.451C126.088 231.621 126.101 231.863 126.182 232.166C126.334 232.776 126.746 233.592 127.325 234.393C128.496 236.012 130.156 237.652 131.946 239.174C133.732 240.721 135.671 242.2 137.687 243.605C139.682 245.022 141.787 246.409 143.847 247.709L141.908 251.077C136.96 249.081 132.351 246.693 127.888 243.697C125.693 242.153 123.526 240.491 121.606 238.245C120.66 237.112 119.729 235.833 119.12 234.143C118.824 233.3 118.618 232.347 118.617 231.316C118.624 231.079 118.638 230.746 118.656 230.586L118.707 230.109L118.811 229.155C119.376 224.066 120.597 219.175 122.206 214.43C123.017 212.061 123.883 209.716 124.871 207.415C125.88 205.098 126.875 202.875 128.136 200.543L135.623 203.947Z" fill="#FFA89B"/>
<path d="M142.39 247.137L149.739 243.695L147.841 251.151C147.841 251.151 142.795 252.451 140.447 250.192L142.39 247.137Z" fill="#FFA89B"/>
<path d="M156.469 244.919L154.514 251.083L147.84 251.152L149.739 243.695L156.469 244.919Z" fill="#FFA89B"/>
<path d="M166.85 168.004C166.85 168.004 167.487 170.168 168.498 171.799C167.63 172.548 166.85 172.287 166.85 172.287V168.004Z" fill="#FF725E"/>
<path d="M166.632 168.06C167.063 168.06 167.411 167.567 167.411 166.96C167.411 166.352 167.063 165.859 166.632 165.859C166.202 165.859 165.854 166.352 165.854 166.96C165.854 167.567 166.202 168.06 166.632 168.06Z" fill="#434343"/>
<path d="M166.441 165.893L168.022 165.473C168.022 165.473 167.211 166.613 166.441 165.893Z" fill="#434343"/>
<path d="M146.532 175.043C147.482 179.512 148.429 187.701 145.041 190.682C145.041 190.682 146.365 195.215 155.361 195.215C165.253 195.215 160.089 190.682 160.089 190.682C154.69 189.492 154.83 185.795 155.77 182.323L146.532 175.043Z" fill="#FFA89B"/>
<path d="M143.907 164.872C144.403 172.334 144.441 175.501 148.524 179.33C154.664 185.09 164.482 182.895 166.412 175.449C168.147 168.745 167.044 157.671 159.133 154.701C151.337 151.776 143.41 157.411 143.907 164.872Z" fill="#FFA89B"/>
<path d="M144.704 156.43C140.651 157.794 135.244 156.78 137.366 168.327C139.612 180.555 136.154 184.577 136.154 184.577C136.154 184.577 151.538 187.602 167.242 184.397C167.242 184.397 162.448 176.657 163.793 171.01C165.509 163.807 164.149 161.145 164.149 161.145C164.149 161.145 150.403 154.512 144.704 156.43Z" fill="#434343"/>
<path d="M161.866 168.763C161.849 170.241 162.411 171.73 163.139 172.764C164.234 174.32 165.534 173.687 165.859 172.071C166.152 170.617 165.935 168.056 164.532 167.063C163.151 166.085 161.885 167.073 161.866 168.763Z" fill="#FFA89B"/>
<path d="M141.184 157.738C140.014 154.719 145.572 150.075 157.322 152.007C169.072 153.938 169.588 162.958 169.588 162.958L167.21 160.354L167.317 163.097L155.242 165.238L141.184 157.738Z" fill="#434343"/>
<path d="M142.18 191.192C142.018 190.27 142.69 189.401 143.688 189.249C147.347 188.691 155.663 187.562 159.849 188.097C162.959 188.495 163.781 190.171 163.912 191.542C164.01 192.558 163.099 193.416 161.994 193.369L143.91 192.615C143.042 192.578 142.319 191.985 142.18 191.192Z" fill="#FF725E"/>
<path opacity="0.6" d="M142.18 191.192C142.018 190.27 142.69 189.401 143.688 189.249C147.347 188.691 155.663 187.562 159.849 188.097C162.959 188.495 163.781 190.171 163.912 191.542C164.01 192.558 163.099 193.416 161.994 193.369L143.91 192.615C143.042 192.578 142.319 191.985 142.18 191.192Z" fill="black"/>
<path d="M152.631 358.908L159.334 363.203L170.557 349.162L163.855 344.867L152.631 358.908Z" fill="#FFA89B"/>
<path d="M136.984 358.623L144.075 362.35L154.008 347.5L146.918 343.773L136.984 358.623Z" fill="#FFA89B"/>
<path d="M170.551 349.172L164.767 356.41L158.062 352.113L163.846 344.875L170.551 349.172Z" fill="#FFA89B"/>
<path d="M146.913 343.781L154.006 347.51L148.882 355.163L141.789 351.434L146.913 343.781Z" fill="#FFA89B"/>
<path d="M158.286 238.07C158.286 238.07 184.473 268.536 179.56 297.669C175.591 321.201 152.61 353.064 152.61 353.064L141.805 348.106C141.805 348.106 153.545 326.931 161.255 304.483C164.488 295.069 163.11 284.698 157.066 276.55C143.801 258.665 122.548 269.307 136.844 238.071L158.286 238.07Z" fill="#FF725E"/>
<path opacity="0.6" d="M158.286 238.07C158.286 238.07 184.473 268.536 179.56 297.669C175.591 321.201 152.61 353.064 152.61 353.064L141.805 348.106C141.805 348.106 153.545 326.931 161.255 304.483C164.488 295.069 163.11 284.698 157.066 276.55C143.801 258.665 122.548 269.307 136.844 238.071L158.286 238.07Z" fill="black"/>
<path opacity="0.4" d="M171.13 257.649L167.326 254.156C167.326 254.433 174.701 296.448 176.774 308.256C178.024 304.636 178.986 301.065 179.563 297.671C181.967 283.406 176.912 268.816 171.13 257.649Z" fill="black"/>
<path d="M169.982 238.071C169.982 238.071 201.514 276.356 202.401 299.314C203.145 318.551 168.055 355.71 168.055 355.71L157.868 349.626C157.868 349.626 178.387 323.21 183.552 301.616C181.583 280.241 139.309 238.07 139.309 238.07H169.982V238.071Z" fill="#FF725E"/>
<path opacity="0.6" d="M169.982 238.071C169.982 238.071 201.514 276.356 202.401 299.314C203.145 318.551 168.055 355.71 168.055 355.71L157.868 349.626C157.868 349.626 178.387 323.21 183.552 301.616C181.583 280.241 139.309 238.07 139.309 238.07H169.982V238.071Z" fill="black"/>
<path d="M130.971 192.393C127.594 193.129 124.367 204.444 124.367 204.444L137.537 212.559C137.537 212.559 141.926 203.616 140.394 199.698C138.797 195.618 135.235 191.465 130.971 192.393Z" fill="#FF725E"/>
<path opacity="0.2" d="M133.547 199.676L132.627 209.534L137.53 212.563C137.53 212.563 139.827 207.877 140.511 203.793L133.547 199.676Z" fill="black"/>
<path d="M173.881 192.614C173.881 192.614 177.768 193.878 169.982 238.071C156.832 238.071 143.243 238.071 136.845 238.071C137.401 225.622 137.417 217.945 130.971 192.397C130.971 192.397 137.914 191.003 145.042 190.685C150.618 190.437 155.187 190.272 160.09 190.686C166.552 191.23 173.881 192.614 173.881 192.614Z" fill="#FF725E"/>
<path d="M177.246 199.632C177.997 201.547 178.791 203.619 179.618 205.608C180.411 207.627 181.235 209.642 182.085 211.648L184.635 217.678L185.28 219.185L185.603 219.939L185.765 220.315C185.793 220.382 185.788 220.377 185.778 220.37C185.733 220.352 185.695 220.162 185.05 219.771C184.734 219.589 184.203 219.415 183.692 219.405C183.177 219.388 182.769 219.504 182.535 219.598C182.066 219.805 182.059 219.894 182.069 219.879C182.099 219.865 182.196 219.78 182.302 219.661C182.757 219.157 183.306 218.289 183.787 217.425C184.279 216.544 184.744 215.604 185.207 214.649C186.127 212.736 186.964 210.739 187.816 208.74C188.659 206.734 189.452 204.699 190.238 202.658L192.605 196.531L196.613 197.463C195.82 201.846 194.795 206.138 193.573 210.445C192.976 212.604 192.285 214.743 191.496 216.903C191.103 217.985 190.663 219.064 190.157 220.165C189.632 221.273 189.111 222.367 188.181 223.637C187.937 223.958 187.66 224.298 187.274 224.673C186.867 225.041 186.396 225.487 185.379 225.908C184.874 226.109 184.171 226.286 183.36 226.257C182.552 226.236 181.732 225.971 181.165 225.646C180.013 224.966 179.615 224.319 179.274 223.834C179.116 223.59 178.98 223.338 178.887 223.157L178.689 222.784L178.294 222.039L177.508 220.549C176.48 218.551 175.473 216.542 174.52 214.512C173.575 212.477 172.655 210.43 171.763 208.368C170.909 206.274 170.064 204.246 169.312 202.019L177.246 199.632Z" fill="#FFA89B"/>
<path d="M173.882 192.612C177.865 193.488 182.34 204.351 182.34 204.351L170.503 213.662C170.503 213.662 162.831 201.817 164.383 197.906C165.999 193.833 168.678 191.468 173.882 192.612Z" fill="#FF725E"/>
<path d="M194.456 193.141L198.611 189.934L201.501 194.089L199.372 197.56C199.372 197.56 195.982 200.424 192.98 198.967C192.011 196.939 192.613 194.564 194.456 193.141Z" fill="#FFA89B"/>
<path d="M206.151 189.943L205.84 190.989L199.258 192.009L198.609 189.934L206.151 189.943Z" fill="#FFA89B"/>
<path d="M168.897 356.215L157.021 349.125L159.148 345.711L172.495 353.284L168.897 356.215Z" fill="#FF725E"/>
<path d="M148.703 361.849C147.759 361.849 146.516 361.296 145.763 360.91C145.695 360.876 145.657 360.808 145.665 360.736C145.672 360.665 145.726 360.606 145.798 360.583C146.119 360.49 148.936 359.693 149.734 360.311C149.86 360.409 150 360.59 149.955 360.89C149.897 361.288 149.699 361.57 149.369 361.721C149.177 361.81 148.951 361.849 148.703 361.849ZM146.364 360.802C147.656 361.408 148.696 361.632 149.196 361.403C149.409 361.305 149.532 361.121 149.574 360.842C149.595 360.691 149.538 360.625 149.485 360.585C149.066 360.259 147.504 360.513 146.364 360.802Z" fill="#434343"/>
<path d="M145.857 360.936C145.805 360.936 145.755 360.917 145.718 360.883C145.67 360.837 145.653 360.771 145.671 360.71C145.698 360.621 146.347 358.536 147.415 358.061C147.7 357.935 147.99 357.929 148.272 358.037C148.722 358.212 148.766 358.515 148.751 358.679C148.678 359.542 146.772 360.735 145.902 360.931C145.888 360.934 145.872 360.936 145.857 360.936ZM147.872 358.318C147.776 358.318 147.68 358.341 147.582 358.384C146.945 358.667 146.411 359.792 146.155 360.477C147.07 360.121 148.319 359.179 148.364 358.653C148.371 358.567 148.35 358.456 148.121 358.367C148.038 358.335 147.955 358.318 147.872 358.318Z" fill="#434343"/>
<path d="M163.558 365.998C162.387 365.998 160.755 364.609 159.861 363.756C159.804 363.701 159.79 363.619 159.827 363.551C159.864 363.484 159.958 363.446 160.024 363.454C160.436 363.503 164.053 363.955 164.564 364.897C164.662 365.08 164.654 365.274 164.54 365.459C164.349 365.77 164.071 365.948 163.716 365.99C163.666 365.995 163.612 365.998 163.558 365.998ZM160.546 363.884C161.86 365.063 163.008 365.716 163.669 365.635C163.899 365.608 164.074 365.493 164.204 365.282C164.254 365.202 164.258 365.13 164.218 365.057C163.94 364.544 162.009 364.101 160.546 363.884Z" fill="#434343"/>
<path d="M160.66 363.855C160.392 363.855 160.153 363.84 159.965 363.807C159.898 363.795 159.842 363.752 159.818 363.694C159.795 363.634 159.807 363.567 159.85 363.518C159.91 363.452 161.317 361.886 162.646 361.778C163.062 361.749 163.414 361.85 163.716 362.089C164.125 362.412 164.097 362.7 164.001 362.884C163.671 363.524 161.874 363.855 160.66 363.855ZM160.391 363.495C161.553 363.554 163.41 363.198 163.653 362.731C163.673 362.691 163.735 362.572 163.465 362.36C163.241 362.183 162.981 362.109 162.68 362.134C161.808 362.205 160.833 363.059 160.391 363.495Z" fill="#434343"/>
<path d="M146.141 359.92L137.32 357.618C136.998 357.535 136.675 357.672 136.542 357.949L133.564 364.129C133.255 364.77 133.684 365.565 134.428 365.746C137.518 366.5 139.051 366.72 142.93 367.733C145.317 368.356 148.734 369.494 152.029 370.353C155.252 371.194 156.421 368.251 155.133 367.62C149.353 364.793 148.898 362.855 147.317 360.707C147.032 360.32 146.611 360.043 146.141 359.92Z" fill="#FF725E"/>
<path d="M160.102 362.633L152.573 357.808C152.298 357.632 151.945 357.665 151.72 357.887L146.726 362.837C146.208 363.351 146.334 364.231 146.973 364.625C149.63 366.266 151.002 366.934 154.314 369.057C156.351 370.362 160.417 373.258 163.231 375.061C165.982 376.824 168.125 374.392 167.129 373.408C162.661 369 161.675 366.237 160.937 363.731C160.803 363.28 160.503 362.89 160.102 362.633Z" fill="#FF725E"/>
<path d="M153.997 353.699L140.418 347.47L141.824 344.078L156.317 350.636L153.997 353.699Z" fill="#FF725E"/>
<path d="M136.348 236.276L135.199 239.014C135.083 239.226 135.355 239.443 135.739 239.443H170.145C170.444 239.443 170.691 239.308 170.71 239.135L171.008 236.397C171.029 236.207 170.77 236.047 170.444 236.047H136.887C136.642 236.047 136.423 236.14 136.348 236.276Z" fill="#FF725E"/>
<path opacity="0.4" d="M136.348 236.276L135.199 239.014C135.083 239.226 135.355 239.443 135.739 239.443H170.145C170.444 239.443 170.691 239.308 170.71 239.135L171.008 236.397C171.029 236.207 170.77 236.047 170.444 236.047H136.887C136.642 236.047 136.423 236.14 136.348 236.276Z" fill="white"/>
<path d="M141.759 239.74H140.86C140.681 239.74 140.545 239.654 140.557 239.551L140.979 235.994C140.991 235.89 141.147 235.805 141.327 235.805H142.226C142.404 235.805 142.541 235.89 142.528 235.994L142.107 239.551C142.095 239.655 141.938 239.74 141.759 239.74Z" fill="#FF725E"/>
<path d="M162.981 239.74H162.083C161.904 239.74 161.768 239.654 161.78 239.551L162.201 235.994C162.214 235.89 162.37 235.805 162.55 235.805H163.448C163.627 235.805 163.763 235.89 163.751 235.994L163.33 239.551C163.317 239.655 163.16 239.74 162.981 239.74Z" fill="#FF725E"/>
<path d="M140.968 402.326C156.356 402.326 168.831 401.491 168.831 400.46C168.831 399.429 156.356 398.594 140.968 398.594C125.58 398.594 113.105 399.429 113.105 400.46C113.105 401.491 125.58 402.326 140.968 402.326Z" fill="#D6D6D6"/>
<path d="M157.949 397.826C153.019 396.505 147.594 394.803 144.237 392.993C144.143 392.944 144.044 392.907 143.95 392.861V372.289H153.865C155.505 372.289 156.834 371.062 156.834 369.548C156.834 368.035 155.505 366.809 153.865 366.809H143.95V272.898H138.012V366.809H128.097C126.458 366.809 125.129 368.035 125.129 369.548C125.129 371.062 126.458 372.289 128.097 372.289H138.012V392.86C137.918 392.906 137.819 392.942 137.725 392.993C134.368 394.802 128.942 396.504 124.013 397.825C122.396 398.258 122.737 400.457 124.42 400.457H140.98H157.54C159.225 400.458 159.566 398.259 157.949 397.826Z" fill="#3F7FDD"/>
<path d="M159.474 283.439H122.487C119.524 283.439 117.1 281.202 117.1 278.467V268.317C117.1 265.582 119.524 263.344 122.487 263.344H159.474C162.437 263.344 164.862 265.582 164.862 268.317V278.467C164.862 281.202 162.437 283.439 159.474 283.439Z" fill="#3F7FDD"/>
<path d="M122.146 283.438V285.185C122.146 286.625 123.845 287.804 125.92 287.804H156.041C158.116 287.804 159.814 286.626 159.814 285.185V283.438H122.146Z" fill="#86B1F2"/>
<path opacity="0.3" d="M122.146 283.438V285.185C122.146 286.625 123.845 287.804 125.92 287.804H156.041C158.116 287.804 159.814 286.626 159.814 285.185V283.438H122.146Z" fill="#86B1F2"/>
</svg>
