<svg width="520" height="512" viewBox="0 0 520 512" fill="none" xmlns="http://www.w3.org/2000/svg">
<path d="M498.088 346.485C447.648 461.949 313.29 526.633 196.774 509.185C177.814 506.345 125.836 497.888 79.8167 457.989C-8.77377 381.179 -27.7194 229.087 43.7437 121.904C95.7563 43.8934 188.994 -0.328192 277.589 1.8839C296.672 2.36036 369.807 5.29676 434.08 56.8222C443.52 64.3903 464.342 82.3741 483.107 110.904C527.172 177.898 530.959 271.236 498.088 346.485Z" fill="#F0F0F0"/>
<g opacity="0.3">
<path d="M320.933 77.2304C319.903 77.1897 319.103 76.3445 319.146 75.344C319.227 73.3998 319.224 71.4231 319.135 69.4688C319.09 68.4801 319.868 67.6414 320.879 67.579C320.891 67.5782 320.903 67.5775 320.916 67.5768C321.945 67.5323 322.816 68.3077 322.862 69.3085C322.955 71.3655 322.959 73.4463 322.873 75.4931C322.834 76.429 322.07 77.1702 321.13 77.2282C321.065 77.2321 320.999 77.2334 320.933 77.2304ZM318.029 59.9859C317.667 58.0627 317.217 56.1364 316.691 54.2587C316.42 53.2931 317.006 52.2958 318 52.0321C318.998 51.771 320.019 52.3391 320.29 53.3054C320.844 55.2806 321.318 57.3084 321.699 59.3319C321.885 60.317 321.213 61.2622 320.2 61.4425C320.127 61.4555 320.053 61.4643 319.98 61.4687C319.05 61.5264 318.202 60.8994 318.029 59.9859ZM313.458 45.2526C312.667 43.461 311.786 41.6811 310.839 39.9615C310.353 39.0787 310.695 37.9794 311.603 37.5066C312.511 37.0353 313.641 37.3667 314.128 38.2495C315.125 40.0604 316.053 41.9352 316.886 43.8216C317.292 44.742 316.854 45.8082 315.908 46.2037C315.706 46.2878 315.498 46.3348 315.29 46.3477C314.526 46.3948 313.778 45.9768 313.458 45.2526ZM305.613 31.8835C304.428 30.3071 303.159 28.7628 301.842 27.2924C301.165 26.5371 301.246 25.3914 302.023 24.7337C302.8 24.0768 303.978 24.1559 304.655 24.9098C306.042 26.4581 307.378 28.0843 308.625 29.7428C309.233 30.5515 309.051 31.6861 308.219 32.277C307.922 32.4883 307.581 32.6018 307.239 32.6229C306.624 32.6607 306.003 32.4024 305.613 31.8835ZM294.899 20.5467C293.388 19.2687 291.798 18.0352 290.175 16.8818C289.344 16.29 289.163 15.1555 289.771 14.3471C290.379 13.5379 291.546 13.3622 292.377 13.9542C294.085 15.1676 295.757 16.4655 297.347 17.8105C298.125 18.4674 298.207 19.6129 297.53 20.3686C297.19 20.7496 296.722 20.9588 296.241 20.9883C295.769 21.0177 295.285 20.8728 294.899 20.5467ZM281.872 11.7973C280.105 10.8744 278.275 10.0142 276.433 9.2399C275.488 8.84258 275.052 7.7749 275.461 6.85595C275.87 5.93627 276.967 5.51306 277.913 5.91038C279.852 6.72486 281.778 7.63096 283.638 8.60205C284.546 9.07631 284.886 10.1754 284.399 11.058C284.082 11.6312 283.494 11.9712 282.872 12.0096C282.536 12.0303 282.191 11.9637 281.872 11.7973ZM212.61 10.9529C212.126 10.0694 212.469 8.97073 213.379 8.49941C215.241 7.53419 217.172 6.63489 219.117 5.82702C220.065 5.43356 221.161 5.86136 221.565 6.78251C221.97 7.70293 221.53 8.76858 220.583 9.16205C218.735 9.92916 216.902 10.7833 215.134 11.7C214.891 11.8258 214.633 11.8941 214.375 11.9101C213.668 11.9538 212.966 11.6011 212.61 10.9529ZM267.184 6.07618C265.251 5.55877 263.271 5.11665 261.299 4.76266C260.286 4.58034 259.617 3.63421 259.804 2.64953C259.991 1.66412 260.964 1.01856 261.977 1.19592C264.054 1.56901 266.139 2.03446 268.174 2.57958C269.167 2.84544 269.751 3.84371 269.477 4.80966C269.261 5.57549 268.57 6.09087 267.797 6.13842C267.596 6.15091 267.389 6.13089 267.184 6.07618ZM227.567 4.75899C227.298 3.79249 227.887 2.79642 228.881 2.53496C230.918 1.99975 233.006 1.54294 235.086 1.17609C236.1 0.992855 237.07 1.652 237.254 2.63723C237.438 3.62247 236.765 4.5662 235.752 4.74522C233.775 5.0937 231.79 5.52775 229.855 6.0367C229.731 6.0692 229.607 6.08812 229.484 6.09583C228.618 6.14926 227.802 5.60541 227.567 4.75899ZM251.552 3.69058C249.549 3.60686 247.517 3.60594 245.511 3.68856C244.481 3.73152 243.612 2.95469 243.568 1.95367C243.525 0.966051 244.303 0.129536 245.313 0.0671099C245.326 0.0663755 245.339 0.065457 245.352 0.065457C247.465 -0.0223068 249.604 -0.0215728 251.712 0.066191C252.741 0.109889 253.539 0.955582 253.495 1.95642C253.454 2.89098 252.692 3.62999 251.752 3.68801C251.686 3.69223 251.619 3.69279 251.552 3.69058Z" fill="#86B1F2"/>
<path d="M203.423 18.8959C203.789 18.8733 204.153 18.7459 204.463 18.5066C205.216 17.925 205.994 17.3495 206.775 16.7945C207.608 16.2044 207.79 15.0695 207.183 14.2609C206.576 13.4516 205.408 13.2731 204.576 13.8652C203.754 14.4484 202.936 15.0539 202.143 15.6657C201.336 16.2883 201.201 17.4294 201.842 18.2134C202.237 18.6972 202.834 18.9322 203.423 18.8959Z" fill="#86B1F2"/>
</g>
<g opacity="0.3">
<path d="M176.228 67.4579C177.126 67.4025 177.876 66.7202 177.965 65.8211C178.056 64.8905 178.17 63.9459 178.301 63.0143C178.442 62.0219 177.728 61.1068 176.708 60.9704C175.683 60.8334 174.746 61.528 174.605 62.5198C174.467 63.5006 174.347 64.4954 174.251 65.4753C174.153 66.4723 174.904 67.3578 175.93 67.4535C176.031 67.4629 176.13 67.464 176.228 67.4579Z" fill="#86B1F2"/>
<path d="M249.401 144.885C248.371 144.9 247.524 144.099 247.509 143.097C247.495 142.096 248.317 141.274 249.348 141.258C251.309 141.231 253.299 141.122 255.286 140.934C256.306 140.834 257.224 141.567 257.323 142.563C257.423 143.56 256.673 144.447 255.647 144.544C254.786 144.626 253.927 144.693 253.071 144.746C251.849 144.821 250.614 144.868 249.401 144.885ZM263.43 141.575C263.192 140.601 263.812 139.624 264.815 139.393C266.739 138.949 268.665 138.422 270.539 137.826C271.516 137.511 272.572 138.032 272.892 138.984C273.213 139.935 272.679 140.96 271.701 141.272C269.728 141.9 267.7 142.455 265.675 142.922C265.57 142.946 265.465 142.961 265.361 142.967C264.47 143.022 263.643 142.448 263.43 141.575ZM239.251 144.35C237.192 144.103 235.114 143.767 233.078 143.351C232.07 143.144 231.424 142.183 231.636 141.202C231.848 140.222 232.837 139.596 233.845 139.801C235.78 140.197 237.752 140.516 239.708 140.75C240.73 140.873 241.457 141.778 241.331 142.772C241.219 143.652 240.477 144.306 239.6 144.36C239.486 144.367 239.369 144.364 239.251 144.35ZM278.629 136.722C278.177 135.822 278.561 134.736 279.487 134.297C281.261 133.455 283.02 132.529 284.714 131.545C285.599 131.03 286.743 131.311 287.272 132.171C287.8 133.031 287.512 134.144 286.628 134.658C284.844 135.694 282.992 136.669 281.123 137.556C280.897 137.663 280.66 137.723 280.424 137.737C279.692 137.782 278.97 137.402 278.629 136.722ZM223.305 140.659C221.353 139.978 219.404 139.206 217.511 138.364C216.574 137.948 216.161 136.873 216.589 135.962C217.017 135.05 218.125 134.65 219.061 135.066C220.86 135.865 222.711 136.598 224.565 137.244C225.535 137.583 226.039 138.622 225.691 139.564C225.431 140.267 224.772 140.718 224.052 140.762C223.806 140.777 223.552 140.745 223.305 140.659ZM208.578 133.657C206.822 132.575 205.093 131.408 203.438 130.189C202.617 129.584 202.455 128.447 203.077 127.648C203.7 126.849 204.87 126.692 205.69 127.298C207.263 128.456 208.907 129.565 210.575 130.593C211.446 131.129 211.704 132.25 211.152 133.096C210.82 133.606 210.269 133.899 209.694 133.935C209.314 133.958 208.924 133.869 208.578 133.657ZM195.77 123.7C194.298 122.272 192.871 120.766 191.529 119.227C190.863 118.462 190.961 117.319 191.746 116.671C192.533 116.023 193.709 116.118 194.375 116.882C195.65 118.345 197.006 119.775 198.406 121.133C199.135 121.84 199.136 122.989 198.409 123.697C198.074 124.023 197.645 124.199 197.207 124.226C196.691 124.258 196.165 124.083 195.77 123.7ZM185.502 111.265C184.386 109.558 183.332 107.785 182.371 105.994C181.893 105.107 182.247 104.011 183.16 103.547C184.072 103.084 185.2 103.428 185.677 104.315C186.59 106.015 187.591 107.699 188.651 109.32C189.203 110.166 188.946 111.286 188.077 111.823C187.802 111.993 187.5 112.084 187.196 112.102C186.539 112.143 185.88 111.844 185.502 111.265ZM178.291 96.9326C177.591 95.033 176.966 93.0791 176.432 91.1246C176.168 90.1564 176.761 89.163 177.757 88.9063C178.749 88.6505 179.774 89.2256 180.038 90.1937C180.545 92.0505 181.139 93.9062 181.803 95.7107C182.15 96.6532 181.646 97.6917 180.676 98.0289C180.507 98.0877 180.335 98.1217 180.165 98.1323C179.356 98.1822 178.577 97.7113 178.291 96.9326ZM174.497 81.4267C174.307 79.9514 174.162 78.4519 174.065 76.9709C174.03 76.4345 174.001 75.8996 173.978 75.3649C173.936 74.3647 174.721 73.5006 175.764 73.4782C176.793 73.436 177.663 74.2136 177.706 75.2146C177.728 75.7222 177.755 76.2316 177.788 76.7413C177.88 78.1495 178.018 79.5741 178.198 80.977C178.326 81.9707 177.601 82.877 176.579 83.0013C176.54 83.0057 176.502 83.0096 176.464 83.012C175.488 83.072 174.619 82.3831 174.497 81.4267Z" fill="#86B1F2"/>
<path d="M293.965 129.382C294.335 129.359 294.702 129.23 295.013 128.987C295.801 128.373 296.59 127.731 297.359 127.079C298.135 126.42 298.216 125.275 297.539 124.52C296.861 123.766 295.684 123.686 294.907 124.345C294.176 124.965 293.427 125.575 292.679 126.158C291.875 126.784 291.746 127.925 292.391 128.707C292.786 129.186 293.38 129.418 293.965 129.382Z" fill="#86B1F2"/>
</g>
<path d="M297.491 98.4698C297.708 98.1755 297.709 97.7806 297.493 97.4857L291.348 89.0758C293.237 84.6217 294.408 79.843 294.743 74.8961L304.067 69.9861C304.394 69.8139 304.573 69.4588 304.512 69.102L302.43 56.8951C302.369 56.5384 302.082 56.2582 301.715 56.198L291.26 54.4771C289.3 49.8999 286.605 45.7444 283.339 42.1216L286.363 32.2337C286.469 31.8871 286.337 31.5132 286.034 31.3028L275.683 24.1025C275.381 23.8921 274.974 23.8914 274.671 24.1009L266.021 30.0752C261.44 28.2392 256.524 27.1001 251.436 26.7745L246.386 17.7095C246.208 17.3915 245.843 17.2178 245.476 17.2771L232.92 19.3014C232.553 19.3607 232.266 19.6396 232.203 19.9962L230.433 30.161C225.725 32.0661 221.451 34.6867 217.725 37.8622L207.554 34.9221C207.198 34.8191 206.813 34.947 206.597 35.2414L199.19 45.3044C198.974 45.5984 198.973 45.9937 199.189 46.2884L205.334 54.6983C203.445 59.1522 202.274 63.9309 201.939 68.878L192.615 73.788C192.288 73.9601 192.109 74.3152 192.17 74.6719L194.252 86.8792C194.313 87.2359 194.6 87.5157 194.967 87.5761L205.422 89.2972C207.382 93.8744 210.077 98.0298 213.343 101.653L210.319 111.541C210.213 111.887 210.345 112.261 210.648 112.471L220.999 119.672C221.301 119.882 221.708 119.883 222.011 119.673L230.661 113.699C235.242 115.535 240.158 116.674 245.246 117L250.297 126.065C250.474 126.382 250.839 126.556 251.206 126.497L263.762 124.473C264.129 124.413 264.417 124.135 264.479 123.778L266.249 113.613C270.957 111.708 275.231 109.087 278.957 105.912L289.128 108.852C289.484 108.955 289.869 108.827 290.085 108.533L297.491 98.4698Z" fill="#86B1F2"/>
<path d="M247.281 84.2718C240.251 83.7034 235.007 77.6814 235.591 70.846C235.874 67.535 237.467 64.5294 240.075 62.383C242.682 60.2366 245.994 59.2053 249.401 59.4815C256.431 60.0499 261.674 66.072 261.09 72.9073C260.558 79.1255 255.383 83.9059 249.16 84.29C248.543 84.328 247.915 84.3229 247.281 84.2718ZM242.003 64.5978C240.003 66.2439 238.783 68.5479 238.565 71.0869C238.118 76.3266 242.138 80.9449 247.528 81.3804C252.919 81.8179 257.668 77.9069 258.116 72.6664C258.564 67.4267 254.543 62.8082 249.153 62.3729C248.665 62.3334 248.179 62.3294 247.698 62.3589C245.611 62.4878 243.629 63.2605 242.003 64.5978Z" fill="#E5C1C4"/>
<path d="M250.071 102.24C251.14 102.174 252.212 102.055 253.283 101.883C253.62 101.828 253.956 101.769 254.291 101.704C255.944 101.384 257.568 100.937 259.139 100.369C259.16 100.362 259.181 100.354 259.203 100.346C259.263 100.324 259.324 100.302 259.385 100.279C259.503 100.235 259.62 100.191 259.737 100.146C260.046 100.027 260.228 99.7315 260.208 99.426C260.203 99.3518 260.186 99.2769 260.157 99.2042C260.005 98.8317 259.571 98.6504 259.189 98.7968C257.217 99.5553 255.148 100.112 253.039 100.451C242.564 102.142 232.437 98.3032 225.819 91.1395C222.137 87.1554 219.541 82.1419 218.575 76.4774C218.406 75.4841 218.289 74.4899 218.225 73.4986C217.79 66.8278 219.712 60.269 223.767 54.7597C228.424 48.4312 235.338 44.2446 243.234 42.9717C259.541 40.3441 274.995 51.0988 277.698 66.9451C277.864 67.9221 277.98 68.9038 278.043 69.8858C278.32 74.141 277.637 78.408 276.026 82.378C275.984 82.4806 275.968 82.5867 275.975 82.6899C275.993 82.9615 276.168 83.2125 276.446 83.3188C276.83 83.4647 277.263 83.2841 277.414 82.9099C279.105 78.7418 279.823 74.2618 279.532 69.7945C279.466 68.7638 279.345 67.7335 279.17 66.7079C276.332 50.0704 260.097 38.7819 242.99 41.5397C234.701 42.8762 227.443 47.2712 222.554 53.915C218.297 59.6986 216.279 66.584 216.735 73.5873C216.803 74.6279 216.926 75.6716 217.103 76.7139C218.478 84.7735 222.998 91.8297 229.832 96.583C235.782 100.723 242.866 102.684 250.071 102.24Z" fill="#E5C1C4"/>
<g opacity="0.3">
<path d="M387.769 121.01C388.266 120.979 388.704 120.635 388.819 120.138C389.035 119.211 389.224 118.264 389.382 117.325C389.485 116.715 389.06 116.139 388.431 116.039C387.803 115.936 387.211 116.353 387.108 116.963C386.958 117.858 386.777 118.761 386.572 119.646C386.431 120.248 386.821 120.848 387.441 120.985C387.552 121.009 387.661 121.016 387.769 121.01Z" fill="#86B1F2"/>
<path d="M388.801 112.469C388.165 112.445 387.67 111.925 387.694 111.306C387.755 109.746 387.735 108.165 387.633 106.607C387.612 106.279 387.586 105.949 387.558 105.619C387.504 105.003 387.974 104.461 388.609 104.409C389.21 104.383 389.8 104.814 389.854 105.431C389.884 105.777 389.91 106.121 389.933 106.465C390.039 108.098 390.061 109.756 389.996 111.392C389.974 111.971 389.502 112.431 388.919 112.467C388.881 112.469 388.841 112.47 388.801 112.469ZM386.71 99.9905C386.311 98.1377 385.791 96.2923 385.163 94.5061C384.958 93.9204 385.279 93.2846 385.881 93.0841C386.48 92.886 387.138 93.1961 387.344 93.7818C388.002 95.6537 388.548 97.5885 388.965 99.5313C389.096 100.137 388.696 100.73 388.073 100.858C388.019 100.869 387.964 100.875 387.909 100.879C387.347 100.913 386.829 100.542 386.71 99.9905ZM382.93 89.2482C382.078 87.5495 381.106 85.8853 380.043 84.3002C379.696 83.7824 379.846 83.0882 380.379 82.7506C380.913 82.4118 381.625 82.5574 381.973 83.0765C383.088 84.7381 384.107 86.4848 385.001 88.2656C385.279 88.8215 385.042 89.4928 384.471 89.7636C384.331 89.8292 384.185 89.8657 384.039 89.8747C383.587 89.9026 383.141 89.6681 382.93 89.2482ZM376.55 79.7372C375.293 78.2913 373.932 76.9079 372.506 75.6279C372.039 75.2075 372.01 74.4989 372.442 74.0449C372.873 73.5919 373.602 73.5624 374.07 73.9817C375.565 75.3252 376.992 76.7749 378.31 78.2915C378.72 78.7638 378.659 79.4712 378.173 79.8705C377.977 80.0306 377.742 80.1175 377.504 80.1322C377.152 80.1538 376.795 80.0192 376.55 79.7372ZM367.974 72.0289C366.395 70.924 364.73 69.9044 363.026 68.9968C362.468 68.7003 362.264 68.0191 362.569 67.4764C362.875 66.9336 363.575 66.7337 364.133 67.0324C365.919 67.9831 367.664 69.0526 369.32 70.2097C369.836 70.5714 369.954 71.271 369.583 71.7729C369.373 72.0566 369.052 72.2167 368.72 72.2373C368.463 72.2529 368.2 72.1859 367.974 72.0289ZM357.735 66.5778C355.928 65.8805 354.059 65.2867 352.18 64.813C351.565 64.658 351.194 64.0462 351.354 63.4479C351.514 62.8495 352.141 62.4907 352.759 62.6444C354.729 63.1411 356.69 63.7642 358.585 64.4957C359.176 64.7245 359.466 65.3752 359.231 65.9497C359.061 66.3657 358.663 66.6281 358.232 66.6547C358.068 66.6646 357.898 66.6411 357.735 66.5778ZM346.439 63.728C344.517 63.4839 342.554 63.354 340.604 63.3428C339.968 63.3382 339.455 62.8339 339.459 62.2155C339.463 61.5973 339.981 61.1082 340.619 61.1016C342.664 61.1146 344.722 61.2506 346.737 61.5066C347.368 61.587 347.813 62.1492 347.731 62.7626C347.659 63.3021 347.201 63.7018 346.663 63.735C346.589 63.7396 346.515 63.7378 346.439 63.728ZM327.611 63.8423C327.46 63.2411 327.839 62.6358 328.458 62.4891C330.169 62.0831 331.932 61.7618 333.694 61.5334C333.962 61.4972 334.229 61.4655 334.496 61.4346C335.123 61.3456 335.7 61.8031 335.773 62.4189C335.846 63.0336 335.393 63.5887 334.761 63.6607C334.51 63.6882 334.259 63.7192 334.004 63.7536C332.317 63.9715 330.635 64.2781 329.003 64.665C328.936 64.6812 328.868 64.6909 328.802 64.6949C328.255 64.7287 327.745 64.3776 327.611 63.8423Z" fill="#86B1F2"/>
</g>
<g opacity="0.3">
<path d="M342.729 157.792C340.724 157.89 338.695 157.87 336.699 157.733C336.065 157.689 335.586 157.154 335.631 156.537C335.676 155.919 336.231 155.46 336.862 155.498C338.765 155.63 340.701 155.648 342.614 155.554C343.249 155.523 343.79 155.999 343.822 156.616C343.854 157.229 343.373 157.752 342.745 157.791C342.745 157.791 342.734 157.792 342.729 157.792ZM347.396 156.23C347.289 155.621 347.71 155.041 348.336 154.937C350.223 154.621 352.108 154.191 353.941 153.659C354.547 153.484 355.193 153.818 355.374 154.412C355.557 155.005 355.21 155.628 354.601 155.805C352.68 156.363 350.704 156.814 348.727 157.144C348.686 157.151 348.645 157.156 348.603 157.159C348.024 157.194 347.497 156.801 347.396 156.23ZM330.716 156.962C328.744 156.586 326.779 156.09 324.877 155.487C324.272 155.295 323.941 154.663 324.138 154.075C324.335 153.486 324.983 153.167 325.59 153.356C327.405 153.931 329.279 154.404 331.16 154.764C331.784 154.883 332.19 155.472 332.068 156.078C331.965 156.588 331.521 156.949 331.011 156.98C330.915 156.987 330.816 156.981 330.716 156.962ZM358.75 153.206C358.494 152.64 358.76 151.979 359.342 151.73C361.095 150.983 362.817 150.124 364.462 149.175C365.009 148.861 365.716 149.037 366.04 149.567C366.365 150.099 366.185 150.786 365.637 151.102C363.913 152.097 362.106 152.999 360.267 153.782C360.14 153.836 360.009 153.866 359.878 153.874C359.409 153.903 358.95 153.649 358.75 153.206ZM319.269 153.334C317.452 152.51 315.669 151.569 313.967 150.538C313.427 150.211 313.262 149.519 313.599 148.995C313.935 148.469 314.646 148.308 315.186 148.637C316.809 149.622 318.51 150.519 320.243 151.304C320.819 151.565 321.069 152.231 320.799 152.793C320.615 153.177 320.235 153.412 319.828 153.437C319.642 153.448 319.45 153.416 319.269 153.334ZM309.049 147.142C307.485 145.917 305.984 144.588 304.588 143.194C304.144 142.751 304.154 142.042 304.61 141.611C305.065 141.179 305.795 141.188 306.239 141.632C307.571 142.961 309.003 144.229 310.495 145.398C310.991 145.786 311.068 146.492 310.669 146.973C310.458 147.228 310.156 147.369 309.844 147.388C309.567 147.405 309.283 147.325 309.049 147.142ZM300.648 138.749C299.431 137.194 298.301 135.553 297.29 133.873C296.969 133.338 297.155 132.653 297.704 132.341C298.253 132.028 298.959 132.209 299.28 132.742C300.243 134.345 301.32 135.91 302.482 137.391C302.867 137.883 302.769 138.586 302.263 138.961C302.075 139.101 301.858 139.174 301.639 139.188C301.267 139.211 300.891 139.058 300.648 138.749Z" fill="#86B1F2"/>
<path d="M370.045 148.005C370.267 147.991 370.487 147.915 370.676 147.773C371.456 147.187 372.221 146.575 372.952 145.956C373.431 145.549 373.481 144.841 373.063 144.375C372.644 143.911 371.918 143.861 371.437 144.267C370.741 144.858 370.01 145.441 369.266 146.001C368.762 146.38 368.67 147.084 369.059 147.572C369.303 147.877 369.676 148.028 370.045 148.005Z" fill="#86B1F2"/>
</g>
<path d="M373.102 126.909C373.247 126.712 373.247 126.447 373.103 126.25L368.991 120.622C370.255 117.642 371.039 114.444 371.263 111.134L377.502 107.848C377.721 107.733 377.84 107.496 377.8 107.257L376.406 99.0886C376.366 98.8497 376.174 98.6624 375.928 98.6222L368.932 97.4706C367.621 94.4079 365.817 91.6272 363.632 89.2028L365.655 82.5862C365.726 82.3543 365.638 82.1041 365.435 81.9632L358.509 77.1452C358.307 77.0044 358.034 77.0038 357.831 77.1441L352.043 81.142C348.978 79.9133 345.688 79.1511 342.283 78.9332L338.904 72.8674C338.785 72.6546 338.541 72.5383 338.296 72.578L329.894 73.9327C329.648 73.9723 329.455 74.159 329.414 74.3975L328.229 81.1994C325.079 82.4742 322.219 84.2278 319.725 86.3527L312.92 84.3854C312.681 84.3165 312.424 84.4021 312.279 84.5989L307.323 91.3328C307.178 91.5295 307.178 91.7941 307.322 91.9911L311.434 97.6188C310.17 100.599 309.386 103.797 309.162 107.107L302.923 110.393C302.704 110.508 302.584 110.746 302.625 110.984L304.018 119.153C304.059 119.392 304.251 119.579 304.497 119.619L311.493 120.771C312.804 123.834 314.608 126.614 316.793 129.039L314.77 135.655C314.699 135.887 314.787 136.137 314.989 136.278L321.916 141.096C322.118 141.237 322.39 141.237 322.593 141.097L328.381 137.099C331.447 138.328 334.736 139.09 338.141 139.308L341.52 145.374C341.639 145.586 341.883 145.703 342.129 145.663L350.531 144.309C350.776 144.269 350.969 144.082 351.01 143.844L352.195 137.042C355.345 135.767 358.205 134.013 360.699 131.889L367.505 133.856C367.743 133.925 368 133.839 368.145 133.643L373.102 126.909Z" fill="#86B1F2"/>
<path d="M339.492 117.571C337.171 117.385 335.065 116.33 333.562 114.602C332.058 112.875 331.336 110.682 331.529 108.426C331.927 103.771 336.14 100.305 340.936 100.685C345.725 101.073 349.296 105.175 348.897 109.83C348.705 112.085 347.62 114.132 345.844 115.595C344.4 116.783 342.638 117.469 340.784 117.584C340.357 117.61 339.925 117.606 339.492 117.571ZM333.825 108.611C333.683 110.271 334.214 111.884 335.321 113.155C336.427 114.425 337.976 115.201 339.682 115.339C341.389 115.475 343.048 114.96 344.355 113.884C345.662 112.81 346.46 111.303 346.602 109.645C346.894 106.22 344.267 103.203 340.745 102.917C340.427 102.892 340.113 102.889 339.804 102.908C336.685 103.101 334.091 105.496 333.825 108.611Z" fill="#E5C1C4"/>
<path d="M341.433 130.063C342.16 130.018 342.891 129.937 343.625 129.82C345.083 129.585 346.517 129.206 347.892 128.692C347.954 128.668 348.016 128.644 348.077 128.621C348.554 128.438 348.834 127.981 348.804 127.51C348.797 127.395 348.77 127.279 348.725 127.167C348.491 126.592 347.821 126.313 347.23 126.538C345.951 127.03 344.612 127.39 343.249 127.609H343.249C343.174 127.621 343.099 127.633 343.024 127.644C339.796 128.134 336.564 127.822 333.566 126.78C331.939 126.214 330.381 125.431 328.93 124.441C328.918 124.433 328.906 124.425 328.895 124.417C328.858 124.391 328.823 124.368 328.787 124.342C324.573 121.411 321.785 117.059 320.938 112.09C320.828 111.447 320.752 110.803 320.711 110.162C320.429 105.843 321.674 101.597 324.299 98.03C327.314 93.9334 331.79 91.2239 336.901 90.4C342.009 89.5784 347.148 90.7366 351.363 93.667C355.577 96.5984 358.364 100.95 359.212 105.919C359.32 106.552 359.395 107.187 359.436 107.822C359.615 110.578 359.173 113.34 358.13 115.909C358.066 116.068 358.041 116.232 358.052 116.391C358.079 116.81 358.35 117.198 358.779 117.362C359.371 117.588 360.04 117.308 360.273 116.731C361.44 113.855 361.936 110.764 361.735 107.683C361.689 106.971 361.606 106.261 361.485 105.553C360.537 99.9926 357.418 95.1248 352.703 91.8448C347.989 88.566 342.246 87.2631 336.524 88.1894C330.805 89.1111 325.798 92.1427 322.425 96.7271C319.488 100.717 318.096 105.468 318.411 110.299C318.458 111.016 318.542 111.737 318.664 112.456C320.501 123.22 330.464 130.74 341.433 130.063Z" fill="#E5C1C4"/>
<path d="M516.055 236.96C516.026 235.339 515.329 233.796 514.121 232.678C512.912 231.56 511.293 230.959 509.625 231.011L374.698 235.202C371.264 235.309 368.567 238.099 368.669 241.438L375.326 458.689C375.428 461.985 378.223 464.598 381.615 464.566L513.83 463.316C515.491 463.3 517.076 462.64 518.235 461.483C519.393 460.326 520.028 458.767 520 457.153L516.055 236.96Z" fill="#CBCBCB"/>
<g opacity="0.43">
<path d="M501.978 247.586H381.825C380.656 247.586 379.718 248.192 379.731 249.269L379.845 259.469C379.857 260.551 380.821 261.718 381.993 261.719L502.488 261.813C503.681 261.814 504.605 260.555 504.566 259.463L504.201 249.295C504.163 248.208 503.168 247.586 501.978 247.586Z" fill="white"/>
<path d="M502.758 269.57L382.082 269.375C380.908 269.373 379.968 270.462 379.981 271.549L380.096 281.971C380.108 283.062 381.074 284.097 382.251 284.1L503.273 284.425C504.471 284.429 505.406 283.39 505.367 282.288L504.998 271.771C504.96 270.674 503.952 269.572 502.758 269.57Z" fill="white"/>
<path d="M503.573 293.065L382.351 292.664C381.172 292.66 380.222 293.19 380.234 294.286L380.351 304.799C380.363 305.9 381.331 306.732 382.513 306.738L504.065 307.263C505.269 307.269 506.215 306.437 506.176 305.326L505.804 294.716C505.765 293.609 504.773 293.069 503.573 293.065Z" fill="white"/>
<path d="M504.366 315.97L382.612 315.367C381.428 315.362 380.476 316.108 380.488 317.214L380.606 327.819C380.619 328.93 381.588 329.556 382.775 329.563L504.863 330.293C506.072 330.301 507.03 329.681 506.99 328.56L506.615 317.855C506.576 316.739 505.572 315.976 504.366 315.97Z" fill="white"/>
<path d="M505.168 339.09L382.876 338.281C381.687 338.274 380.734 339.241 380.746 340.356L380.865 351.056C380.877 352.176 381.858 353.39 383.05 353.399L505.697 354.345C506.911 354.354 507.853 353.144 507.813 352.013L507.435 341.213C507.395 340.087 506.379 339.098 505.168 339.09Z" fill="white"/>
<path d="M505.975 362.409L383.141 361.391C381.947 361.381 380.992 362.573 381.004 363.698L381.124 374.492C381.136 375.622 382.119 376.63 383.317 376.641L506.508 377.798C507.727 377.81 508.681 376.811 508.641 375.67L508.259 364.774C508.219 363.638 507.191 362.419 505.975 362.409Z" fill="white"/>
<path d="M506.818 386.747L383.419 385.508C382.219 385.496 381.253 386.109 381.266 387.244L381.387 398.134C381.399 399.275 382.384 400.072 383.587 400.085L507.328 401.458C508.553 401.472 509.519 400.689 509.478 399.537L509.093 388.543C509.053 387.397 508.04 386.759 506.818 386.747Z" fill="white"/>
<path d="M507.643 410.487L383.691 409.031C382.486 409.017 381.519 409.855 381.531 411.001L381.654 421.988C381.666 423.139 382.652 423.722 383.861 423.738L508.157 425.33C509.388 425.346 510.366 424.782 510.325 423.621L509.936 412.527C509.895 411.371 508.87 410.502 507.643 410.487Z" fill="white"/>
<path d="M508.472 434.442L383.964 432.766C382.754 432.749 381.784 433.817 381.797 434.973L381.92 446.059C381.933 447.22 382.931 448.412 384.145 448.43L509.02 450.253C510.257 450.271 511.218 449.096 511.176 447.924L510.784 436.73C510.743 435.563 509.705 434.459 508.472 434.442Z" fill="white"/>
</g>
<path d="M212.747 460.264C212.747 460.264 257.326 194.309 143.188 3.74995C141.7 1.26539 138.077 1.08453 136.363 3.42717C109.284 40.4304 -51.2216 281.137 212.747 460.264Z" fill="#3C8F7C"/>
<path opacity="0.52" d="M132.975 81.2555C132.975 81.2555 132.81 82.7161 132.581 85.4702C132.345 88.2224 132.047 92.2638 131.747 97.4127C131.426 102.56 131.176 108.819 130.964 115.998C130.901 119.59 130.78 123.409 130.776 127.439C130.759 129.453 130.741 131.518 130.723 133.633C130.731 135.748 130.739 137.912 130.747 140.122C130.743 142.332 130.778 144.588 130.828 146.886C130.87 149.184 130.914 151.526 130.958 153.908C131.039 156.289 131.121 158.71 131.204 161.169C131.246 162.398 131.288 163.637 131.33 164.884C131.391 166.131 131.452 167.387 131.514 168.651C131.641 171.18 131.769 173.743 131.899 176.337C132.047 178.931 132.243 181.554 132.415 184.207C132.731 189.514 133.209 194.925 133.655 200.431C133.855 203.186 134.184 205.953 134.451 208.745C134.741 211.535 134.996 214.349 135.321 217.173C135.662 219.995 136.005 222.835 136.35 225.688C136.522 227.115 136.695 228.545 136.868 229.979C137.07 231.409 137.273 232.842 137.476 234.278C137.884 237.15 138.293 240.033 138.704 242.925C139.114 245.816 139.636 248.7 140.098 251.599C140.587 254.493 141.022 257.402 141.558 260.297C142.1 263.191 142.643 266.088 143.186 268.985L143.989 273.331C144.261 274.779 144.586 276.217 144.882 277.659C145.488 280.541 146.093 283.42 146.697 286.294C147.268 289.174 147.985 292.018 148.651 294.863C149.325 297.707 149.997 300.543 150.667 303.367C152.093 308.995 153.62 314.551 155.067 320.055C156.69 325.514 158.292 330.906 159.867 336.209C161.595 341.467 163.293 346.638 164.956 351.699C166.766 356.713 168.538 361.618 170.262 366.392C172.08 371.133 173.959 375.705 175.717 380.15C176.165 381.258 176.59 382.364 177.045 383.448C177.518 384.523 177.988 385.589 178.453 386.645C179.383 388.757 180.296 390.829 181.19 392.86C182.084 394.89 182.959 396.878 183.815 398.821C184.739 400.735 185.64 402.605 186.52 404.427C188.278 408.073 189.946 411.531 191.513 414.782C193.203 417.973 194.784 420.961 196.247 423.723C196.978 425.105 197.679 426.43 198.35 427.696C199.022 428.961 199.643 430.179 200.316 431.29C205.523 440.276 208.498 445.411 208.498 445.411L208.506 445.425C208.618 445.618 208.548 445.862 208.35 445.97C208.155 446.077 207.907 446.012 207.793 445.825C207.793 445.825 204.708 440.736 199.31 431.832C198.616 430.728 197.975 429.517 197.281 428.259C196.588 427 195.864 425.683 195.108 424.308C193.597 421.56 191.963 418.589 190.217 415.413C188.593 412.177 186.865 408.733 185.043 405.102C184.138 403.284 183.209 401.419 182.258 399.51C181.381 397.568 180.483 395.581 179.566 393.552C178.649 391.523 177.713 389.452 176.758 387.34C176.281 386.284 175.799 385.219 175.314 384.144C174.847 383.061 174.409 381.955 173.949 380.847C172.142 376.404 170.21 371.831 168.339 367.089C166.561 362.312 164.735 357.404 162.868 352.388C161.17 347.315 159.437 342.133 157.673 336.863C156.074 331.543 154.448 326.135 152.802 320.661C151.331 315.14 149.78 309.566 148.33 303.921C147.649 301.089 146.965 298.244 146.279 295.392C145.601 292.537 144.872 289.685 144.29 286.795C143.674 283.913 143.057 281.024 142.44 278.133C142.139 276.686 141.807 275.244 141.53 273.792L140.709 269.432C140.169 266.523 139.629 263.615 139.089 260.709C138.561 257.802 138.134 254.881 137.652 251.975C137.198 249.064 136.684 246.169 136.283 243.266C135.88 240.363 135.479 237.469 135.08 234.586C134.88 233.145 134.682 231.707 134.484 230.271C134.315 228.832 134.146 227.397 133.978 225.965C133.642 223.101 133.307 220.251 132.974 217.418C132.657 214.584 132.411 211.761 132.129 208.961C131.871 206.159 131.55 203.383 131.359 200.619C130.939 195.095 130.448 189.667 130.189 184.341C130.043 181.679 129.873 179.047 129.751 176.445C129.647 173.841 129.544 171.27 129.442 168.733C129.393 167.465 129.344 166.206 129.295 164.955C129.265 163.704 129.236 162.461 129.206 161.229C129.147 158.763 129.09 156.335 129.033 153.947C129.012 151.559 128.992 149.211 128.972 146.906C128.946 144.602 128.934 142.34 128.96 140.126C128.954 131.265 129.221 123.144 129.502 115.952C129.833 108.76 130.186 102.494 130.592 97.3405C130.966 92.185 131.378 88.1431 131.668 85.3879C131.959 82.6333 132.157 81.165 132.157 81.165L132.157 81.1608C132.187 80.9419 132.394 80.7871 132.619 80.816C132.842 80.8431 132.999 81.0398 132.975 81.2555Z" fill="white"/>
<path d="M172.344 486.276C172.344 486.276 171.359 175.919 20.709 84.6015C18.0356 82.981 14.505 84.2202 13.4969 87.1223C1.76884 120.886 -48.1783 304.197 172.344 486.276Z" fill="#96D9C9"/>
<path opacity="0.52" d="M33.3047 139.09C33.3047 139.09 34.6159 144.59 37.2142 154.153C38.5093 158.935 40.1238 164.731 42.0534 171.359C43.9595 177.993 46.2261 185.446 48.7545 193.56C51.311 201.665 54.1187 210.434 57.2327 219.665C58.7617 224.288 60.4226 229.01 62.0704 233.852C63.7829 238.672 65.4816 243.614 67.3037 248.607C69.1122 253.606 70.9488 258.688 72.8804 263.807C74.7731 268.941 76.7619 274.11 78.769 279.32C79.2697 280.622 79.7717 281.928 80.2746 283.236C80.79 284.538 81.3063 285.843 81.8235 287.151C82.8579 289.765 83.8951 292.386 84.9345 295.014C87.0357 300.259 89.2021 305.503 91.373 310.745C93.6016 315.964 95.7787 321.204 98.0406 326.386C99.1779 328.973 100.313 331.556 101.444 334.132C102.012 335.419 102.579 336.704 103.145 337.987C103.725 339.263 104.304 340.537 104.882 341.809C107.213 346.889 109.46 351.956 111.816 356.902C114.155 361.857 116.402 366.779 118.754 371.556C119.914 373.951 121.065 376.327 122.205 378.68C122.77 379.858 123.332 381.032 123.891 382.199C124.466 383.359 125.038 384.513 125.607 385.661C127.896 390.247 130.08 394.759 132.305 399.104C133.42 401.276 134.52 403.417 135.603 405.527C136.673 407.643 137.727 409.727 138.764 411.776C140.895 415.846 142.955 419.778 144.932 423.552C146.887 427.339 148.87 430.912 150.723 434.327C152.576 437.742 154.279 441.011 155.962 444.04C159.338 450.093 162.281 455.369 164.704 459.715C167.172 464.038 169.111 467.436 170.433 469.752C171.744 472.075 172.442 473.315 172.442 473.315L172.447 473.322C172.572 473.545 172.488 473.824 172.259 473.946C172.037 474.064 171.759 473.99 171.628 473.782C171.628 473.782 170.872 472.574 169.453 470.309C168.047 468.036 165.984 464.703 163.358 460.46C162.022 458.351 160.653 455.955 159.127 453.366C157.607 450.774 155.963 447.97 154.206 444.974C150.757 438.947 146.88 432.137 142.85 424.605C140.835 420.84 138.736 416.917 136.564 412.857C135.507 410.813 134.433 408.733 133.342 406.622C132.264 404.504 131.169 402.355 130.059 400.175C125.704 391.418 121.109 382.183 116.64 372.501C112.133 362.838 107.615 352.792 103.171 342.525C100.902 337.411 98.7851 332.187 96.54 326.992C94.3272 321.784 92.1994 316.518 90.0202 311.273C87.9058 306.003 85.7912 300.733 83.6851 295.484C82.6539 292.851 81.6249 290.223 80.5985 287.603C80.0853 286.294 79.5732 284.986 79.0616 283.68C78.5628 282.37 78.0654 281.061 77.5685 279.756C75.5778 274.535 73.6054 269.355 71.7287 264.211C69.8136 259.081 67.9928 253.989 66.2004 248.981C64.3944 243.978 62.7113 239.026 61.0143 234.197C59.382 229.346 57.7365 224.616 56.2225 219.983C53.1381 210.736 50.3588 201.951 47.8287 193.831C45.3353 185.701 43.08 178.24 41.1595 171.604C39.2251 164.972 37.6062 159.172 36.3073 154.385C33.7028 144.817 32.3839 139.3 32.3839 139.3C32.3238 139.053 32.4815 138.805 32.7353 138.747C32.9895 138.688 33.2439 138.842 33.3041 139.088L33.3047 139.09Z" fill="white"/>
<path d="M433.583 173.167C433.551 171.772 432.926 170.454 431.858 169.523C430.79 168.592 429.374 168.133 427.945 168.253L283.62 180.407C280.936 180.634 278.793 182.817 278.793 185.436V467.502C278.793 470.29 281.284 472.34 284.151 472.34H435.284C436.681 472.34 438.019 471.897 438.996 470.925C439.973 469.954 440.505 468.693 440.473 467.335L433.583 173.167Z" fill="#AFAFAF"/>
<g opacity="0.68">
<path d="M307.379 194.324L296.363 195.049C295.156 195.126 294.537 196.21 294.537 197.471V454.764C294.537 456.051 294.806 457.58 296.026 457.58H307.523C308.751 457.58 309.759 456.29 309.758 454.998L309.593 196.595C309.593 195.33 308.593 194.247 307.379 194.324Z" fill="#F0F0F0"/>
<path opacity="0.7" d="M334.1 192.606L322.577 193.34C321.354 193.418 320.175 194.522 320.176 195.79L320.452 454.977C320.453 456.272 321.648 457.565 322.884 457.565H334.532C335.775 457.565 336.603 456.268 336.6 454.968L336.155 194.902C336.153 193.628 335.331 192.527 334.1 192.606Z" fill="#F0F0F0"/>
<path d="M361.175 190.895L349.501 191.639C348.262 191.718 347.548 192.799 347.551 194.075L348.118 454.976C348.121 456.28 348.847 457.58 350.1 457.58H361.901C363.161 457.58 364.487 456.276 364.483 454.967L363.742 193.174C363.739 191.892 362.422 190.815 361.175 190.895Z" fill="#F0F0F0"/>
<path d="M388.601 189.145L376.774 189.899C375.519 189.979 374.601 191.079 374.605 192.364L375.464 454.959C375.468 456.272 376.402 457.579 377.671 457.579H389.63C390.907 457.579 392.05 456.268 392.045 454.95L391.009 191.449C391.004 190.159 389.864 189.064 388.601 189.145Z" fill="#F0F0F0"/>
<path d="M416.392 187.371L404.407 188.135C403.136 188.217 402.01 189.337 402.016 190.63L403.173 454.942C403.178 456.263 404.326 457.577 405.612 457.577H417.731C419.025 457.577 419.982 456.259 419.975 454.932L418.635 189.701C418.628 188.403 417.671 187.29 416.392 187.371Z" fill="#F0F0F0"/>
</g>
<path d="M320.591 231.795C320.57 230.321 319.938 228.918 318.837 227.904C317.736 226.89 316.261 226.352 314.746 226.411L199.626 230.898C197.65 230.975 196.103 232.578 196.149 234.5L201.993 473.763L318.397 472.383C319.889 472.365 321.312 471.771 322.354 470.732C323.395 469.693 323.969 468.294 323.948 466.843L320.591 231.795Z" fill="#CBCBCB"/>
<g opacity="0.5">
<path d="M227.879 275.87L209.354 275.875L209.135 245.094H227.701L227.879 275.87Z" fill="white"/>
<path d="M254.472 275.813L236.016 275.818L235.855 245.094H254.352L254.472 275.813Z" fill="white"/>
<path d="M282.432 275.753L264.048 275.757L263.949 245.094H282.373L282.432 275.753Z" fill="white"/>
<path d="M310.329 275.765L291.627 275.734L291.199 245.094H310.329V275.765Z" fill="white"/>
<path d="M228.132 319.578L209.665 319.674L209.447 289.119L227.955 289.062L228.132 319.578Z" fill="white"/>
<path d="M254.64 319.444L236.241 319.54L236.082 289.041L254.521 288.984L254.64 319.444Z" fill="white"/>
<path d="M282.517 319.291L264.19 319.386L264.092 288.947L282.458 288.891L282.517 319.291Z" fill="white"/>
<path d="M310.329 319.155L291.684 319.25L291.838 288.869L310.329 288.812V319.155Z" fill="white"/>
<path d="M228.389 364.392L209.982 364.545L209.766 334.185L228.214 334.07L228.389 364.392Z" fill="white"/>
<path d="M254.814 364.172L236.475 364.325L236.316 334.021L254.696 333.906L254.814 364.172Z" fill="white"/>
<path d="M282.6 363.933L264.332 364.086L264.234 333.84L282.542 333.727L282.6 363.933Z" fill="white"/>
<path d="M310.327 363.712L291.74 363.864L291.895 333.676L310.327 333.562V363.712Z" fill="white"/>
<path d="M228.645 408.194L210.296 408.403L210.086 378.953L228.475 378.781L228.645 408.194Z" fill="white"/>
<path d="M254.987 407.898L236.704 408.106L236.551 378.71L254.872 378.539L254.987 407.898Z" fill="white"/>
<path d="M282.685 407.576L264.474 407.783L264.379 378.444L282.628 378.273L282.685 407.576Z" fill="white"/>
<path d="M310.329 407.271L291.799 407.478L291.955 378.193L310.329 378.023V407.271Z" fill="white"/>
<path d="M228.902 452.421L210.611 452.687L210.402 423.424L228.732 423.195L228.902 452.421Z" fill="white"/>
<path d="M255.16 452.04L236.936 452.304L236.783 423.095L255.046 422.867L255.16 452.04Z" fill="white"/>
<path d="M282.771 451.64L264.618 451.904L264.523 422.75L282.715 422.523L282.771 451.64Z" fill="white"/>
<path d="M310.328 451.251L291.855 451.513L292.012 422.414L310.328 422.188V451.251Z" fill="white"/>
</g>
<path d="M227.467 335.798H53.6855C51.4256 335.798 49.5938 334.017 49.5938 331.82V215.134C49.5938 212.937 51.4256 211.156 53.6855 211.156H227.467C229.727 211.156 231.559 212.937 231.559 215.134V331.82C231.559 334.017 229.727 335.798 227.467 335.798Z" fill="#A72F3B"/>
<path d="M234.537 335.798H60.7558C58.4959 335.798 56.6641 334.017 56.6641 331.82V215.134C56.6641 212.937 58.4959 211.156 60.7558 211.156H234.537C236.797 211.156 238.629 212.937 238.629 215.134V331.82C238.629 334.017 236.797 335.798 234.537 335.798Z" fill="#A72F3B"/>
<path d="M108.604 319.382C107.205 319.382 106.023 319.366 105.086 319.348C103.487 319.317 102.176 318.172 101.971 316.627C101.766 315.07 102.745 313.633 104.299 313.207C112.614 310.941 121.681 307.09 128.357 303.973C96.5181 301.449 90.1616 285.551 88.9333 278.279C85.8337 259.94 102.206 239.189 125.428 232.021C149.126 224.712 173.13 227.345 186.592 238.733C193.745 244.786 201.503 256.376 197.845 277.233C191.002 316.255 128.408 319.382 108.604 319.382ZM105.206 313.73H105.213C105.213 313.73 105.209 313.73 105.206 313.73ZM151.207 298.47L141.12 303.938C140.588 304.225 131.71 309.012 120.912 313.403C145.493 311.962 187.079 305.211 192.15 276.289C194.723 261.609 191.578 250.398 182.8 242.972C169.182 231.448 145.054 231.862 127.176 237.375C106.929 243.625 92.0273 261.938 94.6343 277.368C97.0014 291.375 113.408 299.211 139.66 298.675L151.207 298.47Z" fill="white"/>
<path d="M229.69 189.259H55.9081C53.6483 189.259 51.8164 187.478 51.8164 185.281V68.5952C51.8164 66.3982 53.6483 64.6172 55.9081 64.6172H229.69C231.949 64.6172 233.781 66.3982 233.781 68.5952V185.281C233.781 187.478 231.949 189.259 229.69 189.259Z" fill="#B95962"/>
<path d="M236.737 189.876H62.955C60.6952 189.876 58.8633 188.095 58.8633 185.898V69.2124C58.8633 67.0154 60.6952 65.2344 62.955 65.2344H236.737C238.996 65.2344 240.828 67.0154 240.828 69.2124V185.898C240.828 188.095 238.996 189.876 236.737 189.876Z" fill="#B95962"/>
<path d="M189.783 171.606H104.016C96.9887 171.606 91.2715 166.048 91.2715 159.215V94.8205C91.2715 87.988 96.9887 82.4297 104.016 82.4297H189.783C196.811 82.4297 202.528 87.988 202.528 94.8205V159.215C202.528 166.048 196.811 171.606 189.783 171.606ZM104.016 86.7275C99.4266 86.7275 95.6922 90.3582 95.6922 94.8205V159.215C95.6922 163.678 99.4266 167.308 104.016 167.308H189.783C194.373 167.308 198.107 163.678 198.107 159.215V94.8205C198.107 90.3582 194.373 86.7275 189.783 86.7275H104.016Z" fill="#F0F0F0"/>
<path d="M146.7 127.254L95 89.5474L97.6532 86.1094L146.773 121.935L197.136 87.2029L199.694 90.7084L146.7 127.254Z" fill="#F0F0F0"/>
<path d="M196.489 167.613L164.326 112.198L168.176 110.086L200.339 165.501L196.489 167.613Z" fill="#F0F0F0"/>
<path d="M97.5424 167.109L93.6719 165.034L125.282 109.32L129.153 111.396L97.5424 167.109Z" fill="#F0F0F0"/>
<path d="M227.467 485.798H53.6855C51.4256 485.798 49.5938 484.017 49.5938 481.82V365.134C49.5938 362.937 51.4256 361.156 53.6855 361.156H227.467C229.727 361.156 231.559 362.937 231.559 365.134V481.82C231.559 484.017 229.727 485.798 227.467 485.798Z" fill="#B95962"/>
<path d="M234.537 485.798H60.7558C58.4959 485.798 56.6641 484.017 56.6641 481.82V365.134C56.6641 362.937 58.4959 361.156 60.7558 361.156H234.537C236.797 361.156 238.629 362.937 238.629 365.134V481.82C238.629 484.017 236.797 485.798 234.537 485.798Z" fill="#B95962"/>
<path d="M176.125 467.923C169.028 467.923 160.686 464.688 151.254 458.27H151.254C145.017 454.024 117.802 427.564 113.435 421.502C105.568 410.574 102.351 401.149 103.876 393.488C104.861 388.536 107.885 384.331 112.62 381.327L116.76 378.7C119.829 376.757 123.979 377.583 126.013 380.545L137.446 397.219C139.796 400.643 138.934 405.198 135.484 407.59L135.404 407.642L133.433 408.885C131.646 410.014 130.514 411.847 130.329 413.912C130.145 415.977 130.933 417.971 132.493 419.382L132.55 419.436L153.434 439.741C154.887 441.258 156.94 442.024 159.061 441.846C161.185 441.667 163.071 440.567 164.234 438.828L165.565 436.838C168.022 433.48 172.709 432.641 176.233 434.929L193.383 446.043C196.431 448.021 197.282 452.056 195.281 455.038L192.579 459.065C189.49 463.668 185.164 466.608 180.071 467.565C178.802 467.804 177.486 467.923 176.125 467.923ZM153.789 454.749C164.011 461.706 172.574 464.598 179.231 463.346C183.177 462.604 186.423 460.373 188.876 456.716L191.578 452.69C192.261 451.672 191.971 450.294 190.93 449.619L173.781 438.504C172.265 437.521 170.26 437.872 169.192 439.296L167.941 441.169C166.03 444.027 162.933 445.834 159.443 446.128C155.968 446.421 152.611 445.171 150.227 442.699L129.451 422.5C126.908 420.182 125.623 416.919 125.925 413.54C126.228 410.147 128.088 407.136 131.026 405.28L132.952 404.065C134.417 403.025 134.777 401.073 133.768 399.604L122.335 382.93C121.641 381.92 120.223 381.638 119.176 382.3L115.036 384.927C111.274 387.312 108.979 390.468 108.216 394.305C106.928 400.779 109.902 409.099 117.057 419.037C121.156 424.729 147.934 450.763 153.79 454.749L153.789 454.749Z" fill="#F0F0F0"/>
<path d="M361.677 356.257C361.609 356.261 361.541 356.262 361.472 356.262L272.221 356.174C270.015 356.172 268.228 354.4 268.23 352.216C268.233 350.032 270.03 348.227 272.23 348.266L361.482 348.355C363.688 348.356 365.474 350.128 365.472 352.312C365.47 354.428 363.788 356.154 361.677 356.257Z" fill="#641C23"/>
<path d="M237.656 269.584C237.688 269.644 237.718 269.704 237.747 269.766L275.3 350.05C276.229 352.035 275.362 354.388 273.364 355.307C271.365 356.226 268.957 355.371 268.065 353.376L230.511 273.092C229.583 271.108 230.45 268.754 232.448 267.836C234.384 266.946 236.671 267.73 237.656 269.584Z" fill="#641C23"/>
<path d="M370.258 485.28C370.258 485.28 371.039 489.497 371.348 494.504C371.48 496.637 369.853 498.491 367.665 498.697C360.047 499.415 342.705 500.742 331.632 499.188C330.081 498.971 329.465 497.118 330.611 496.079C335.177 491.944 346.204 483.899 364.353 482.141L370.258 485.28Z" fill="#A72F3B"/>
<path d="M374.047 475.772L370.195 484.951C369.667 486.209 368.354 486.991 366.965 486.849C366.021 486.753 364.905 486.577 363.818 486.257C361.644 485.615 360.418 483.375 361.069 481.259L363.976 471.805L374.047 475.772Z" fill="#FFA89B"/>
<path d="M439.899 492.594C439.899 492.594 432.186 498.868 429.18 506.916C428.354 509.13 430.101 511.462 432.523 511.462H448.396C450.719 511.462 452.5 509.43 452.096 507.206C451.085 501.648 448.169 492.617 439.899 492.594Z" fill="#A72F3B"/>
<path d="M449.456 484.425C449.456 484.425 447.898 491.129 446.701 495.56C446.483 496.364 445.601 496.805 444.795 496.526C442.393 495.691 440.438 495.321 439.017 495.507C438.36 495.592 437.787 495.061 437.778 494.417L437.629 483.281L449.456 484.425Z" fill="#FFA89B"/>
<path d="M408.434 333.559L361.518 472.712C361.518 472.712 370.516 478.441 374.804 478.203L430.53 366.371C430.53 366.371 440.281 435.278 435.556 484.748L451.517 485.931C451.517 485.931 477.471 359.511 457.813 316.211L408.434 333.559Z" fill="#434343"/>
<path d="M430.228 365.167C430.246 365.167 430.266 365.165 430.285 365.163C430.534 365.132 430.711 364.912 430.679 364.67L428.858 350.62C428.827 350.379 428.602 350.21 428.351 350.237C428.102 350.268 427.925 350.489 427.957 350.731L429.777 364.78C429.807 365.004 430.002 365.167 430.228 365.167Z" fill="#242424"/>
<path d="M399.639 210.859C399.639 210.859 437.65 214.141 432.273 240.472C432.273 240.472 453.285 278.915 463.108 324.2C463.428 325.674 462.413 327.111 460.886 327.365L397.584 337.902C395.838 338.193 394.154 337.134 393.71 335.467L378.586 278.637L372.692 305.059L353.965 300.315L369.73 222.674C369.73 222.674 371.929 211.346 399.639 210.859Z" fill="#FF725E"/>
<path d="M378.263 276.346C378.296 276.346 378.33 276.343 378.364 276.336C378.618 276.282 378.779 276.038 378.724 275.791L373.448 252.235C373.392 251.988 373.144 251.833 372.887 251.885C372.633 251.939 372.471 252.183 372.526 252.43L377.803 275.986C377.851 276.2 378.046 276.346 378.263 276.346Z" fill="#A72F3B"/>
<path d="M382.085 346.447C384.079 345.381 386.413 345.086 388.622 345.62L393.026 346.686C393.962 346.912 394.889 346.286 394.997 345.353L399.555 305.914C405.254 308.545 413.475 308.231 416.187 308.038L405.697 354.534H368.988L382.085 346.447Z" fill="#FFA89B"/>
<path d="M284.551 260.901L285.66 257.317C286.299 255.254 287.868 253.585 289.923 252.781L309.991 244.935C309.991 244.935 310.293 242.433 305.751 240.733C301.208 239.032 302.27 234.086 302.27 234.086C302.27 234.086 308.476 236.839 317.562 241.204C322.758 243.701 325.674 248.109 327.22 251.427L372.691 305.319L367.352 308.886C360.332 313.575 350.677 311.272 346.687 303.955L322.054 258.031C309.687 261.644 297.172 262.334 284.551 260.901Z" fill="#FFA89B"/>
<path d="M387.324 185.975L399.015 217.786C399.015 217.786 388.663 225.655 381.108 222.994L375.217 204.759C375.217 204.759 379.716 182.473 387.324 185.975Z" fill="#FFA89B"/>
<path d="M352.43 174.539C352.43 175.03 363.692 205.534 363.692 205.534L381.47 198.912L375.215 168.458C375.215 168.458 352.43 166.333 352.43 174.539Z" fill="#FFA89B"/>
<path d="M372.098 175.881L376.682 191.662C376.741 191.865 376.771 192.068 376.771 192.279C376.773 193.566 376.445 197.995 371.805 197.392C367.595 196.846 363.744 196.408 361.295 197.529C360.195 198.033 359.67 199.263 360.081 200.375C361.104 203.146 363.53 209.349 366.484 214.426C367.084 215.456 368.398 215.857 369.507 215.367C372.846 213.89 379.798 210.584 384.751 206.65C385.422 206.117 385.744 205.278 385.584 204.45C384.805 200.413 382.484 188.135 382.382 184.616C382.286 181.314 386.097 178.793 387.776 177.845C388.326 177.534 388.717 177.023 388.866 176.421C389.393 174.295 389.84 169.484 383.528 168.424C382.207 168.202 381.346 166.973 381.614 165.696C382.148 163.154 381.977 159.412 377.011 158.034C371.964 156.634 368.788 159.587 367.173 161.852C366.519 162.768 365.297 163.065 364.251 162.611C363.655 162.352 362.935 162.34 362.162 162.974C361.119 163.829 359.533 163.569 358.767 162.472C357.295 160.366 354.621 158.264 350.095 159.688C342.062 162.215 342.446 171.218 345.391 176.113C348.335 181.007 356.883 177.787 360.93 174.543C364.007 172.077 368.692 173.552 370.761 174.401C371.416 174.67 371.904 175.216 372.098 175.881Z" fill="#641C23"/>
<path d="M383.991 190.383C383.991 190.383 379.238 181.64 382.381 178.895C385.525 176.149 390.851 176.598 390.707 183.435C390.529 191.939 383.991 190.383 383.991 190.383Z" fill="#FFA89B"/>
<path d="M412.498 308.363C415.092 308.363 416.944 308.172 417.144 308.15L417.481 308.114L431.322 245.375C431.377 245.128 431.215 244.884 430.961 244.831C430.703 244.776 430.455 244.936 430.401 245.183L416.704 307.27C414.644 307.446 403.644 308.156 397.837 304.157L409.827 249.649L407.325 245.064C407.203 244.841 406.918 244.755 406.687 244.874C406.457 244.993 406.37 245.27 406.492 245.494L408.834 249.784L396.789 304.543L397.03 304.719C401.225 307.783 407.984 308.363 412.498 308.363Z" fill="#A72F3B"/>
<path d="M336.763 363.609C337.125 364.803 371.69 468.041 380.453 494.213C381.463 497.23 378.643 500.192 374.766 500.192C372.063 500.192 369.707 498.709 369.053 496.595L330.684 372.706L336.763 363.609Z" fill="#CA8289"/>
<path d="M317.838 363.609C317.476 364.803 282.911 468.041 274.148 494.213C273.138 497.23 275.959 500.192 279.835 500.192C282.538 500.192 284.894 498.709 285.548 496.595L323.917 372.706L317.838 363.609Z" fill="#CA8289"/>
<path d="M316.397 359.492H337.924V376.3C337.924 378.715 335.934 380.674 333.479 380.674H330.526V418.426C330.526 420.254 329.019 421.737 327.16 421.737C325.301 421.737 323.795 420.254 323.795 418.426V380.674H322.296C319.038 380.674 316.396 378.074 316.396 374.868L316.397 359.492Z" fill="#CA8289"/>
<path d="M403.692 355.453H253.065C250.96 355.453 249.122 356.572 248.596 358.172L246.493 364.57C245.736 366.873 247.96 369.114 250.989 369.1L405.547 368.403C408.543 368.389 410.729 366.174 409.997 363.893L408.168 358.193C407.651 356.582 405.807 355.453 403.692 355.453Z" fill="#CA8289"/>
</svg>
