<svg width="80" height="118" viewBox="0 0 80 118" fill="none" xmlns="http://www.w3.org/2000/svg">
<path d="M28.3583 32.9098C28.0284 32.9098 27.7547 32.6107 27.7477 32.2329C27.7337 31.0207 27.5863 2.59698 39.1443 0.164713C41.4742 -0.323315 43.6075 0.274913 45.4882 1.93578C53.1515 8.72882 54.2041 31.2332 54.2462 32.1857C54.2603 32.5635 54.0006 32.8783 53.6708 32.902C53.3409 32.9098 53.0532 32.6265 53.0322 32.2565C53.0251 32.0282 51.9725 9.4215 44.7374 3.0063C43.1233 1.5737 41.3689 1.08567 39.3759 1.50285C28.8144 3.72259 28.9688 31.9259 28.9758 32.2093C28.9758 32.5871 28.7091 32.8941 28.3723 32.902L28.3583 32.9098Z" fill="#DCACB1"/>
<path d="M80.0004 117.996H7.66992L17.6349 27.7031H70.0354L80.0004 117.996Z" fill="#DCACB1"/>
<path d="M72.3305 117.996H0L9.965 27.7031H62.3655L72.3305 117.996Z" fill="#E5C1C4"/>
<path d="M36.2099 92.9739C36.2099 92.9739 17.3536 79.4666 19.4659 67.4784C21.115 58.1114 33.1081 58.7647 36.1608 68.6276C39.1783 58.749 51.1644 58.0406 52.8556 67.3997C55.0171 79.38 36.2099 92.9739 36.2099 92.9739Z" fill="#DCACB1"/>
<path d="M63.9785 111.117C63.9925 111.282 63.9434 111.447 63.8452 111.565C63.7469 111.683 63.6066 111.754 63.4592 111.754H8.4201C8.27273 111.754 8.13238 111.683 8.03413 111.565C7.93588 111.447 7.88676 111.282 7.9008 111.117L9.15695 96.9087L9.21309 96.3026L12.357 60.6765L12.4201 59.9287L15.2693 27.7031H16.3079L13.5359 59.1337L13.4658 59.8972L13.0658 64.3997L13.0166 64.99L11.1499 86.0854L11.0868 86.7703L10.2236 96.5781L10.1675 97.1842L8.98151 110.597H62.8908L58.8627 64.7696L58.8065 64.1163L56.8907 42.3204L56.8416 41.7221L56.6802 39.9196L56.6311 39.3135L55.6065 27.7031H56.6451L63.9855 111.117H63.9785Z" fill="#D6D6D6"/>
<path d="M27.1215 32.2317C27.1215 33.7587 26.0124 35.0024 24.6506 35.0024C23.2888 35.0024 22.1797 33.7587 22.1797 32.2317C22.1797 30.7046 23.2888 29.4609 24.6506 29.4609C26.0124 29.4609 27.1215 30.7046 27.1215 32.2317Z" fill="#DCACB1"/>
<path d="M52.3989 32.2317C52.3989 33.7587 51.2898 35.0024 49.9279 35.0024C48.5661 35.0024 47.457 33.7587 47.457 32.2317C47.457 30.7046 48.5661 29.4609 49.9279 29.4609C51.2898 29.4609 52.3989 30.7046 52.3989 32.2317Z" fill="#DCACB1"/>
<path d="M24.6512 32.9098C24.3214 32.9098 24.0477 32.6107 24.0407 32.2329C24.0267 31.0207 23.8793 2.59698 35.4373 0.164713C37.7671 -0.323315 39.9005 0.274913 41.7812 1.93578C49.4444 8.72882 50.4971 31.2332 50.5392 32.1857C50.5532 32.5635 50.2936 32.8783 49.9637 32.902C49.6409 32.9098 49.3462 32.6265 49.3251 32.2565C49.3181 32.0282 48.2655 9.4215 41.0303 3.0063C39.4163 1.5737 37.6619 1.08567 35.6689 1.50285C25.1074 3.72259 25.2618 31.9259 25.2688 32.2093C25.2688 32.5871 25.0021 32.8941 24.6653 32.902L24.6512 32.9098Z" fill="#DCACB1"/>
</svg>
