<svg width="307" height="66" viewBox="0 0 307 66" fill="none" xmlns="http://www.w3.org/2000/svg">
<path d="M34.55 22.95L32.7 24.8C32.31 25.19 31.69 25.19 31.29 24.81C31.18 24.7 31.07 24.6 30.96 24.49C29.93 23.45 29 22.36 28.17 21.22C27.35 20.08 26.69 18.94 26.21 17.81C25.74 16.67 25.5 15.58 25.5 14.54C25.5 13.86 25.62 13.21 25.86 12.61C26.1 12 26.48 11.44 27.01 10.94C27.65 10.31 28.35 10 29.09 10C29.37 10 29.65 10.06 29.9 10.18C30.16 10.3 30.39 10.48 30.57 10.74L32.89 14.01C33.07 14.26 33.2 14.49 33.29 14.71C33.38 14.92 33.43 15.13 33.43 15.32C33.43 15.56 33.36 15.8 33.22 16.03C33.09 16.26 32.9 16.5 32.66 16.74L31.9 17.53C31.79 17.64 31.74 17.77 31.74 17.93C31.74 18.01 31.75 18.08 31.77 18.16C31.8 18.24 31.83 18.3 31.85 18.36C32.03 18.69 32.34 19.12 32.78 19.64C33.23 20.16 33.71 20.69 34.23 21.22C34.33 21.32 34.44 21.42 34.54 21.52C34.94 21.91 34.95 22.55 34.55 22.95Z" fill="#A72F3B"/>
<path d="M45.4696 26.3291C45.4696 26.6091 45.4196 26.8991 45.3196 27.1791C45.2896 27.2591 45.2596 27.3391 45.2196 27.4191C45.0496 27.7791 44.8296 28.1191 44.5396 28.4391C44.0496 28.9791 43.5096 29.3691 42.8996 29.6191C42.8896 29.6191 42.8796 29.6291 42.8696 29.6291C42.2796 29.8691 41.6396 29.9991 40.9496 29.9991C39.9296 29.9991 38.8396 29.7591 37.6896 29.2691C36.5396 28.7791 35.3896 28.1191 34.2496 27.2891C33.8596 26.9991 33.4696 26.7091 33.0996 26.3991L36.3696 23.1291C36.6496 23.3391 36.8996 23.4991 37.1096 23.6091C37.1596 23.6291 37.2196 23.6591 37.2896 23.6891C37.3696 23.7191 37.4496 23.7291 37.5396 23.7291C37.7096 23.7291 37.8396 23.6691 37.9496 23.5591L38.7096 22.8091C38.9596 22.5591 39.1996 22.3691 39.4296 22.2491C39.6596 22.1091 39.8896 22.0391 40.1396 22.0391C40.3296 22.0391 40.5296 22.0791 40.7496 22.1691C40.9696 22.2591 41.1996 22.3891 41.4496 22.5591L44.7596 24.9091C45.0196 25.0891 45.1996 25.2991 45.3096 25.5491C45.4096 25.7991 45.4696 26.0491 45.4696 26.3291Z" fill="#A72F3B"/>
<path d="M3.01269 46.976C2.79669 47.416 2.62869 47.844 2.50869 48.26C2.39669 48.668 2.34069 49.088 2.34069 49.52C2.34069 49.992 2.41669 50.408 2.56869 50.768C2.72069 51.136 2.95669 51.424 3.27669 51.632C3.59669 51.84 4.00469 51.944 4.50069 51.944H5.78469C6.32869 51.944 6.75269 51.88 7.05669 51.752C7.36069 51.632 7.57669 51.436 7.70469 51.164C7.83269 50.9 7.89669 50.536 7.89669 50.072V46.304H8.83269V50.072C8.83269 51 8.58869 51.724 8.10069 52.244C7.61269 52.764 6.84069 53.024 5.78469 53.024H4.50069C3.83669 53.024 3.27269 52.86 2.80869 52.532C2.34469 52.204 1.99269 51.772 1.75269 51.236C1.52069 50.7 1.40469 50.128 1.40469 49.52C1.40469 48.984 1.48069 48.464 1.63269 47.96C1.78469 47.456 1.98069 46.984 2.22069 46.544L3.01269 46.976ZM8.83269 47.576C8.83269 48.088 8.92869 48.44 9.12069 48.632C9.32069 48.824 9.60069 48.92 9.96069 48.92C10.3527 48.92 10.6287 48.836 10.7887 48.668C10.9567 48.5 11.0407 48.232 11.0407 47.864V46.304H11.9767V48.008C11.9767 48.328 12.0527 48.56 12.2047 48.704C12.3647 48.84 12.6087 48.912 12.9367 48.92C13.2887 48.912 13.5447 48.828 13.7047 48.668C13.8647 48.5 13.9367 48.28 13.9207 48.008C13.9047 47.776 13.8567 47.448 13.7767 47.024C13.7047 46.6 13.6287 46.204 13.5487 45.836L14.4607 45.596C14.5487 45.964 14.6327 46.384 14.7127 46.856C14.7927 47.32 14.8407 47.696 14.8567 47.984C14.8727 48.312 14.8087 48.632 14.6647 48.944C14.5207 49.256 14.3007 49.512 14.0047 49.712C13.7087 49.904 13.3527 50 12.9367 50C12.6807 50 12.4167 49.94 12.1447 49.82C11.8807 49.692 11.6527 49.496 11.4607 49.232C11.2687 49.488 11.0487 49.68 10.8007 49.808C10.5527 49.936 10.2727 50 9.96069 50C9.60069 50 9.28069 49.912 9.00069 49.736C8.72869 49.56 8.51269 49.292 8.35269 48.932C8.20069 48.564 8.12469 48.112 8.12469 47.576H8.83269ZM18.6451 50C18.1011 50 17.6771 49.9 17.3731 49.7C17.0691 49.492 16.8531 49.204 16.7251 48.836C16.6051 48.468 16.5451 48.012 16.5451 47.468L16.5331 42.212H17.4691L17.4811 47.468C17.4811 47.9 17.5051 48.212 17.5531 48.404C17.6091 48.596 17.7131 48.732 17.8651 48.812C18.0251 48.884 18.2851 48.92 18.6451 48.92H18.8251L18.8851 49.472L18.8251 50H18.6451ZM18.7095 48.92H19.0455C19.2375 48.92 19.3895 48.88 19.5015 48.8C19.6215 48.712 19.7015 48.584 19.7415 48.416L20.1255 47.036C20.3015 46.412 20.5735 45.924 20.9415 45.572C21.3095 45.212 21.7535 45.032 22.2735 45.032C22.6895 45.032 23.0575 45.156 23.3775 45.404C23.6975 45.644 23.9455 45.972 24.1215 46.388C24.2975 46.796 24.3855 47.24 24.3855 47.72C24.3855 48.312 24.3015 48.8 24.1335 49.184C23.9655 49.56 23.7455 49.832 23.4735 50C23.2095 50.176 22.9295 50.264 22.6335 50.264C22.3215 50.264 22.0055 50.2 21.6855 50.072C21.3655 49.944 20.8615 49.704 20.1735 49.352L19.8615 49.196L20.2935 48.236C20.3895 48.284 20.4815 48.332 20.5695 48.38C21.2175 48.708 21.6655 48.924 21.9135 49.028C22.1695 49.132 22.4095 49.184 22.6335 49.184C22.9055 49.184 23.1095 49.084 23.2455 48.884C23.3815 48.676 23.4495 48.288 23.4495 47.72C23.4495 47.216 23.3495 46.824 23.1495 46.544C22.9495 46.256 22.6575 46.112 22.2735 46.112C21.9855 46.112 21.7335 46.212 21.5175 46.412C21.3095 46.612 21.1495 46.916 21.0375 47.324L20.6535 48.704C20.5815 48.96 20.4615 49.188 20.2935 49.388C20.1335 49.58 19.9415 49.732 19.7175 49.844C19.5015 49.948 19.2775 50 19.0455 50H18.7095V48.92ZM25.3215 49.46L25.2615 50H25.1415C24.7495 50 24.4295 49.904 24.1815 49.712C23.9415 49.52 23.7655 49.256 23.6535 48.92C23.5415 48.584 23.4855 48.184 23.4855 47.72H24.3855C24.3855 48.056 24.4135 48.312 24.4695 48.488C24.5255 48.656 24.6055 48.772 24.7095 48.836C24.8135 48.892 24.9575 48.92 25.1415 48.92H25.2615L25.3215 49.46ZM25.1431 48.92H26.7631C27.2271 48.92 27.5511 48.84 27.7351 48.68C27.9271 48.52 28.0151 48.296 27.9991 48.008C27.9831 47.776 27.9351 47.448 27.8551 47.024C27.7831 46.6 27.7071 46.204 27.6271 45.836L28.5391 45.596C28.6271 45.964 28.7111 46.384 28.7911 46.856C28.8711 47.32 28.9191 47.696 28.9351 47.984C28.9511 48.328 28.8791 48.656 28.7191 48.968C28.5671 49.272 28.3231 49.52 27.9871 49.712C27.6591 49.904 27.2511 50 26.7631 50H25.1431V48.92ZM25.6831 42.98C25.8591 42.98 25.9911 42.98 26.0791 42.98C26.1751 42.98 26.3151 42.98 26.4991 42.98C26.6271 42.98 26.7551 42.98 26.8831 42.98C26.8831 43.252 26.8831 43.456 26.8831 43.592C26.8831 43.72 26.8831 43.916 26.8831 44.18C26.6111 44.18 26.4071 44.18 26.2711 44.18C26.1431 44.18 25.9471 44.18 25.6831 44.18C25.6831 43.908 25.6831 43.708 25.6831 43.58C25.6831 43.444 25.6831 43.244 25.6831 42.98ZM27.8311 42.98C28.1031 42.98 28.3031 42.98 28.4311 42.98C28.5671 42.98 28.7671 42.98 29.0311 42.98C29.0311 43.252 29.0311 43.456 29.0311 43.592C29.0311 43.72 29.0311 43.916 29.0311 44.18C28.7591 44.18 28.5551 44.18 28.4191 44.18C28.2911 44.18 28.0951 44.18 27.8311 44.18C27.8311 43.908 27.8311 43.708 27.8311 43.58C27.8311 43.444 27.8311 43.244 27.8311 42.98ZM35.3591 50C34.8951 50 34.4871 49.896 34.1351 49.688C33.7831 49.472 33.5191 49.184 33.3431 48.824C33.1671 48.464 33.1031 48.076 33.1511 47.66C33.1911 47.292 33.3231 46.644 33.5471 45.716L34.4231 45.944L34.3751 46.16C34.1831 46.976 34.0751 47.512 34.0511 47.768C34.0111 48.12 34.1031 48.4 34.3271 48.608C34.5511 48.816 34.8951 48.92 35.3591 48.92H40.5431C40.9351 48.92 41.2271 48.812 41.4191 48.596C41.6191 48.38 41.7191 48.12 41.7191 47.816C41.7191 47.464 41.5951 46.732 41.3471 45.62L42.2591 45.38C42.5231 46.524 42.6551 47.336 42.6551 47.816C42.6551 48.152 42.5711 48.492 42.4031 48.836C42.2351 49.172 41.9911 49.452 41.6711 49.676C41.3511 49.892 40.9751 50 40.5431 50H35.3591ZM36.2591 44.828C36.4351 44.828 36.5671 44.828 36.6551 44.828C36.7511 44.828 36.8911 44.828 37.0751 44.828C37.2031 44.828 37.3311 44.828 37.4591 44.828C37.4591 45.1 37.4591 45.304 37.4591 45.44C37.4591 45.568 37.4591 45.764 37.4591 46.028C37.1871 46.028 36.9831 46.028 36.8471 46.028C36.7191 46.028 36.5231 46.028 36.2591 46.028C36.2591 45.756 36.2591 45.556 36.2591 45.428C36.2591 45.292 36.2591 45.092 36.2591 44.828ZM38.4071 44.828C38.6791 44.828 38.8791 44.828 39.0071 44.828C39.1431 44.828 39.3431 44.828 39.6071 44.828C39.6071 45.1 39.6071 45.304 39.6071 45.44C39.6071 45.568 39.6071 45.764 39.6071 46.028C39.3351 46.028 39.1311 46.028 38.9951 46.028C38.8671 46.028 38.6711 46.028 38.4071 46.028C38.4071 45.756 38.4071 45.556 38.4071 45.428C38.4071 45.292 38.4071 45.092 38.4071 44.828ZM46.442 50C45.898 50 45.474 49.9 45.17 49.7C44.866 49.492 44.65 49.204 44.522 48.836C44.402 48.468 44.342 48.012 44.342 47.468L44.33 42.212H45.266L45.278 47.468C45.278 47.9 45.302 48.212 45.35 48.404C45.406 48.596 45.51 48.732 45.662 48.812C45.822 48.884 46.082 48.92 46.442 48.92H46.622L46.682 49.472L46.622 50H46.442ZM52.2304 50H46.5064V48.92H52.2304V50ZM51.1144 49.808C50.4424 49.808 49.8584 49.708 49.3624 49.508C48.8664 49.3 48.4824 49.016 48.2104 48.656C47.9464 48.288 47.8144 47.876 47.8144 47.42C47.8144 47.02 47.9104 46.656 48.1024 46.328C48.2944 45.992 48.5544 45.728 48.8824 45.536C49.2104 45.336 49.5664 45.236 49.9504 45.236C50.3104 45.236 50.6104 45.288 50.8504 45.392C51.0904 45.496 51.3904 45.672 51.7504 45.92L52.0024 46.088L51.5344 46.856C51.4704 46.816 51.4064 46.78 51.3424 46.748C50.9824 46.556 50.7144 46.428 50.5384 46.364C50.3704 46.292 50.1744 46.256 49.9504 46.256C49.6224 46.256 49.3384 46.368 49.0984 46.592C48.8664 46.816 48.7504 47.092 48.7504 47.42C48.7504 47.708 48.8304 47.964 48.9904 48.188C49.1584 48.412 49.4184 48.592 49.7704 48.728C50.1224 48.856 50.5704 48.92 51.1144 48.92V49.808ZM59.6999 50C59.4199 50 59.1399 49.928 58.8599 49.784C58.5799 49.632 58.3439 49.396 58.1519 49.076C57.9599 48.756 57.8639 48.352 57.8639 47.864H58.7039C58.7039 48.208 58.7879 48.472 58.9559 48.656C59.1239 48.832 59.3719 48.92 59.6999 48.92H60.1439L60.2039 49.46L60.1439 50H59.6999ZM53.4359 48.92H56.6999C57.0599 48.92 57.3279 48.844 57.5039 48.692C57.6879 48.532 57.7799 48.256 57.7799 47.864V42.212H58.7039V47.864C58.7039 48.352 58.5999 48.756 58.3919 49.076C58.1919 49.396 57.9439 49.632 57.6479 49.784C57.3519 49.928 57.0639 50 56.7839 50H53.4359V48.92ZM53.8439 42.416L54.7799 42.344L55.1039 47.972L54.1679 48.044L53.8439 42.416ZM60.0298 48.92H65.0698C65.5498 48.92 65.9218 48.812 66.1858 48.596C66.4578 48.372 66.5938 48.048 66.5938 47.624C66.5938 47.16 66.4938 46.8 66.2938 46.544C66.0938 46.288 65.7858 46.16 65.3698 46.16C65.1138 46.16 64.8978 46.196 64.7218 46.268C64.5458 46.34 64.3738 46.464 64.2058 46.64C64.0378 46.816 63.8298 47.076 63.5818 47.42L62.0578 49.556L61.3258 49.076L62.8138 46.796C63.2218 46.18 63.6138 45.74 63.9898 45.476C64.3738 45.212 64.8338 45.08 65.3698 45.08C65.8178 45.08 66.2018 45.196 66.5218 45.428C66.8498 45.66 67.0978 45.972 67.2658 46.364C67.4418 46.748 67.5298 47.168 67.5298 47.624C67.5298 48.104 67.4178 48.524 67.1938 48.884C66.9698 49.244 66.6698 49.52 66.2938 49.712C65.9178 49.904 65.5098 50 65.0698 50H60.0298V48.92ZM61.7218 42.212H62.6578L62.6698 48.428L61.7338 48.92L61.7218 42.212ZM69.2089 42.212H70.1449L70.1569 50H69.2209L69.2089 42.212Z" fill="#A72F3B"/>
<path d="M225.333 33C225.333 30.0545 222.946 27.6667 220 27.6667C217.054 27.6667 214.667 30.0545 214.667 33C214.667 35.9455 217.054 38.3333 220 38.3333C222.946 38.3333 225.333 35.9455 225.333 33ZM100.333 33C100.333 30.0545 97.9455 27.6667 95 27.6667C92.0545 27.6667 89.6667 30.0545 89.6667 33C89.6667 35.9455 92.0545 38.3333 95 38.3333C97.9455 38.3333 100.333 35.9455 100.333 33ZM220 32L218.047 32L218.047 34L220 34L220 32ZM214.141 32L210.234 32L210.234 34L214.141 34L214.141 32ZM206.328 32L202.422 32L202.422 34L206.328 34L206.328 32ZM198.516 32L194.609 32L194.609 34L198.516 34L198.516 32ZM190.703 32L186.797 32L186.797 34L190.703 34L190.703 32ZM182.891 32L178.984 32L178.984 34L182.891 34L182.891 32ZM175.078 32L171.172 32L171.172 34L175.078 34L175.078 32ZM167.266 32L163.359 32L163.359 34L167.266 34L167.266 32ZM159.453 32L155.547 32L155.547 34L159.453 34L159.453 32ZM151.641 32L147.734 32L147.734 34L151.641 34L151.641 32ZM143.828 32L139.922 32L139.922 34L143.828 34L143.828 32ZM136.016 32L132.109 32L132.109 34L136.016 34L136.016 32ZM128.203 32L124.297 32L124.297 34L128.203 34L128.203 32ZM120.391 32L116.484 32L116.484 34L120.391 34L120.391 32ZM112.578 32L108.672 32L108.672 34L112.578 34L112.578 32ZM104.766 32L100.859 32L100.859 34L104.766 34L104.766 32ZM96.9531 32L95 32L95 34L96.9531 34L96.9531 32Z" fill="#EDD5D8"/>
<path d="M275.5 20.75C272.33 20.75 269.75 18.17 269.75 15C269.75 11.83 272.33 9.25 275.5 9.25C278.67 9.25 281.25 11.83 281.25 15C281.25 18.17 278.67 20.75 275.5 20.75ZM275.5 10.75C273.16 10.75 271.25 12.66 271.25 15C271.25 17.34 273.16 19.25 275.5 19.25C277.84 19.25 279.75 17.34 279.75 15C279.75 12.66 277.84 10.75 275.5 10.75Z" fill="#B95962"/>
<path d="M284.09 30.75C283.68 30.75 283.34 30.41 283.34 30C283.34 26.55 279.82 23.75 275.5 23.75C271.18 23.75 267.66 26.55 267.66 30C267.66 30.41 267.32 30.75 266.91 30.75C266.5 30.75 266.16 30.41 266.16 30C266.16 25.73 270.35 22.25 275.5 22.25C280.65 22.25 284.84 25.73 284.84 30C284.84 30.41 284.5 30.75 284.09 30.75Z" fill="#B95962"/>
<path d="M248.721 46.304V49.688C248.721 50.408 248.597 51.016 248.349 51.512C248.109 52.008 247.753 52.384 247.281 52.64C246.809 52.896 246.233 53.024 245.553 53.024H244.797V51.944H245.553C246.089 51.944 246.517 51.868 246.837 51.716C247.165 51.564 247.405 51.324 247.557 50.996C247.709 50.668 247.785 50.232 247.785 49.688V46.304H248.721ZM248.721 48.008C248.721 48.336 248.801 48.572 248.961 48.716C249.121 48.852 249.373 48.92 249.717 48.92H249.837L249.909 49.472L249.837 50H249.717C249.437 50 249.181 49.94 248.949 49.82C248.717 49.7 248.525 49.492 248.373 49.196C248.229 48.9 248.157 48.504 248.157 48.008H248.721ZM249.717 48.92H251.037C251.405 48.92 251.669 48.84 251.829 48.68C251.997 48.512 252.073 48.288 252.057 48.008C252.041 47.776 251.993 47.448 251.913 47.024C251.841 46.6 251.765 46.204 251.685 45.836L252.597 45.596C252.685 45.964 252.769 46.384 252.849 46.856C252.929 47.32 252.977 47.696 252.993 47.984C253.009 48.32 252.941 48.644 252.789 48.956C252.645 49.268 252.421 49.52 252.117 49.712C251.821 49.904 251.461 50 251.037 50H249.717V48.92ZM250.593 51.824C250.801 51.824 251.005 51.824 251.205 51.824C251.405 51.824 251.601 51.824 251.793 51.824C251.793 52.096 251.793 52.296 251.793 52.424C251.793 52.56 251.793 52.76 251.793 53.024C251.521 53.024 251.317 53.024 251.181 53.024C251.053 53.024 250.857 53.024 250.593 53.024C250.593 52.752 250.593 52.548 250.593 52.412C250.593 52.284 250.593 52.088 250.593 51.824ZM256.315 46.304V49.688C256.315 50.408 256.191 51.016 255.943 51.512C255.703 52.008 255.347 52.384 254.875 52.64C254.403 52.896 253.827 53.024 253.147 53.024H252.391V51.944H253.147C253.683 51.944 254.111 51.868 254.431 51.716C254.759 51.564 254.999 51.324 255.151 50.996C255.303 50.668 255.379 50.232 255.379 49.688V46.304H256.315ZM260.047 50C259.503 50 259.079 49.9 258.775 49.7C258.471 49.492 258.255 49.204 258.127 48.836C258.007 48.468 257.947 48.012 257.947 47.468L257.935 42.212H258.871L258.883 47.468C258.883 47.9 258.907 48.212 258.955 48.404C259.011 48.596 259.115 48.732 259.267 48.812C259.427 48.884 259.687 48.92 260.047 48.92H260.227L260.287 49.472L260.227 50H260.047ZM265.74 42.812L261.96 44.48L264.144 46.7C264.536 47.092 264.74 47.552 264.756 48.08C264.772 48.608 264.6 49.06 264.24 49.436C263.888 49.812 263.404 50 262.788 50H260.112V48.92H262.788C263.164 48.92 263.444 48.848 263.628 48.704C263.82 48.56 263.9 48.376 263.868 48.152C263.844 47.92 263.712 47.684 263.472 47.444L260.94 44.9L261.228 43.64L265.356 41.828L265.74 42.812ZM271.359 50C270.895 50 270.487 49.896 270.135 49.688C269.783 49.472 269.519 49.184 269.343 48.824C269.167 48.464 269.103 48.076 269.151 47.66C269.191 47.292 269.323 46.644 269.547 45.716L270.423 45.944L270.375 46.16C270.183 46.976 270.075 47.512 270.051 47.768C270.011 48.12 270.103 48.4 270.327 48.608C270.551 48.816 270.895 48.92 271.359 48.92H276.543C276.935 48.92 277.227 48.812 277.419 48.596C277.619 48.38 277.719 48.12 277.719 47.816C277.719 47.464 277.595 46.732 277.347 45.62L278.259 45.38C278.523 46.524 278.655 47.336 278.655 47.816C278.655 48.152 278.571 48.492 278.403 48.836C278.235 49.172 277.991 49.452 277.671 49.676C277.351 49.892 276.975 50 276.543 50H271.359ZM272.259 44.828C272.435 44.828 272.567 44.828 272.655 44.828C272.751 44.828 272.891 44.828 273.075 44.828C273.203 44.828 273.331 44.828 273.459 44.828C273.459 45.1 273.459 45.304 273.459 45.44C273.459 45.568 273.459 45.764 273.459 46.028C273.187 46.028 272.983 46.028 272.847 46.028C272.719 46.028 272.523 46.028 272.259 46.028C272.259 45.756 272.259 45.556 272.259 45.428C272.259 45.292 272.259 45.092 272.259 44.828ZM274.407 44.828C274.679 44.828 274.879 44.828 275.007 44.828C275.143 44.828 275.343 44.828 275.607 44.828C275.607 45.1 275.607 45.304 275.607 45.44C275.607 45.568 275.607 45.764 275.607 46.028C275.335 46.028 275.131 46.028 274.995 46.028C274.867 46.028 274.671 46.028 274.407 46.028C274.407 45.756 274.407 45.556 274.407 45.428C274.407 45.292 274.407 45.092 274.407 44.828ZM282.442 50C281.898 50 281.474 49.9 281.17 49.7C280.866 49.492 280.65 49.204 280.522 48.836C280.402 48.468 280.342 48.012 280.342 47.468L280.33 42.212H281.266L281.278 47.468C281.278 47.9 281.302 48.212 281.35 48.404C281.406 48.596 281.51 48.732 281.662 48.812C281.822 48.884 282.082 48.92 282.442 48.92H282.622L282.682 49.472L282.622 50H282.442ZM288.23 50H282.506V48.92H288.23V50ZM287.114 49.808C286.442 49.808 285.858 49.708 285.362 49.508C284.866 49.3 284.482 49.016 284.21 48.656C283.946 48.288 283.814 47.876 283.814 47.42C283.814 47.02 283.91 46.656 284.102 46.328C284.294 45.992 284.554 45.728 284.882 45.536C285.21 45.336 285.566 45.236 285.95 45.236C286.31 45.236 286.61 45.288 286.85 45.392C287.09 45.496 287.39 45.672 287.75 45.92L288.002 46.088L287.534 46.856C287.47 46.816 287.406 46.78 287.342 46.748C286.982 46.556 286.714 46.428 286.538 46.364C286.37 46.292 286.174 46.256 285.95 46.256C285.622 46.256 285.338 46.368 285.098 46.592C284.866 46.816 284.75 47.092 284.75 47.42C284.75 47.708 284.83 47.964 284.99 48.188C285.158 48.412 285.418 48.592 285.77 48.728C286.122 48.856 286.57 48.92 287.114 48.92V49.808ZM295.7 50C295.42 50 295.14 49.928 294.86 49.784C294.58 49.632 294.344 49.396 294.152 49.076C293.96 48.756 293.864 48.352 293.864 47.864H294.704C294.704 48.208 294.788 48.472 294.956 48.656C295.124 48.832 295.372 48.92 295.7 48.92H296.144L296.204 49.46L296.144 50H295.7ZM289.436 48.92H292.7C293.06 48.92 293.328 48.844 293.504 48.692C293.688 48.532 293.78 48.256 293.78 47.864V42.212H294.704V47.864C294.704 48.352 294.6 48.756 294.392 49.076C294.192 49.396 293.944 49.632 293.648 49.784C293.352 49.928 293.064 50 292.784 50H289.436V48.92ZM289.844 42.416L290.78 42.344L291.104 47.972L290.168 48.044L289.844 42.416ZM296.03 48.92H301.07C301.55 48.92 301.922 48.812 302.186 48.596C302.458 48.372 302.594 48.048 302.594 47.624C302.594 47.16 302.494 46.8 302.294 46.544C302.094 46.288 301.786 46.16 301.37 46.16C301.114 46.16 300.898 46.196 300.722 46.268C300.546 46.34 300.374 46.464 300.206 46.64C300.038 46.816 299.83 47.076 299.582 47.42L298.058 49.556L297.326 49.076L298.814 46.796C299.222 46.18 299.614 45.74 299.99 45.476C300.374 45.212 300.834 45.08 301.37 45.08C301.818 45.08 302.202 45.196 302.522 45.428C302.85 45.66 303.098 45.972 303.266 46.364C303.442 46.748 303.53 47.168 303.53 47.624C303.53 48.104 303.418 48.524 303.194 48.884C302.97 49.244 302.67 49.52 302.294 49.712C301.918 49.904 301.51 50 301.07 50H296.03V48.92ZM297.722 42.212H298.658L298.67 48.428L297.734 48.92L297.722 42.212ZM305.209 42.212H306.145L306.157 50H305.221L305.209 42.212Z" fill="#B95962"/>
</svg>
