<svg width="521" height="50" viewBox="0 0 521 50" fill="none" xmlns="http://www.w3.org/2000/svg">
<path d="M28.55 16.2522H26.67C25.34 16.2522 24.25 15.1322 24.25 13.7522C24.25 13.3422 24.59 13.0022 25 13.0022C25.41 13.0022 25.75 13.3422 25.75 13.7522C25.75 14.3022 26.16 14.7522 26.67 14.7522H28.55C28.94 14.7522 29.25 14.4022 29.25 13.9722C29.25 13.4322 29.1 13.3522 28.76 13.2322L25.75 12.1822C25.11 11.9522 24.25 11.4922 24.25 10.0222C24.25 8.77219 25.24 7.74219 26.45 7.74219H28.33C29.66 7.74219 30.75 8.86219 30.75 10.2422C30.75 10.6522 30.41 10.9922 30 10.9922C29.59 10.9922 29.25 10.6522 29.25 10.2422C29.25 9.69219 28.84 9.24219 28.33 9.24219H26.45C26.06 9.24219 25.75 9.59219 25.75 10.0222C25.75 10.5622 25.9 10.6422 26.24 10.7622L29.25 11.8122C29.89 12.0422 30.75 12.5022 30.75 13.9722C30.75 15.2322 29.76 16.2522 28.55 16.2522Z" fill="#E5C1C4"/>
<path d="M27.5 17.25C27.09 17.25 26.75 16.91 26.75 16.5V7.5C26.75 7.09 27.09 6.75 27.5 6.75C27.91 6.75 28.25 7.09 28.25 7.5V16.5C28.25 16.91 27.91 17.25 27.5 17.25Z" fill="#E5C1C4"/>
<path d="M27.5 22.75C21.57 22.75 16.75 17.93 16.75 12C16.75 6.07 21.57 1.25 27.5 1.25C27.91 1.25 28.25 1.59 28.25 2C28.25 2.41 27.91 2.75 27.5 2.75C22.4 2.75 18.25 6.9 18.25 12C18.25 17.1 22.4 21.25 27.5 21.25C32.6 21.25 36.75 17.1 36.75 12C36.75 11.59 37.09 11.25 37.5 11.25C37.91 11.25 38.25 11.59 38.25 12C38.25 17.93 33.43 22.75 27.5 22.75Z" fill="#E5C1C4"/>
<path d="M37.5 6.75C37.09 6.75 36.75 6.41 36.75 6V2.75H33.5C33.09 2.75 32.75 2.41 32.75 2C32.75 1.59 33.09 1.25 33.5 1.25H37.5C37.91 1.25 38.25 1.59 38.25 2V6C38.25 6.41 37.91 6.75 37.5 6.75Z" fill="#E5C1C4"/>
<path d="M32.4995 7.75141C32.3095 7.75141 32.1195 7.6814 31.9695 7.5314C31.6795 7.2414 31.6795 6.76141 31.9695 6.47141L36.9695 1.47141C37.2595 1.18141 37.7395 1.18141 38.0295 1.47141C38.3195 1.76141 38.3195 2.2414 38.0295 2.5314L33.0295 7.5314C32.8795 7.6814 32.6895 7.75141 32.4995 7.75141Z" fill="#E5C1C4"/>
<path d="M12.3513 42C11.8873 42 11.4793 41.896 11.1273 41.688C10.7753 41.472 10.5113 41.184 10.3353 40.824C10.1593 40.464 10.0953 40.076 10.1433 39.66C10.1833 39.292 10.3153 38.644 10.5393 37.716L11.4153 37.944L11.3673 38.16C11.1753 38.976 11.0673 39.512 11.0433 39.768C11.0033 40.12 11.0953 40.4 11.3193 40.608C11.5433 40.816 11.8873 40.92 12.3513 40.92H17.5353C17.9433 40.92 18.2473 40.836 18.4473 40.668C18.6473 40.5 18.7473 40.232 18.7473 39.864V38.304H19.6833V40.008C19.6833 40.336 19.7633 40.572 19.9233 40.716C20.0833 40.852 20.3353 40.92 20.6793 40.92H21.1233L21.1833 41.436L21.1233 42H20.6793C20.4233 42 20.1553 41.936 19.8753 41.808C19.5953 41.68 19.3593 41.488 19.1673 41.232C18.9753 41.48 18.7313 41.672 18.4353 41.808C18.1393 41.936 17.8393 42 17.5353 42H12.3513ZM13.4553 36.852C13.6313 36.852 13.7633 36.852 13.8513 36.852C13.9473 36.852 14.0873 36.852 14.2713 36.852C14.3993 36.852 14.5273 36.852 14.6553 36.852C14.6553 37.124 14.6553 37.328 14.6553 37.464C14.6553 37.592 14.6553 37.788 14.6553 38.052C14.3833 38.052 14.1793 38.052 14.0433 38.052C13.9153 38.052 13.7193 38.052 13.4553 38.052C13.4553 37.78 13.4553 37.58 13.4553 37.452C13.4553 37.316 13.4553 37.116 13.4553 36.852ZM15.6033 36.852C15.8753 36.852 16.0753 36.852 16.2033 36.852C16.3393 36.852 16.5393 36.852 16.8033 36.852C16.8033 37.124 16.8033 37.328 16.8033 37.464C16.8033 37.592 16.8033 37.788 16.8033 38.052C16.5313 38.052 16.3273 38.052 16.1913 38.052C16.0633 38.052 15.8673 38.052 15.6033 38.052C15.6033 37.78 15.6033 37.58 15.6033 37.452C15.6033 37.316 15.6033 37.116 15.6033 36.852ZM20.9545 40.92H22.4425C22.9785 40.92 23.4785 40.856 23.9425 40.728C24.4065 40.592 24.8345 40.424 25.2265 40.224C25.6185 40.016 26.1105 39.732 26.7025 39.372L27.0985 39.132L27.0745 39.396L26.3305 39.084C25.6025 38.78 25.0185 38.552 24.5785 38.4C24.1465 38.24 23.8425 38.16 23.6665 38.16C23.4265 38.16 23.2385 38.216 23.1025 38.328C22.9745 38.432 22.8505 38.648 22.7305 38.976L21.8185 38.688C22.0105 38.12 22.2665 37.712 22.5865 37.464C22.9065 37.208 23.2665 37.08 23.6665 37.08C23.9385 37.08 24.3545 37.184 24.9145 37.392C25.4825 37.6 26.2705 37.916 27.2785 38.34C27.4785 38.42 27.6745 38.5 27.8665 38.58L28.1065 39.72L27.4705 40.116C26.7745 40.556 26.1985 40.9 25.7425 41.148C25.2865 41.396 24.7825 41.6 24.2305 41.76C23.6865 41.92 23.0905 42 22.4425 42H20.9545V40.92ZM23.2585 34.74C23.4665 34.74 23.6705 34.74 23.8705 34.74C24.0705 34.74 24.2665 34.74 24.4585 34.74C24.4585 35.012 24.4585 35.216 24.4585 35.352C24.4585 35.48 24.4585 35.676 24.4585 35.94C24.1865 35.94 23.9825 35.94 23.8465 35.94C23.7185 35.94 23.5225 35.94 23.2585 35.94C23.2585 35.668 23.2585 35.468 23.2585 35.34C23.2585 35.204 23.2585 35.004 23.2585 34.74ZM29.7831 34.212H30.7191L30.7311 42H29.7951L29.7831 34.212ZM35.3662 36.96C35.6542 37.408 35.8662 37.744 36.0022 37.968C36.1462 38.184 36.3582 38.508 36.6382 38.94C36.8622 39.284 36.9862 39.668 37.0102 40.092C37.0422 40.516 36.9622 40.864 36.7702 41.136C36.5382 41.464 36.2582 41.692 35.9302 41.82C35.6022 41.94 35.2422 42 34.8502 42H34.2022C33.7702 42 33.3782 41.94 33.0262 41.82C32.6822 41.692 32.3982 41.548 32.1742 41.388L32.6662 40.476L32.7262 40.512C32.9102 40.624 33.1142 40.72 33.3382 40.8C33.5622 40.88 33.8502 40.92 34.2022 40.92H34.8502C35.1382 40.92 35.3742 40.892 35.5582 40.836C35.7502 40.772 35.8982 40.664 36.0022 40.512C36.0902 40.392 36.1222 40.256 36.0982 40.104C36.0742 39.944 35.9902 39.748 35.8462 39.516C35.0942 38.332 34.4862 37.396 34.0222 36.708L34.8142 36.108L35.3662 36.96ZM40.3498 38.304V41.688C40.3498 42.408 40.2258 43.016 39.9778 43.512C39.7378 44.008 39.3818 44.384 38.9098 44.64C38.4378 44.896 37.8618 45.024 37.1818 45.024H36.4258V43.944H37.1818C37.7178 43.944 38.1458 43.868 38.4658 43.716C38.7938 43.564 39.0338 43.324 39.1858 42.996C39.3378 42.668 39.4138 42.232 39.4138 41.688V38.304H40.3498ZM40.3498 40.008C40.3498 40.336 40.4298 40.572 40.5898 40.716C40.7498 40.852 41.0018 40.92 41.3458 40.92H41.4658L41.5378 41.472L41.4658 42H41.3458C41.0658 42 40.8098 41.94 40.5778 41.82C40.3458 41.7 40.1538 41.492 40.0018 41.196C39.8578 40.9 39.7858 40.504 39.7858 40.008H40.3498ZM41.6103 40.92H43.2303C43.6943 40.92 44.0183 40.84 44.2023 40.68C44.3943 40.52 44.4823 40.296 44.4663 40.008C44.4503 39.776 44.4023 39.448 44.3223 39.024C44.2503 38.6 44.1743 38.204 44.0943 37.836L45.0063 37.596C45.0943 37.964 45.1783 38.384 45.2583 38.856C45.3383 39.32 45.3863 39.696 45.4023 39.984C45.4183 40.328 45.3463 40.656 45.1863 40.968C45.0343 41.272 44.7903 41.52 44.4543 41.712C44.1263 41.904 43.7183 42 43.2303 42H41.6103V40.92ZM42.8223 45.948C42.8223 45.692 42.8223 45.5 42.8223 45.372C42.8223 45.244 42.8223 45.056 42.8223 44.808C43.0783 44.808 43.2703 44.808 43.3983 44.808C43.5263 44.808 43.7143 44.808 43.9623 44.808C43.9623 45.064 43.9623 45.256 43.9623 45.384C43.9623 45.512 43.9623 45.7 43.9623 45.948C43.7063 45.948 43.5143 45.948 43.3863 45.948C43.2663 45.948 43.0783 45.948 42.8223 45.948ZM41.6823 44.4C41.6823 44.128 41.6823 43.924 41.6823 43.788C41.6823 43.66 41.6823 43.464 41.6823 43.2C41.9543 43.2 42.1543 43.2 42.2823 43.2C42.4183 43.2 42.6183 43.2 42.8823 43.2C42.8823 43.472 42.8823 43.672 42.8823 43.8C42.8823 43.936 42.8823 44.136 42.8823 44.4C42.7543 44.4 42.6223 44.4 42.4863 44.4C42.3103 44.4 42.1743 44.4 42.0783 44.4C41.9903 44.4 41.8583 44.4 41.6823 44.4ZM43.8903 44.4C43.8903 44.128 43.8903 43.924 43.8903 43.788C43.8903 43.66 43.8903 43.464 43.8903 43.2C44.1623 43.2 44.3623 43.2 44.4902 43.2C44.6263 43.2 44.8263 43.2 45.0903 43.2C45.0903 43.472 45.0903 43.672 45.0903 43.8C45.0903 43.936 45.0903 44.136 45.0903 44.4C44.8183 44.4 44.6143 44.4 44.4783 44.4C44.3503 44.4 44.1543 44.4 43.8903 44.4ZM41.3822 40.92H41.6943L41.7423 41.46L41.6943 42H41.3822V40.92Z" fill="#E5C1C4"/>
<path d="M200.333 25C200.333 22.0545 197.946 19.6667 195 19.6667C192.054 19.6667 189.667 22.0545 189.667 25C189.667 27.9455 192.054 30.3333 195 30.3333C197.946 30.3333 200.333 27.9455 200.333 25ZM75.3333 25C75.3333 22.0545 72.9455 19.6667 70 19.6667C67.0545 19.6667 64.6667 22.0545 64.6667 25C64.6667 27.9455 67.0545 30.3333 70 30.3333C72.9455 30.3333 75.3333 27.9455 75.3333 25ZM195 24L193.047 24L193.047 26L195 26L195 24ZM189.141 24L185.234 24L185.234 26L189.141 26L189.141 24ZM181.328 24L177.422 24L177.422 26L181.328 26L181.328 24ZM173.516 24L169.609 24L169.609 26L173.516 26L173.516 24ZM165.703 24L161.797 24L161.797 26L165.703 26L165.703 24ZM157.891 24L153.984 24L153.984 26L157.891 26L157.891 24ZM150.078 24L146.172 24L146.172 26L150.078 26L150.078 24ZM142.266 24L138.359 24L138.359 26L142.266 26L142.266 24ZM134.453 24L130.547 24L130.547 26L134.453 26L134.453 24ZM126.641 24L122.734 24L122.734 26L126.641 26L126.641 24ZM118.828 24L114.922 24L114.922 26L118.828 26L118.828 24ZM111.016 24L107.109 24L107.109 26L111.016 26L111.016 24ZM103.203 24L99.2969 24L99.2969 26L103.203 26L103.203 24ZM95.3906 24L91.4844 24L91.4844 26L95.3906 26L95.3906 24ZM87.5781 24L83.6719 24L83.6719 26L87.5781 26L87.5781 24ZM79.7656 24L75.8594 24L75.8594 26L79.7656 26L79.7656 24ZM71.9531 24L70 24L70 26L71.9531 26L71.9531 24Z" fill="#EDD5D8"/>
<path d="M253.501 14.1714C251.371 14.1714 249.631 12.4414 249.631 10.3014C249.631 8.16141 251.371 6.44141 253.501 6.44141C255.631 6.44141 257.371 8.17141 257.371 10.3114C257.371 12.4514 255.631 14.1714 253.501 14.1714ZM253.501 7.94141C252.201 7.94141 251.131 9.00141 251.131 10.3114C251.131 11.6214 252.191 12.6814 253.501 12.6814C254.811 12.6814 255.871 11.6214 255.871 10.3114C255.871 9.00141 254.801 7.94141 253.501 7.94141Z" fill="#E5C1C4"/>
<path d="M253.5 22.76C252.02 22.76 250.53 22.2 249.37 21.09C246.42 18.25 243.16 13.72 244.39 8.33C245.5 3.44 249.77 1.25 253.5 1.25C253.5 1.25 253.5 1.25 253.51 1.25C257.24 1.25 261.51 3.44 262.62 8.34C263.84 13.73 260.58 18.25 257.63 21.09C256.47 22.2 254.98 22.76 253.5 22.76ZM253.5 2.75C250.59 2.75 246.85 4.3 245.86 8.66C244.78 13.37 247.74 17.43 250.42 20C252.15 21.67 254.86 21.67 256.59 20C259.26 17.43 262.22 13.37 261.16 8.66C260.16 4.3 256.41 2.75 253.5 2.75Z" fill="#E5C1C4"/>
<path d="M221.442 38.976C221.226 39.416 221.058 39.844 220.938 40.26C220.826 40.668 220.77 41.088 220.77 41.52C220.77 41.992 220.846 42.408 220.998 42.768C221.15 43.136 221.386 43.424 221.706 43.632C222.026 43.84 222.434 43.944 222.93 43.944H224.214C224.758 43.944 225.182 43.88 225.486 43.752C225.79 43.632 226.006 43.436 226.134 43.164C226.262 42.9 226.326 42.536 226.326 42.072V38.304H227.262V42.072C227.262 43 227.018 43.724 226.53 44.244C226.042 44.764 225.27 45.024 224.214 45.024H222.93C222.266 45.024 221.702 44.86 221.238 44.532C220.774 44.204 220.422 43.772 220.182 43.236C219.95 42.7 219.834 42.128 219.834 41.52C219.834 40.984 219.91 40.464 220.062 39.96C220.214 39.456 220.41 38.984 220.65 38.544L221.442 38.976ZM227.262 39.576C227.262 40.088 227.358 40.44 227.55 40.632C227.75 40.824 228.03 40.92 228.39 40.92C228.782 40.92 229.058 40.836 229.218 40.668C229.386 40.5 229.47 40.232 229.47 39.864V38.304H230.406V40.008C230.406 40.328 230.482 40.56 230.634 40.704C230.794 40.84 231.038 40.912 231.366 40.92C231.718 40.912 231.974 40.828 232.134 40.668C232.294 40.5 232.366 40.28 232.35 40.008C232.334 39.776 232.286 39.448 232.206 39.024C232.134 38.6 232.058 38.204 231.978 37.836L232.89 37.596C232.978 37.964 233.062 38.384 233.142 38.856C233.222 39.32 233.27 39.696 233.286 39.984C233.302 40.312 233.238 40.632 233.094 40.944C232.95 41.256 232.73 41.512 232.434 41.712C232.138 41.904 231.782 42 231.366 42C231.11 42 230.846 41.94 230.574 41.82C230.31 41.692 230.082 41.496 229.89 41.232C229.698 41.488 229.478 41.68 229.23 41.808C228.982 41.936 228.702 42 228.39 42C228.03 42 227.71 41.912 227.43 41.736C227.158 41.56 226.942 41.292 226.782 40.932C226.63 40.564 226.554 40.112 226.554 39.576H227.262ZM236.612 38.304V41.688C236.612 42.408 236.488 43.016 236.24 43.512C236 44.008 235.644 44.384 235.172 44.64C234.7 44.896 234.124 45.024 233.444 45.024H232.688V43.944H233.444C233.98 43.944 234.408 43.868 234.728 43.716C235.056 43.564 235.296 43.324 235.448 42.996C235.6 42.668 235.676 42.232 235.676 41.688V38.304H236.612ZM240.944 36.96C241.232 37.408 241.444 37.744 241.58 37.968C241.724 38.184 241.936 38.508 242.216 38.94C242.44 39.284 242.564 39.668 242.588 40.092C242.62 40.516 242.54 40.864 242.348 41.136C242.116 41.464 241.836 41.692 241.508 41.82C241.18 41.94 240.82 42 240.428 42H239.78C239.348 42 238.956 41.94 238.604 41.82C238.26 41.692 237.976 41.548 237.752 41.388L238.244 40.476L238.304 40.512C238.488 40.624 238.692 40.72 238.916 40.8C239.14 40.88 239.428 40.92 239.78 40.92H240.428C240.716 40.92 240.952 40.892 241.136 40.836C241.328 40.772 241.476 40.664 241.58 40.512C241.668 40.392 241.7 40.256 241.676 40.104C241.652 39.944 241.568 39.748 241.424 39.516C240.672 38.332 240.064 37.396 239.6 36.708L240.392 36.108L240.944 36.96ZM244.423 35.052H245.455V42H244.423V35.052ZM242.419 34.836C242.515 34.38 242.727 34.012 243.055 33.732C243.383 33.452 243.823 33.312 244.375 33.312H246.715V34.212H244.375C244.047 34.212 243.791 34.292 243.607 34.452C243.423 34.604 243.287 34.816 243.199 35.088L242.419 34.836ZM252.359 42C251.895 42 251.487 41.896 251.135 41.688C250.783 41.472 250.519 41.184 250.343 40.824C250.167 40.464 250.103 40.076 250.151 39.66C250.191 39.292 250.323 38.644 250.547 37.716L251.423 37.944L251.375 38.16C251.183 38.976 251.075 39.512 251.051 39.768C251.011 40.12 251.103 40.4 251.327 40.608C251.551 40.816 251.895 40.92 252.359 40.92H257.543C257.935 40.92 258.227 40.812 258.419 40.596C258.619 40.38 258.719 40.12 258.719 39.816C258.719 39.464 258.595 38.732 258.347 37.62L259.259 37.38C259.523 38.524 259.655 39.336 259.655 39.816C259.655 40.152 259.571 40.492 259.403 40.836C259.235 41.172 258.991 41.452 258.671 41.676C258.351 41.892 257.975 42 257.543 42H252.359ZM253.259 36.828C253.435 36.828 253.567 36.828 253.655 36.828C253.751 36.828 253.891 36.828 254.075 36.828C254.203 36.828 254.331 36.828 254.459 36.828C254.459 37.1 254.459 37.304 254.459 37.44C254.459 37.568 254.459 37.764 254.459 38.028C254.187 38.028 253.983 38.028 253.847 38.028C253.719 38.028 253.523 38.028 253.259 38.028C253.259 37.756 253.259 37.556 253.259 37.428C253.259 37.292 253.259 37.092 253.259 36.828ZM255.407 36.828C255.679 36.828 255.879 36.828 256.007 36.828C256.143 36.828 256.343 36.828 256.607 36.828C256.607 37.1 256.607 37.304 256.607 37.44C256.607 37.568 256.607 37.764 256.607 38.028C256.335 38.028 256.131 38.028 255.995 38.028C255.867 38.028 255.671 38.028 255.407 38.028C255.407 37.756 255.407 37.556 255.407 37.428C255.407 37.292 255.407 37.092 255.407 36.828ZM263.442 42C262.898 42 262.474 41.9 262.17 41.7C261.866 41.492 261.65 41.204 261.522 40.836C261.402 40.468 261.342 40.012 261.342 39.468L261.33 34.212H262.266L262.278 39.468C262.278 39.9 262.302 40.212 262.35 40.404C262.406 40.596 262.51 40.732 262.662 40.812C262.822 40.884 263.082 40.92 263.442 40.92H263.622L263.682 41.472L263.622 42H263.442ZM269.23 42H263.506V40.92H269.23V42ZM268.114 41.808C267.442 41.808 266.858 41.708 266.362 41.508C265.866 41.3 265.482 41.016 265.21 40.656C264.946 40.288 264.814 39.876 264.814 39.42C264.814 39.02 264.91 38.656 265.102 38.328C265.294 37.992 265.554 37.728 265.882 37.536C266.21 37.336 266.566 37.236 266.95 37.236C267.31 37.236 267.61 37.288 267.85 37.392C268.09 37.496 268.39 37.672 268.75 37.92L269.002 38.088L268.534 38.856C268.47 38.816 268.406 38.78 268.342 38.748C267.982 38.556 267.714 38.428 267.538 38.364C267.37 38.292 267.174 38.256 266.95 38.256C266.622 38.256 266.338 38.368 266.098 38.592C265.866 38.816 265.75 39.092 265.75 39.42C265.75 39.708 265.83 39.964 265.99 40.188C266.158 40.412 266.418 40.592 266.77 40.728C267.122 40.856 267.57 40.92 268.114 40.92V41.808ZM276.7 42C276.42 42 276.14 41.928 275.86 41.784C275.58 41.632 275.344 41.396 275.152 41.076C274.96 40.756 274.864 40.352 274.864 39.864H275.704C275.704 40.208 275.788 40.472 275.956 40.656C276.124 40.832 276.372 40.92 276.7 40.92H277.144L277.204 41.46L277.144 42H276.7ZM270.436 40.92H273.7C274.06 40.92 274.328 40.844 274.504 40.692C274.688 40.532 274.78 40.256 274.78 39.864V34.212H275.704V39.864C275.704 40.352 275.6 40.756 275.392 41.076C275.192 41.396 274.944 41.632 274.648 41.784C274.352 41.928 274.064 42 273.784 42H270.436V40.92ZM270.844 34.416L271.78 34.344L272.104 39.972L271.168 40.044L270.844 34.416ZM277.03 40.92H282.07C282.55 40.92 282.922 40.812 283.186 40.596C283.458 40.372 283.594 40.048 283.594 39.624C283.594 39.16 283.494 38.8 283.294 38.544C283.094 38.288 282.786 38.16 282.37 38.16C282.114 38.16 281.898 38.196 281.722 38.268C281.546 38.34 281.374 38.464 281.206 38.64C281.038 38.816 280.83 39.076 280.582 39.42L279.058 41.556L278.326 41.076L279.814 38.796C280.222 38.18 280.614 37.74 280.99 37.476C281.374 37.212 281.834 37.08 282.37 37.08C282.818 37.08 283.202 37.196 283.522 37.428C283.85 37.66 284.098 37.972 284.266 38.364C284.442 38.748 284.53 39.168 284.53 39.624C284.53 40.104 284.418 40.524 284.194 40.884C283.97 41.244 283.67 41.52 283.294 41.712C282.918 41.904 282.51 42 282.07 42H277.03V40.92ZM278.722 34.212H279.658L279.67 40.428L278.734 40.92L278.722 34.212ZM286.209 34.212H287.145L287.157 42H286.221L286.209 34.212Z" fill="#E5C1C4"/>
<path d="M442.333 25C442.333 22.0545 439.946 19.6667 437 19.6667C434.054 19.6667 431.667 22.0545 431.667 25C431.667 27.9455 434.054 30.3333 437 30.3333C439.946 30.3333 442.333 27.9455 442.333 25ZM317.333 25C317.333 22.0545 314.946 19.6667 312 19.6667C309.054 19.6667 306.667 22.0545 306.667 25C306.667 27.9455 309.054 30.3333 312 30.3333C314.946 30.3333 317.333 27.9455 317.333 25ZM437 24L435.047 24L435.047 26L437 26L437 24ZM431.141 24L427.234 24L427.234 26L431.141 26L431.141 24ZM423.328 24L419.422 24L419.422 26L423.328 26L423.328 24ZM415.516 24L411.609 24L411.609 26L415.516 26L415.516 24ZM407.703 24L403.797 24L403.797 26L407.703 26L407.703 24ZM399.891 24L395.984 24L395.984 26L399.891 26L399.891 24ZM392.078 24L388.172 24L388.172 26L392.078 26L392.078 24ZM384.266 24L380.359 24L380.359 26L384.266 26L384.266 24ZM376.453 24L372.547 24L372.547 26L376.453 26L376.453 24ZM368.641 24L364.734 24L364.734 26L368.641 26L368.641 24ZM360.828 24L356.922 24L356.922 26L360.828 26L360.828 24ZM353.016 24L349.109 24L349.109 26L353.016 26L353.016 24ZM345.203 24L341.297 24L341.297 26L345.203 26L345.203 24ZM337.391 24L333.484 24L333.484 26L337.391 26L337.391 24ZM329.578 24L325.672 24L325.672 26L329.578 26L329.578 24ZM321.766 24L317.859 24L317.859 26L321.766 26L321.766 24ZM313.953 24L312 24L312 26L313.953 26L313.953 24Z" fill="#EDD5D8"/>
<path d="M490.75 22.5C491.716 22.5 492.5 21.7165 492.5 20.75C492.5 19.7835 491.716 19 490.75 19C489.784 19 489 19.7835 489 20.75C489 21.7165 489.784 22.5 490.75 22.5Z" fill="#A72F3B"/>
<path d="M482.75 22.5C483.716 22.5 484.5 21.7165 484.5 20.75C484.5 19.7835 483.716 19 482.75 19C481.784 19 481 19.7835 481 20.75C481 21.7165 481.784 22.5 482.75 22.5Z" fill="#A72F3B"/>
<path d="M479.34 3.94L479.14 6.39C479.1 6.86 479.47 7.25 479.94 7.25H495.25C495.67 7.25 496.02 6.93 496.05 6.51C496.18 4.74 494.83 3.3 493.06 3.3H480.77C480.67 2.86 480.47 2.44 480.16 2.09C479.66 1.56 478.96 1.25 478.24 1.25H476.5C476.09 1.25 475.75 1.59 475.75 2C475.75 2.41 476.09 2.75 476.5 2.75H478.24C478.55 2.75 478.84 2.88 479.05 3.1C479.26 3.33 479.36 3.63 479.34 3.94Z" fill="#A72F3B"/>
<path d="M495.01 8.75H479.67C479.25 8.75 478.91 9.07 478.87 9.48L478.51 13.83C478.37 15.54 479.71 17 481.42 17H492.54C494.04 17 495.36 15.77 495.47 14.27L495.8 9.6C495.84 9.14 495.48 8.75 495.01 8.75Z" fill="#A72F3B"/>
<path d="M465.098 36.084C465.186 36.292 465.462 36.896 465.926 37.896C466.07 38.208 466.214 38.524 466.358 38.844C466.55 39.244 466.666 39.64 466.706 40.032C466.754 40.416 466.662 40.772 466.43 41.1C466.19 41.444 465.898 41.68 465.554 41.808C465.218 41.936 464.854 42 464.462 42H463.85C463.418 42 463.034 41.936 462.698 41.808C462.362 41.672 462.074 41.52 461.834 41.352L462.326 40.44L462.386 40.476C462.594 40.596 462.81 40.7 463.034 40.788C463.258 40.876 463.53 40.92 463.85 40.92H464.462C464.75 40.92 464.994 40.888 465.194 40.824C465.394 40.752 465.55 40.636 465.662 40.476C465.766 40.332 465.802 40.18 465.77 40.02C465.746 39.852 465.662 39.612 465.518 39.3L464.702 37.548C464.518 37.172 464.362 36.836 464.234 36.54L465.098 36.084ZM466.37 38.856C466.602 39.376 466.802 39.78 466.97 40.068C467.146 40.356 467.33 40.572 467.522 40.716C467.714 40.852 467.938 40.92 468.194 40.92H468.386L468.446 41.496L468.386 42H468.194C467.786 42 467.426 41.892 467.114 41.676C466.802 41.452 466.522 41.148 466.274 40.764C466.034 40.38 465.778 39.888 465.506 39.288L466.37 38.856ZM468.264 40.92H469.884C470.348 40.92 470.672 40.84 470.856 40.68C471.048 40.52 471.136 40.296 471.12 40.008C471.104 39.776 471.056 39.448 470.976 39.024C470.904 38.6 470.828 38.204 470.748 37.836L471.66 37.596C471.748 37.964 471.832 38.384 471.912 38.856C471.992 39.32 472.04 39.696 472.056 39.984C472.072 40.328 472 40.656 471.84 40.968C471.688 41.272 471.444 41.52 471.108 41.712C470.78 41.904 470.372 42 469.884 42H468.264V40.92ZM467.796 43.836C467.972 43.836 468.108 43.836 468.204 43.836C468.292 43.836 468.428 43.836 468.612 43.836C468.74 43.836 468.868 43.836 468.996 43.836C468.996 44.108 468.996 44.308 468.996 44.436C468.996 44.572 468.996 44.772 468.996 45.036C468.724 45.036 468.52 45.036 468.384 45.036C468.256 45.036 468.06 45.036 467.796 45.036C467.796 44.764 467.796 44.56 467.796 44.424C467.796 44.296 467.796 44.1 467.796 43.836ZM469.944 43.836C470.216 43.836 470.416 43.836 470.544 43.836C470.68 43.836 470.88 43.836 471.144 43.836C471.144 44.108 471.144 44.308 471.144 44.436C471.144 44.572 471.144 44.772 471.144 45.036C470.872 45.036 470.668 45.036 470.532 45.036C470.404 45.036 470.208 45.036 469.944 45.036C469.944 44.764 469.944 44.56 469.944 44.424C469.944 44.296 469.944 44.1 469.944 43.836ZM476.584 38.304V41.688C476.584 42.408 476.46 43.016 476.212 43.512C475.972 44.008 475.616 44.384 475.144 44.64C474.672 44.896 474.096 45.024 473.416 45.024H472.66V43.944H473.416C473.952 43.944 474.38 43.868 474.7 43.716C475.028 43.564 475.268 43.324 475.42 42.996C475.572 42.668 475.648 42.232 475.648 41.688V38.304H476.584ZM476.584 40.008C476.584 40.336 476.664 40.572 476.824 40.716C476.984 40.852 477.236 40.92 477.58 40.92H477.7L477.772 41.472L477.7 42H477.58C477.3 42 477.044 41.94 476.812 41.82C476.58 41.7 476.388 41.492 476.236 41.196C476.092 40.9 476.02 40.504 476.02 40.008H476.584ZM477.533 40.92H479.021C479.557 40.92 480.057 40.856 480.521 40.728C480.985 40.592 481.413 40.424 481.805 40.224C482.197 40.016 482.689 39.732 483.281 39.372L483.677 39.132L483.653 39.396L482.909 39.084C482.181 38.78 481.597 38.552 481.157 38.4C480.725 38.24 480.421 38.16 480.245 38.16C480.005 38.16 479.817 38.216 479.681 38.328C479.553 38.432 479.429 38.648 479.309 38.976L478.397 38.688C478.589 38.12 478.845 37.712 479.165 37.464C479.485 37.208 479.845 37.08 480.245 37.08C480.517 37.08 480.933 37.184 481.493 37.392C482.061 37.6 482.849 37.916 483.857 38.34C484.057 38.42 484.253 38.5 484.445 38.58L484.685 39.72L484.049 40.116C483.353 40.556 482.777 40.9 482.321 41.148C481.865 41.396 481.361 41.6 480.809 41.76C480.265 41.92 479.669 42 479.021 42H477.533V40.92ZM479.837 34.74C480.045 34.74 480.249 34.74 480.449 34.74C480.649 34.74 480.845 34.74 481.037 34.74C481.037 35.012 481.037 35.216 481.037 35.352C481.037 35.48 481.037 35.676 481.037 35.94C480.765 35.94 480.561 35.94 480.425 35.94C480.297 35.94 480.101 35.94 479.837 35.94C479.837 35.668 479.837 35.468 479.837 35.34C479.837 35.204 479.837 35.004 479.837 34.74ZM492.145 36.084C492.233 36.292 492.509 36.896 492.973 37.896C493.117 38.208 493.261 38.524 493.405 38.844C493.597 39.244 493.713 39.64 493.753 40.032C493.801 40.416 493.709 40.772 493.477 41.1C493.237 41.444 492.945 41.68 492.601 41.808C492.265 41.936 491.901 42 491.509 42H490.897C490.465 42 490.081 41.936 489.745 41.808C489.409 41.672 489.121 41.52 488.881 41.352L489.373 40.44L489.433 40.476C489.641 40.596 489.857 40.7 490.081 40.788C490.305 40.876 490.577 40.92 490.897 40.92H491.509C491.797 40.92 492.041 40.888 492.241 40.824C492.441 40.752 492.597 40.636 492.709 40.476C492.813 40.332 492.849 40.18 492.817 40.02C492.793 39.852 492.709 39.612 492.565 39.3L491.749 37.548C491.565 37.172 491.409 36.836 491.281 36.54L492.145 36.084ZM493.417 38.856C493.649 39.376 493.849 39.78 494.017 40.068C494.193 40.356 494.377 40.572 494.569 40.716C494.761 40.852 494.985 40.92 495.241 40.92H495.433L495.493 41.496L495.433 42H495.241C494.833 42 494.473 41.892 494.161 41.676C493.849 41.452 493.569 41.148 493.321 40.764C493.081 40.38 492.825 39.888 492.553 39.288L493.417 38.856ZM498.503 38.304V40.008C498.503 40.336 498.583 40.572 498.743 40.716C498.903 40.852 499.155 40.92 499.499 40.92H499.943L500.003 41.472L499.943 42H499.499C499.219 42 498.927 41.928 498.623 41.784C498.327 41.632 498.075 41.396 497.867 41.076C497.667 40.756 497.567 40.352 497.567 39.864V38.304H498.503ZM498.335 40.068C498.335 40.5 498.235 40.86 498.035 41.148C497.843 41.436 497.595 41.652 497.291 41.796C496.987 41.932 496.675 42 496.355 42H495.311V40.92H496.355C496.763 40.92 497.067 40.836 497.267 40.668C497.467 40.5 497.567 40.232 497.567 39.864L498.335 40.068ZM495.479 43.836C495.687 43.836 495.891 43.836 496.091 43.836C496.291 43.836 496.487 43.836 496.679 43.836C496.679 44.108 496.679 44.308 496.679 44.436C496.679 44.572 496.679 44.772 496.679 45.036C496.407 45.036 496.203 45.036 496.067 45.036C495.939 45.036 495.743 45.036 495.479 45.036C495.479 44.764 495.479 44.56 495.479 44.424C495.479 44.296 495.479 44.1 495.479 43.836ZM499.823 40.92H500.555C500.939 40.92 501.211 40.836 501.371 40.668C501.539 40.5 501.623 40.232 501.623 39.864V38.304H502.559V40.008C502.559 40.328 502.635 40.56 502.787 40.704C502.947 40.84 503.191 40.912 503.519 40.92C503.903 40.912 504.175 40.828 504.335 40.668C504.503 40.5 504.587 40.232 504.587 39.864V38.304H505.523V40.008C505.523 40.328 505.599 40.56 505.751 40.704C505.911 40.84 506.155 40.912 506.483 40.92C506.835 40.912 507.091 40.828 507.251 40.668C507.411 40.5 507.483 40.28 507.467 40.008C507.451 39.776 507.403 39.448 507.323 39.024C507.251 38.6 507.175 38.204 507.095 37.836L508.007 37.596C508.095 37.964 508.179 38.384 508.259 38.856C508.339 39.32 508.387 39.696 508.403 39.984C508.419 40.312 508.355 40.632 508.211 40.944C508.067 41.256 507.847 41.512 507.551 41.712C507.255 41.904 506.899 42 506.483 42C506.227 42 505.963 41.94 505.691 41.82C505.427 41.692 505.199 41.496 505.007 41.232C504.815 41.488 504.595 41.68 504.347 41.808C504.099 41.936 503.823 42 503.519 42C503.255 42 502.987 41.932 502.715 41.796C502.443 41.652 502.219 41.464 502.043 41.232C501.851 41.488 501.627 41.68 501.371 41.808C501.115 41.936 500.843 42 500.555 42H499.823V40.92Z" fill="#A72F3B"/>
</svg>
